<?xml version="1.0" encoding="UTF-8"?>
<svg version="1.1" xmlns="http://www.w3.org/2000/svg" width="256" height="256">
<path d="M0 0 C2.30388782 3.45583173 3.943536 7.05655123 5.68359375 10.8203125 C6.86985454 13.31694673 6.86985454 13.31694673 10 14 C10.34599704 15.33010336 10.677439 16.66401973 11 18 C12.50413898 19.93985476 12.50413898 19.93985476 14.375 21.6875 C14.98085937 22.28949219 15.58671875 22.89148438 16.2109375 23.51171875 C18.03722 25.21440592 18.03722 25.21440592 21 26 C21.34285885 27.33091574 21.67351127 28.66497416 22 30 C23.33496713 32.14568751 24.70185222 34.22760599 26.125 36.3125 C41.26369503 59.30144809 48.54097892 86.84729057 43.24609375 114.203125 C40.32730304 127.56558877 35.06822459 139.21581276 26.953125 150.16015625 C24.93182349 152.87087215 24.93182349 152.87087215 23.91796875 155.74609375 C22.56295262 159.0730908 19.9546048 160.07046217 17 162 C16.484375 162.86625 15.96875 163.7325 15.4375 164.625 C13.64548016 167.58572844 12.14841775 167.78907009 9 169 C6.96836902 172.10160568 6.70785702 174.76428952 6.5859375 178.421875 C6.54726562 179.44667969 6.50859375 180.47148437 6.46875 181.52734375 C6.42234375 183.12255859 6.42234375 183.12255859 6.375 184.75 C6.33632812 185.82894531 6.29765625 186.90789062 6.2578125 188.01953125 C6.16365369 190.67951775 6.07802613 193.3394994 6 196 C3.03 195.01 3.03 195.01 0 194 C-0.06993164 193.35450195 -0.13986328 192.70900391 -0.21191406 192.04394531 C-0.53998459 189.11029861 -0.89468101 186.18046591 -1.25 183.25 C-1.35957031 182.23421875 -1.46914062 181.2184375 -1.58203125 180.171875 C-1.76572266 178.70234375 -1.76572266 178.70234375 -1.953125 177.203125 C-2.11022949 175.85202637 -2.11022949 175.85202637 -2.27050781 174.47363281 C-3.18198419 171.38291038 -4.55657886 170.05256626 -7 168 C-7.680625 167.690625 -8.36125 167.38125 -9.0625 167.0625 C-11 166 -11 166 -12.375 163.625 C-13.89902424 160.7528301 -13.89902424 160.7528301 -17.125 158.9375 C-20.3686592 156.75155576 -20.25283895 156.52233066 -21 153 C-24.12765923 149.52324623 -24.12765923 149.52324623 -28 147 C-28.12761719 146.3090625 -28.25523438 145.618125 -28.38671875 144.90625 C-29.19445441 141.07850905 -30.99119811 137.92120511 -32.8125 134.5 C-44.78500699 111.11661318 -45.56795128 85.21351331 -37.52734375 60.2578125 C-31.13520271 41.56098729 -21.45818485 26.76407131 -6.96875 13.19140625 C-5.0165262 11.01839523 -4.36381856 9.85207763 -4 7 C-3.34 7 -2.68 7 -2 7 C-1.34 4.69 -0.68 2.38 0 0 Z " fill="#4FAA40" transform="translate(127,4)"/>
<path d="M0 0 C8.25 0 16.5 0 25 0 C25 0.66 25 1.32 25 2 C26.3921875 1.8453125 26.3921875 1.8453125 27.8125 1.6875 C28.864375 1.790625 29.91625 1.89375 31 2 C32.625 4.1875 32.625 4.1875 34 7 C35.0209375 8.2065625 35.0209375 8.2065625 36.0625 9.4375 C40.01923037 14.67059501 40.34445197 19.21541652 39.546875 25.5390625 C38.71143599 29.29853805 37.13755681 31.79366478 35 35 C34.566875 35.94875 34.13375 36.8975 33.6875 37.875 C32 40 32 40 28.625 40.75 C27.42875 40.8325 26.2325 40.915 25 41 C23.95392578 41.25330078 23.95392578 41.25330078 22.88671875 41.51171875 C18.65375811 42.22771344 14.4715703 42.10403088 10.1875 42.0625 C8.86202148 42.05573242 8.86202148 42.05573242 7.50976562 42.04882812 C5.33981441 42.03709866 3.16989828 42.01916495 1 42 C0 39 0 39 1 36 C1.66 36 2.32 36 3 36 C3 26.76 3 17.52 3 8 C1.68 7.67 0.36 7.34 -1 7 C-0.67 4.69 -0.34 2.38 0 0 Z M13 6 C13 15.9 13 25.8 13 36 C13.33 36 13.66 36 14 36 C14 26.1 14 16.2 14 6 C13.67 6 13.34 6 13 6 Z M15 6 C17.35438733 7.42944945 18.48032433 8.08661261 21.25 7.625 C21.8275 7.41875 22.405 7.2125 23 7 C20.36 6.67 17.72 6.34 15 6 Z M4 7 C4 16.9 4 26.8 4 37 C4.33 37 4.66 37 5 37 C5 27.1 5 17.2 5 7 C4.67 7 4.34 7 4 7 Z M15 8 C15 16.91 15 25.82 15 35 C26.07488886 36.30448383 26.07488886 36.30448383 29.6875 32.6875 C32.51696366 26.89383632 32.841319 21.29516607 31.25 15.0625 C29.70842635 12.51890348 28.76783703 12.04728969 26 11 C24.845 10.46375 23.69 9.9275 22.5 9.375 C19.00623271 7.75623175 19.00623271 7.75623175 15 8 Z M16 36 C16 36.33 16 36.66 16 37 C17.98 37 19.96 37 22 37 C22 36.67 22 36.34 22 36 C20.02 36 18.04 36 16 36 Z " fill="#51AB41" transform="translate(176,194)"/>
<path d="M0 0 C7.26 0 14.52 0 22 0 C22 0.66 22 1.32 22 2 C22.86625 2.0309375 22.86625 2.0309375 23.75 2.0625 C26.74553007 3.31063753 27.83291375 5.27871205 29.31640625 8.08984375 C30.34167925 10.95474945 29.78548826 13.11987639 29 16 C28.7763932 18.87887965 28.7763932 18.87887965 29.875 20.75 C31.42048455 23.8409691 32.35424073 26.59508746 33 30 C31.8125 33.125 31.8125 33.125 30 36 C29.62875 36.928125 29.2575 37.85625 28.875 38.8125 C27 41 27 41 23.375 41.8125 C21.58525584 41.91638233 19.79250298 41.96985441 18 42 C17.32372559 42.01369629 16.64745117 42.02739258 15.95068359 42.04150391 C1.59965721 42.29982861 1.59965721 42.29982861 -1 41 C-0.690625 40.236875 -0.38125 39.47375 -0.0625 38.6875 C1.33802581 33.82685159 1.65979734 29.03141827 2 24 C2.66 25.32 3.32 26.64 4 28 C4 21.4 4 14.8 4 8 C2.35 8 0.7 8 -1 8 C-0.67 5.36 -0.34 2.72 0 0 Z M12 6 C12 9.96 12 13.92 12 18 C12.33 18 12.66 18 13 18 C13 14.04 13 10.08 13 6 C12.67 6 12.34 6 12 6 Z M14 6 C14.33 6.66 14.66 7.32 15 8 C15.99 7.67 16.98 7.34 18 7 C16.68 6.67 15.36 6.34 14 6 Z M14 8 C14 10.64 14 13.28 14 16 C15.98 16 17.96 16 20 16 C20 14.02 20 12.04 20 10 C18.02 9.34 16.04 8.68 14 8 Z M21 9 C21 11.31 21 13.62 21 16 C21.33 16 21.66 16 22 16 C22 13.69 22 11.38 22 9 C21.67 9 21.34 9 21 9 Z M14 17 C18 18 18 18 18 18 Z M26 18 C25.67 18.66 25.34 19.32 25 20 C25.66 20 26.32 20 27 20 C26.67 19.34 26.34 18.68 26 18 Z M12 22 C12 26.62 12 31.24 12 36 C12.33 36 12.66 36 13 36 C13 31.38 13 26.76 13 22 C12.67 22 12.34 22 12 22 Z M14 23 C14 23.33 14 23.66 14 24 C15.65 24 17.3 24 19 24 C19 23.67 19 23.34 19 23 C17.35 23 15.7 23 14 23 Z M14 25 C14 28.3 14 31.6 14 35 C15.093125 35 16.18625 35 17.3125 35 C19.54166667 35 21.77083333 35 24 35 C25.23293337 30.06315646 25.23293337 30.06315646 23.5 25.5 C20.03377718 23.42026631 17.8399099 24.11386695 14 25 Z M15 36 C15 36.33 15 36.66 15 37 C17.31 37 19.62 37 22 37 C22 36.67 22 36.34 22 36 C19.69 36 17.38 36 15 36 Z " fill="#4BA73C" transform="translate(219,194)"/>
<path d="M0 0 C0.98484375 0.01804688 1.9696875 0.03609375 2.984375 0.0546875 C4.10585937 0.08949219 4.10585937 0.08949219 5.25 0.125 C5.53875 0.74375 5.8275 1.3625 6.125 2 C7.18720042 4.25825765 7.18720042 4.25825765 9.25 6.125 C9.58 6.125 9.91 6.125 10.25 6.125 C10.31058594 7.17300781 10.37117188 8.22101563 10.43359375 9.30078125 C10.51801738 10.67970048 10.60266447 12.05860605 10.6875 13.4375 C10.72681641 14.12779297 10.76613281 14.81808594 10.80664062 15.52929688 C10.99927415 18.59661535 11.27322717 21.19468152 12.25 24.125 C12.25 25.115 12.25 26.105 12.25 27.125 C7.3 27.125 2.35 27.125 -2.75 27.125 C-1.75 24.125 -1.75 24.125 -0.75 22.125 C-0.67907158 19.9177077 -0.66584975 17.70832548 -0.6875 15.5 C-0.69652344 14.31148437 -0.70554688 13.12296875 -0.71484375 11.8984375 C-0.72644531 10.98320312 -0.73804688 10.06796875 -0.75 9.125 C-3.225 8.63 -3.225 8.63 -5.75 8.125 C-5.75 12.745 -5.75 17.365 -5.75 22.125 C-5.09 22.455 -4.43 22.785 -3.75 23.125 C-3.75 24.445 -3.75 25.765 -3.75 27.125 C-8.7 27.125 -13.65 27.125 -18.75 27.125 C-18.42 25.475 -18.09 23.825 -17.75 22.125 C-17.09 22.125 -16.43 22.125 -15.75 22.125 C-15.75 17.505 -15.75 12.885 -15.75 8.125 C-17.73 8.125 -19.71 8.125 -21.75 8.125 C-21.75 12.745 -21.75 17.365 -21.75 22.125 C-21.09 22.455 -20.43 22.785 -19.75 23.125 C-19.75 24.445 -19.75 25.765 -19.75 27.125 C-24.37 27.125 -28.99 27.125 -33.75 27.125 C-33.75 25.475 -33.75 23.825 -33.75 22.125 C-33.09 22.125 -32.43 22.125 -31.75 22.125 C-31.89179038 19.89557252 -32.03859698 17.66646372 -32.1875 15.4375 C-32.26871094 14.19613281 -32.34992187 12.95476562 -32.43359375 11.67578125 C-32.69491317 8.74319663 -33.09798379 5.99058383 -33.75 3.125 C-28.82867546 1.16730329 -24.7005814 0.84701369 -19.5 0.9375 C-18.78070313 0.93814453 -18.06140625 0.93878906 -17.3203125 0.93945312 C-12.03196429 0.98401786 -12.03196429 0.98401786 -9.75 2.125 C-9.16734375 1.81820312 -8.5846875 1.51140625 -7.984375 1.1953125 C-5.17418778 -0.15082613 -3.0992465 -0.07379158 0 0 Z M-30.75 7.125 C-30.75 12.405 -30.75 17.685 -30.75 23.125 C-30.42 23.125 -30.09 23.125 -29.75 23.125 C-29.75 17.845 -29.75 12.565 -29.75 7.125 C-30.08 7.125 -30.41 7.125 -30.75 7.125 Z M-23.75 7.125 C-23.75 12.405 -23.75 17.685 -23.75 23.125 C-23.42 23.125 -23.09 23.125 -22.75 23.125 C-22.75 17.845 -22.75 12.565 -22.75 7.125 C-23.08 7.125 -23.41 7.125 -23.75 7.125 Z M-7.75 7.125 C-7.75 12.405 -7.75 17.685 -7.75 23.125 C-7.42 23.125 -7.09 23.125 -6.75 23.125 C-6.75 17.845 -6.75 12.565 -6.75 7.125 C-7.08 7.125 -7.41 7.125 -7.75 7.125 Z M0.25 7.125 C1.25 9.125 1.25 9.125 1.25 9.125 Z M-14.75 8.125 C-14.75 13.075 -14.75 18.025 -14.75 23.125 C-14.42 23.125 -14.09 23.125 -13.75 23.125 C-13.75 18.175 -13.75 13.225 -13.75 8.125 C-14.08 8.125 -14.41 8.125 -14.75 8.125 Z M1.25 9.125 C1.25 13.745 1.25 18.365 1.25 23.125 C1.58 23.125 1.91 23.125 2.25 23.125 C2.25 18.505 2.25 13.885 2.25 9.125 C1.92 9.125 1.59 9.125 1.25 9.125 Z " fill="#4FAC42" transform="translate(38.75,207.875)"/>
<path d="M0 0 C0 2.64 0 5.28 0 8 C-1.32 7.67 -2.64 7.34 -4 7 C-4.103125 8.03125 -4.20625 9.0625 -4.3125 10.125 C-4.99127797 13.95083945 -6.11158795 16.63370025 -8 20 C-7.236875 20.20625 -6.47375 20.4125 -5.6875 20.625 C-2.03951399 22.49141145 -1.30641568 24.15333162 0 28 C-0.09434572 33.37770625 -1.40909551 36.07244821 -5 40 C-5.33 40.66 -5.66 41.32 -6 42 C-8.79134852 42.19425873 -11.58283687 42.38069517 -14.375 42.5625 C-15.1690625 42.61857422 -15.963125 42.67464844 -16.78125 42.73242188 C-22.7734375 43.11328125 -22.7734375 43.11328125 -25 42 C-25.5625 40.3125 -25.5625 40.3125 -26 38 C-26.2475 37.01 -26.495 36.02 -26.75 35 C-27 32 -27 32 -25.53515625 30.16015625 C-23.58659217 27.41828365 -23.62859298 25.76801227 -23.6875 22.4375 C-23.69136719 21.48746094 -23.69523437 20.53742188 -23.69921875 19.55859375 C-23.83198905 16.76044095 -23.83198905 16.76044095 -26 14 C-25.76039507 8.96829652 -25.50336867 5.79531606 -22 2 C-21.67 1.34 -21.34 0.68 -21 0 C-20.21496094 0.01160156 -19.42992188 0.02320313 -18.62109375 0.03515625 C-11.72289504 0.13493104 -11.72289504 0.13493104 -4.875 -0.5625 C-2 -1 -2 -1 0 0 Z M-9 1 C-9 1.33 -9 1.66 -9 2 C-6.69 2 -4.38 2 -2 2 C-2 1.67 -2 1.34 -2 1 C-4.31 1 -6.62 1 -9 1 Z M-18 5 C-19.60339848 8.11771927 -20.18974141 9.39011689 -19.125 12.8125 C-18.75375 13.534375 -18.3825 14.25625 -18 15 C-16.35 14.67 -14.7 14.34 -13 14 C-13 11.69 -13 9.38 -13 7 C-15.475 6.01 -15.475 6.01 -18 5 Z M-12 6 C-12 8.97 -12 11.94 -12 15 C-9.91045968 10.82091936 -9.83447381 10.19589427 -11 6 C-11.33 6 -11.66 6 -12 6 Z M-17 20 C-16 22 -16 22 -16 22 Z M-15 20 C-15 20.66 -15 21.32 -15 22 C-11.52674819 23.1577506 -8.63932552 23.06866652 -5 23 C-5 22.67 -5 22.34 -5 22 C-8.3 21.34 -11.6 20.68 -15 20 Z M-17 28 C-13 29 -13 29 -13 29 Z M-19 31 C-18.50243908 33.75641416 -18.50243908 33.75641416 -17 36 C-15.31391034 36.07205511 -13.62499341 36.08386068 -11.9375 36.0625 C-11.01839844 36.05347656 -10.09929687 36.04445313 -9.15234375 36.03515625 C-8.44207031 36.02355469 -7.73179687 36.01195312 -7 36 C-6.67 34.35 -6.34 32.7 -6 31 C-8.36613456 29.81693272 -9.86780736 29.86645392 -12.5 29.875 C-13.2940625 29.87242187 -14.088125 29.86984375 -14.90625 29.8671875 C-17.05918534 29.86722004 -17.05918534 29.86722004 -19 31 Z M-21 31 C-20 34 -20 34 -20 34 Z M-15 37 C-15 37.33 -15 37.66 -15 38 C-13.35 38 -11.7 38 -10 38 C-10 37.67 -10 37.34 -10 37 C-11.65 37 -13.3 37 -15 37 Z " fill="#4CAA40" transform="translate(143,208)"/>
<path d="M0 0 C3.88307913 1.60388051 4.59284014 3.7299839 6.2109375 7.47265625 C6.43007812 8.03855469 6.64921875 8.60445312 6.875 9.1875 C7.535 9.1875 8.195 9.1875 8.875 9.1875 C8.93558594 10.29609375 8.99617188 11.4046875 9.05859375 12.546875 C9.14302951 14.0104282 9.22767599 15.47396925 9.3125 16.9375 C9.35181641 17.66710937 9.39113281 18.39671875 9.43164062 19.1484375 C9.63891535 22.65616362 10.0190061 25.76352438 10.875 29.1875 C6.255 29.1875 1.635 29.1875 -3.125 29.1875 C-2.795 22.9175 -2.465 16.6475 -2.125 10.1875 C-3.775 10.1875 -5.425 10.1875 -7.125 10.1875 C-7.01130789 12.64683991 -6.88457349 15.1042909 -6.75 17.5625 C-6.7190625 18.26117188 -6.688125 18.95984375 -6.65625 19.6796875 C-6.53000502 23.88935827 -6.53000502 23.88935827 -4.125 27.1875 C-4.125 27.8475 -4.125 28.5075 -4.125 29.1875 C-9.405 29.1875 -14.685 29.1875 -20.125 29.1875 C-20.125 27.5375 -20.125 25.8875 -20.125 24.1875 C-19.465 24.1875 -18.805 24.1875 -18.125 24.1875 C-18.125 19.5675 -18.125 14.9475 -18.125 10.1875 C-18.785 9.8575 -19.445 9.5275 -20.125 9.1875 C-20.16754356 7.18795254 -20.16580783 5.18708364 -20.125 3.1875 C-19.795 2.8575 -19.465 2.5275 -19.125 2.1875 C-17.55799235 2.35866091 -15.99581942 2.5749087 -14.4375 2.8125 C-8.64730494 3.48788548 -5.4761063 0.32856638 0 0 Z M-18.125 3.1875 C-14.125 4.1875 -14.125 4.1875 -14.125 4.1875 Z M-17.125 9.1875 C-17.125 14.4675 -17.125 19.7475 -17.125 25.1875 C-16.795 25.1875 -16.465 25.1875 -16.125 25.1875 C-16.125 19.9075 -16.125 14.6275 -16.125 9.1875 C-16.455 9.1875 -16.785 9.1875 -17.125 9.1875 Z M-9.125 9.1875 C-9.125 14.4675 -9.125 19.7475 -9.125 25.1875 C-8.795 25.1875 -8.465 25.1875 -8.125 25.1875 C-8.125 19.9075 -8.125 14.6275 -8.125 9.1875 C-8.455 9.1875 -8.785 9.1875 -9.125 9.1875 Z M-1.125 10.1875 C-1.125 14.4775 -1.125 18.7675 -1.125 23.1875 C-0.465 23.1875 0.195 23.1875 0.875 23.1875 C0.545 18.8975 0.215 14.6075 -0.125 10.1875 C-0.455 10.1875 -0.785 10.1875 -1.125 10.1875 Z " fill="#49A83C" transform="translate(104.125,205.8125)"/>
<path d="M0 0 C1.74690919 0.2143934 3.4974023 0.40107653 5.25 0.5625 C6.14203125 0.64628906 7.0340625 0.73007813 7.953125 0.81640625 C8.62859375 0.87699219 9.3040625 0.93757812 10 1 C13.04260083 6.86787302 14.87152771 11.35460119 14 18 C12.125 21.25 12.125 21.25 10 24 C9.34 25.32 8.68 26.64 8 28 C2.72 28 -2.56 28 -8 28 C-8.66 26.68 -9.32 25.36 -10 24 C-10.556875 22.948125 -11.11375 21.89625 -11.6875 20.8125 C-14.02688159 15.27873441 -12.77125829 10.08239738 -10.75 4.625 C-7.71087453 0.0663118 -5.19799041 -1.44232527 0 0 Z M-5 6 C-6.61068765 10.83206294 -6.62322399 15.16927953 -5 19.9375 C-1.89953081 23.13485885 0.60020158 22.93016193 5 23 C7.58399406 20.41600594 7.3268593 19.21629635 7.375 15.625 C7.29973549 12.04052755 7.22037741 10.37294639 5.375 7.25 C2.20761891 5.58295732 0.41229244 6.18401703 -3 7 C-3.66 6.67 -4.32 6.34 -5 6 Z " fill="#50AE42" transform="translate(67,208)"/>
<path d="M0 0 C1.0625 1.875 1.0625 1.875 2 4 C2.99 5.485 2.99 5.485 4 7 C4.86510541 14.15678111 4.25372487 19.83802678 -0.2734375 25.62890625 C-3.29748216 28.03035348 -6.55623094 27.45947876 -10.26953125 27.3515625 C-15.1392591 26.72455891 -17.72266815 24.44764277 -20.875 20.875 C-22.56664673 16.55190281 -22.79019485 12.57288687 -22 8 C-19.98473072 4.08941794 -17.03583624 1.66873375 -13 0 C-10.52734375 -0.44921875 -10.52734375 -0.44921875 -7.9375 -0.6875 C-6.65166016 -0.81705078 -6.65166016 -0.81705078 -5.33984375 -0.94921875 C-3 -1 -3 -1 0 0 Z M-14 5 C-16.23082477 9.33042455 -16.0472723 12.28727465 -15 17 C-14.01 18.485 -14.01 18.485 -13 20 C-12.34 20 -11.68 20 -11 20 C-10.195625 20.165 -9.39125 20.33 -8.5625 20.5 C-5.94439217 21.09575518 -5.94439217 21.09575518 -3 21 C-2.08542997 15.43842552 -1.67913603 11.324335 -4 6 C-4.99 6 -5.98 6 -7 6 C-9.33564933 5.68330179 -11.6693782 5.35179197 -14 5 Z " fill="#4EAB3F" transform="translate(167,209)"/>
<path d="M0 0 C2.57829461 1.16439112 2.80044996 2.31663741 3.9375 4.875 C4.5975 5.65875 5.2575 6.4425 5.9375 7.25 C9.94202587 12.5059402 10.28342508 17.03942558 9.48828125 23.41015625 C8.65350258 27.14593882 7.04358496 29.68396218 4.9375 32.875 C4.2572633 34.20146156 3.58257739 35.53108877 2.9375 36.875 C0.5 36.0625 0.5 36.0625 -2.0625 34.875 C-2.5575 33.39 -2.5575 33.39 -3.0625 31.875 C-1.6875 29.875 -1.6875 29.875 -0.0625 27.875 C0.86100727 25.10447819 1.10079585 23.30811242 1.125 20.4375 C1.14626953 19.29474609 1.14626953 19.29474609 1.16796875 18.12890625 C0.9092236 15.59846638 0.27149772 14.02991939 -1.0625 11.875 C-1.743125 11.400625 -2.42375 10.92625 -3.125 10.4375 C-5.0625 8.875 -5.0625 8.875 -5.875 6.3125 C-6.0625 3.875 -6.0625 3.875 -5.0625 1.875 C-2.0625 -0.125 -2.0625 -0.125 0 0 Z " fill="#51AA43" transform="translate(206.0625,196.125)"/>
<path d="M0 0 C0 2.64 0 5.28 0 8 C-1.32 7.67 -2.64 7.34 -4 7 C-4.12375 8.11375 -4.2475 9.2275 -4.375 10.375 C-5 14 -5 14 -7 16 C-7.99 15.01 -8.98 14.02 -10 13 C-9.67 12.01 -9.34 11.02 -9 10 C-9.66 10 -10.32 10 -11 10 C-11.99 11.485 -11.99 11.485 -13 13 C-13.0825 12.05125 -13.165 11.1025 -13.25 10.125 C-13.4975 9.09375 -13.745 8.0625 -14 7 C-15.96672915 5.8499169 -15.96672915 5.8499169 -18 5 C-18.625 2.9453125 -18.625 2.9453125 -19 1 C-16.20910735 0.63843896 -13.41759278 0.28545167 -10.625 -0.0625 C-9.43390625 -0.2181543 -9.43390625 -0.2181543 -8.21875 -0.37695312 C-2.2265625 -1.11328125 -2.2265625 -1.11328125 0 0 Z M-9 1 C-9 1.33 -9 1.66 -9 2 C-6.69 2 -4.38 2 -2 2 C-2 1.67 -2 1.34 -2 1 C-4.31 1 -6.62 1 -9 1 Z " fill="#48A83C" transform="translate(143,208)"/>
<path d="M0 0 C0.7734375 0.00386719 1.546875 0.00773438 2.34375 0.01171875 C4.5 0.3125 4.5 0.3125 7.5 2.3125 C7.005 2.745625 6.51 3.17875 6 3.625 C4.16781808 5.30990483 4.16781808 5.30990483 4.5 8.3125 C1.2 7.6525 -2.1 6.9925 -5.5 6.3125 C-5.5 15.2225 -5.5 24.1325 -5.5 33.3125 C-0.055 32.8175 -0.055 32.8175 5.5 32.3125 C4.51 34.7875 4.51 34.7875 3.5 37.3125 C2.18 37.3125 0.86 37.3125 -0.5 37.3125 C-0.5 36.6525 -0.5 35.9925 -0.5 35.3125 C-1.304375 35.333125 -2.10875 35.35375 -2.9375 35.375 C-5.5 35.3125 -5.5 35.3125 -6.5 34.3125 C-6.88016877 29.9361557 -7.01218219 25.54660052 -7.16748047 21.15722656 C-7.24942734 18.95290418 -7.35297754 16.75024925 -7.45703125 14.546875 C-7.50915654 13.14848695 -7.5599804 11.75004966 -7.609375 10.3515625 C-7.66061523 9.07490723 -7.71185547 7.79825195 -7.76464844 6.48291016 C-7.5 3.3125 -7.5 3.3125 -6.12792969 1.39526367 C-3.98183636 -0.03213943 -2.56154196 -0.05550008 0 0 Z M-5.5 4.3125 C-3.14561267 5.74194945 -2.01967567 6.39911261 0.75 5.9375 C1.3275 5.73125 1.905 5.525 2.5 5.3125 C-0.14 4.9825 -2.78 4.6525 -5.5 4.3125 Z " fill="#45A93A" transform="translate(196.5,195.6875)"/>
<path d="M0 0 C0.33 0 0.66 0 1 0 C1 8.25 1 16.5 1 25 C4.63 24.67 8.26 24.34 12 24 C11.01 26.475 11.01 26.475 10 29 C8.68 29 7.36 29 6 29 C6 28.34 6 27.68 6 27 C5.195625 27.020625 4.39125 27.04125 3.5625 27.0625 C1 27 1 27 0 26 C-0.08748207 24.07332493 -0.10697334 22.14348139 -0.09765625 20.21484375 C-0.09443359 19.04501953 -0.09121094 17.87519531 -0.08789062 16.66992188 C-0.07951172 15.43822266 -0.07113281 14.20652344 -0.0625 12.9375 C-0.05798828 11.70193359 -0.05347656 10.46636719 -0.04882812 9.19335938 C-0.03699608 6.12885883 -0.02051173 3.06445279 0 0 Z " fill="#186D13" transform="translate(190,204)"/>
<path d="M0 0 C0.33 0 0.66 0 1 0 C1.06058594 1.10859375 1.12117188 2.2171875 1.18359375 3.359375 C1.26802951 4.8229282 1.35267599 6.28646925 1.4375 7.75 C1.47681641 8.47960937 1.51613281 9.20921875 1.55664062 9.9609375 C1.76391535 13.46866362 2.1440061 16.57602438 3 20 C-1.62 20 -6.24 20 -11 20 C-10.67 19.34 -10.34 18.68 -10 18 C-8.700625 18.020625 -7.40125 18.04125 -6.0625 18.0625 C-4.70834367 18.08399454 -3.35243917 18.07148199 -2 18 C0.11925604 15.88074396 -0.58168983 11.3803907 -0.4375 8.4375 C-0.39431641 7.63119141 -0.35113281 6.82488281 -0.30664062 5.99414062 C-0.20024738 3.99631195 -0.09959112 1.9981793 0 0 Z " fill="#4AB241" transform="translate(112,215)"/>
<path d="M0 0 C0.33 1.32 0.66 2.64 1 4 C2.65 4.33 4.3 4.66 6 5 C5.67 6.32 5.34 7.64 5 9 C1.18510326 10.46726798 -1.29011622 9.43336419 -5 8 C-4.0409375 7.690625 -4.0409375 7.690625 -3.0625 7.375 C-0.65074923 6.10461791 -0.65074923 6.10461791 -0.25 2.875 C-0.1675 1.92625 -0.085 0.9775 0 0 Z " fill="#5FB64F" transform="translate(162,226)"/>
<path d="M0 0 C0.33 0 0.66 0 1 0 C1 8.91 1 17.82 1 27 C0.01 26.67 -0.98 26.34 -2 26 C-1.84152588 25.44731445 -1.68305176 24.89462891 -1.51977539 24.32519531 C-0.95067733 21.77935695 -0.7896572 19.40300555 -0.68359375 16.796875 C-0.64169922 15.8171875 -0.59980469 14.8375 -0.55664062 13.828125 C-0.51732422 12.81234375 -0.47800781 11.7965625 -0.4375 10.75 C-0.39431641 9.71875 -0.35113281 8.6875 -0.30664062 7.625 C-0.20074318 5.0834613 -0.09866557 2.54182804 0 0 Z " fill="#54B147" transform="translate(225,201)"/>
<path d="M0 0 C0.66 0.33 1.32 0.66 2 1 C1.35455571 4.48539917 -0.10134397 7.02819057 -2 10 C-3.98 9.34 -5.96 8.68 -8 8 C-7.01 7.34 -6.02 6.68 -5 6 C-2.91405138 4.08092727 -1.60134291 2.40201436 0 0 Z " fill="#50B343" transform="translate(139,240)"/>
<path d="M0 0 C0.99 0.33 1.98 0.66 3 1 C3 3.49346035 2.66203939 5.59258404 2 8 C1.01 8.66 0.02 9.32 -1 10 C-1.625 8.1875 -1.625 8.1875 -2 6 C-1.34 5.01 -0.68 4.02 0 3 C0 2.01 0 1.02 0 0 Z " fill="#59AC4E" transform="translate(122,208)"/>
<path d="M0 0 C1.14926266 0.95421808 2.29430541 1.91352045 3.4375 2.875 C4.07558594 3.40867188 4.71367188 3.94234375 5.37109375 4.4921875 C7 6 7 6 8 8 C4.00544473 7.38545304 1.25533664 5.29353263 -2 3 C-1 1 -1 1 0 0 Z " fill="#45AC3B" transform="translate(109,158)"/>
<path d="M0 0 C0.66 0.33 1.32 0.66 2 1 C-1.63 4.63 -5.26 8.26 -9 12 C-9 9 -9 9 -7.03125 6.73828125 C-5.77828125 5.53751953 -5.77828125 5.53751953 -4.5 4.3125 C-3.6646875 3.50425781 -2.829375 2.69601563 -1.96875 1.86328125 C-1.3190625 1.24839844 -0.669375 0.63351562 0 0 Z " fill="#2EB428" transform="translate(120,14)"/>
<path d="M0 0 C0 1.65 0 3.3 0 5 C-0.99 5.33 -1.98 5.66 -3 6 C-3.99 5.01 -4.98 4.02 -6 3 C-3.375 0 -3.375 0 0 0 Z " fill="#52B346" transform="translate(136,222)"/>
<path d="M0 0 C2.875 0.25 2.875 0.25 6 1 C7.4375 2.875 7.4375 2.875 8 5 C7.67 5.99 7.34 6.98 7 8 C5 6.6875 5 6.6875 3 5 C3 4.01 3 3.02 3 2 C2.01 1.34 1.02 0.68 0 0 Z " fill="#499841" transform="translate(101,206)"/>
<path d="M0 0 C6.6 0 13.2 0 20 0 C20 0.33 20 0.66 20 1 C13.4 1 6.8 1 0 1 C0 0.67 0 0.34 0 0 Z " fill="#00B200" transform="translate(177,237)"/>
<path d="M0 0 C6.27 0 12.54 0 19 0 C19 0.33 19 0.66 19 1 C12.73 1 6.46 1 0 1 C0 0.67 0 0.34 0 0 Z " fill="#009300" transform="translate(219,237)"/>
<path d="M0 0 C2.50037734 2.17424117 3.43628586 3.73045798 4 7 C2.35 6.67 0.7 6.34 -1 6 C-1.33 5.01 -1.66 4.02 -2 3 C-1.34 2.01 -0.68 1.02 0 0 Z " fill="#44B03C" transform="translate(35,210)"/>
<path d="M0 0 C0.33 0 0.66 0 1 0 C1 6.27 1 12.54 1 19 C0.67 19 0.34 19 0 19 C0 12.73 0 6.46 0 0 Z " fill="#32C532" transform="translate(134,178)"/>
<path d="M0 0 C2.46278801 1.231394 3.42497687 2.78064923 5 5 C3.1875 5.6875 3.1875 5.6875 1 6 C-0.75 4.5625 -0.75 4.5625 -2 3 C-1.34 2.01 -0.68 1.02 0 0 Z " fill="#4AB440" transform="translate(203,229)"/>
<path d="M0 0 C4.62 0 9.24 0 14 0 C14 0.33 14 0.66 14 1 C9.38 1 4.76 1 0 1 C0 0.67 0 0.34 0 0 Z " fill="#45B93C" transform="translate(21,236)"/>
<path d="M0 0 C4.62 0 9.24 0 14 0 C14 0.33 14 0.66 14 1 C9.38 1 4.76 1 0 1 C0 0.67 0 0.34 0 0 Z " fill="#4DA44D" transform="translate(5,236)"/>
<path d="M0 0 C4.29 0 8.58 0 13 0 C13 0.33 13 0.66 13 1 C8.71 1 4.42 1 0 1 C0 0.67 0 0.34 0 0 Z " fill="#3CA03C" transform="translate(38,236)"/>
<path d="M0 0 C0.33 0 0.66 0 1 0 C1 4.29 1 8.58 1 13 C0.67 13 0.34 13 0 13 C0 8.71 0 4.42 0 0 Z " fill="#1A731A" transform="translate(124,181)"/>
<path d="M0 0 C0.33 0 0.66 0 1 0 C1 3.3 1 6.6 1 10 C0.67 10 0.34 10 0 10 C0 6.7 0 3.4 0 0 Z " fill="#5DBA50" transform="translate(72,219)"/>
<path d="M0 0 C0.33 0 0.66 0 1 0 C1 3.3 1 6.6 1 10 C0.67 10 0.34 10 0 10 C0 6.7 0 3.4 0 0 Z " fill="#459F45" transform="translate(143,217)"/>
<path d="M0 0 C0.33 0 0.66 0 1 0 C1 3.3 1 6.6 1 10 C0.67 10 0.34 10 0 10 C0 6.7 0 3.4 0 0 Z " fill="#000000" transform="translate(222,202)"/>
<path d="M0 0 C0.33 0 0.66 0 1 0 C1 3.3 1 6.6 1 10 C0.67 10 0.34 10 0 10 C0 6.7 0 3.4 0 0 Z " fill="#33BF33" transform="translate(172,105)"/>
<path d="M0 0 C0.33 0 0.66 0 1 0 C1 3.3 1 6.6 1 10 C0.67 10 0.34 10 0 10 C0 6.7 0 3.4 0 0 Z " fill="#3DAE3D" transform="translate(83,102)"/>
<path d="M0 0 C0.33 0 0.66 0 1 0 C1 3.3 1 6.6 1 10 C0.67 10 0.34 10 0 10 C0 6.7 0 3.4 0 0 Z " fill="#34B634" transform="translate(83,84)"/>
<path d="M0 0 C2.97 0 5.94 0 9 0 C9 0.33 9 0.66 9 1 C6.03 1 3.06 1 0 1 C0 0.67 0 0.34 0 0 Z " fill="#40B15C" transform="translate(125,207)"/>
<path d="M0 0 C1.98 0.99 1.98 0.99 4 2 C4 2.99 4 3.98 4 5 C2.68 3.35 1.36 1.7 0 0 Z " fill="#3AA73A" transform="translate(208,198)"/>
<path d="M0 0 C0.33 0 0.66 0 1 0 C1 2.97 1 5.94 1 9 C0.67 9 0.34 9 0 9 C0 6.03 0 3.06 0 0 Z " fill="#000000" transform="translate(173,95)"/>
<path d="M0 0 C0.33 0 0.66 0 1 0 C1 2.97 1 5.94 1 9 C0.67 9 0.34 9 0 9 C0 6.03 0 3.06 0 0 Z " fill="#36CF36" transform="translate(172,85)"/>
<path d="M0 0 C2.64 0 5.28 0 8 0 C8 0.33 8 0.66 8 1 C5.36 1 2.72 1 0 1 C0 0.67 0 0.34 0 0 Z " fill="#000000" transform="translate(102,237)"/>
<path d="M0 0 C0.33 0 0.66 0 1 0 C1 2.64 1 5.28 1 8 C0.67 8 0.34 8 0 8 C0 5.36 0 2.72 0 0 Z " fill="#3FBF2F" transform="translate(82,218)"/>
<path d="M0 0 C0.33 0 0.66 0 1 0 C1 2.64 1 5.28 1 8 C0.67 8 0.34 8 0 8 C0 5.36 0 2.72 0 0 Z " fill="#429442" transform="translate(62,217)"/>
<path d="M0 0 C0.33 0 0.66 0 1 0 C1 2.64 1 5.28 1 8 C0.67 8 0.34 8 0 8 C0 5.36 0 2.72 0 0 Z " fill="#3FA73F" transform="translate(206,212)"/>
<path d="M0 0 C2.31 0 4.62 0 7 0 C7 0.33 7 0.66 7 1 C4.69 1 2.38 1 0 1 C0 0.67 0 0.34 0 0 Z " fill="#36A312" transform="translate(154,237)"/>
<path d="M0 0 C2.97 0.495 2.97 0.495 6 1 C6 1.33 6 1.66 6 2 C4.35 2 2.7 2 1 2 C0.67 1.34 0.34 0.68 0 0 Z " fill="#484800" transform="translate(84,236)"/>
<path d="M0 0 C0.33 0 0.66 0 1 0 C1 2.31 1 4.62 1 7 C0.67 7 0.34 7 0 7 C0 4.69 0 2.38 0 0 Z " fill="#009100" transform="translate(217,212)"/>
<path d="M0 0 C1.2065625 0.0309375 1.2065625 0.0309375 2.4375 0.0625 C0.5625 1.125 0.5625 1.125 -1.5625 2.0625 C-2.2225 1.7325 -2.8825 1.4025 -3.5625 1.0625 C-2.5625 0.0625 -2.5625 0.0625 0 0 Z " fill="#56A74A" transform="translate(8.5625,207.9375)"/>
<path d="M0 0 C2.31 0 4.62 0 7 0 C7 0.33 7 0.66 7 1 C4.69 1 2.38 1 0 1 C0 0.67 0 0.34 0 0 Z " fill="#287328" transform="translate(20,207)"/>
<path d="M0 0 C0.33 0 0.66 0 1 0 C1 2.31 1 4.62 1 7 C0.67 7 0.34 7 0 7 C0 4.69 0 2.38 0 0 Z " fill="#000000" transform="translate(82,94)"/>
<path d="M0 0 C1.98 0 3.96 0 6 0 C6 0.33 6 0.66 6 1 C4.02 1 2.04 1 0 1 C0 0.67 0 0.34 0 0 Z " fill="#2AA92A" transform="translate(64,237)"/>
<path d="M0 0 C0.33 0.99 0.66 1.98 1 3 C0.34 3.66 -0.32 4.32 -1 5 C-0.67 3.35 -0.34 1.7 0 0 Z " fill="#5FB45F" transform="translate(117,230)"/>
<path d="M0 0 C0.33 0 0.66 0 1 0 C1 1.98 1 3.96 1 6 C0.67 6 0.34 6 0 6 C0 4.02 0 2.04 0 0 Z " fill="#00D400" transform="translate(52,219)"/>
<path d="M0 0 C0.33 0 0.66 0 1 0 C1 1.98 1 3.96 1 6 C0.67 6 0.34 6 0 6 C0 4.02 0 2.04 0 0 Z " fill="#007F00" transform="translate(115,216)"/>
<path d="M0 0 C0.33 0 0.66 0 1 0 C1 1.98 1 3.96 1 6 C0.67 6 0.34 6 0 6 C0 4.02 0 2.04 0 0 Z " fill="#3F9F2A" transform="translate(84,78)"/>
<path d="M0 0 C0.33 0 0.66 0 1 0 C1 1.65 1 3.3 1 5 C0.67 5 0.34 5 0 5 C0 3.35 0 1.7 0 0 Z " fill="#3BC322" transform="translate(163,221)"/>
<path d="M0 0 C0.33 0 0.66 0 1 0 C1 1.65 1 3.3 1 5 C0.67 5 0.34 5 0 5 C0 3.35 0 1.7 0 0 Z " fill="#1DE11D" transform="translate(123,176)"/>
<path d="M0 0 C0.33 0 0.66 0 1 0 C1 1.65 1 3.3 1 5 C0.67 5 0.34 5 0 5 C0 3.35 0 1.7 0 0 Z " fill="#2E9D2E" transform="translate(171,115)"/>
<path d="M0 0 C0.33 0 0.66 0 1 0 C1 1.65 1 3.3 1 5 C0.67 5 0.34 5 0 5 C0 3.35 0 1.7 0 0 Z " fill="#32A532" transform="translate(84,112)"/>
<path d="M0 0 C0.33 0 0.66 0 1 0 C1 1.65 1 3.3 1 5 C0.67 5 0.34 5 0 5 C0 3.35 0 1.7 0 0 Z " fill="#37AE37" transform="translate(171,79)"/>
<path d="M0 0 C0.33 0 0.66 0 1 0 C1 1.65 1 3.3 1 5 C0.67 5 0.34 5 0 5 C0 3.35 0 1.7 0 0 Z " fill="#377B1D" transform="translate(85,73)"/>
<path d="M0 0 C4 1 4 1 4 1 Z " fill="#1CC51C" transform="translate(129,251)"/>
<path d="M0 0 C4 1 4 1 4 1 Z " fill="#7CC51C" transform="translate(122,251)"/>
<path d="M0 0 C1 4 1 4 1 4 Z " fill="#4AA44A" transform="translate(135,239)"/>
<path d="M0 0 C1 4 1 4 1 4 Z " fill="#3F7F00" transform="translate(114,240)"/>
<path d="M0 0 C1 4 1 4 1 4 Z " fill="#1FBF00" transform="translate(144,236)"/>
<path d="M0 0 C4 1 4 1 4 1 Z " fill="#41D02C" transform="translate(238,236)"/>
<path d="M0 0 C4 1 4 1 4 1 Z " fill="#3AA43A" transform="translate(197,236)"/>
<path d="M0 0 C1 4 1 4 1 4 Z " fill="#44B925" transform="translate(172,223)"/>
<path d="M0 0 C1 4 1 4 1 4 Z " fill="#51A031" transform="translate(242,222)"/>
<path d="M0 0 C1 4 1 4 1 4 Z " fill="#2F7F0F" transform="translate(153,222)"/>
<path d="M0 0 C1 4 1 4 1 4 Z " fill="#229022" transform="translate(125,218)"/>
<path d="M0 0 C1 4 1 4 1 4 Z " fill="#447A25" transform="translate(216,219)"/>
<path d="M0 0 C1 4 1 4 1 4 Z " fill="#2A942A" transform="translate(162,217)"/>
<path d="M0 0 C1 4 1 4 1 4 Z " fill="#44B944" transform="translate(172,216)"/>
<path d="M0 0 C1 4 1 4 1 4 Z " fill="#15BF15" transform="translate(140,216)"/>
<path d="M0 0 C1 4 1 4 1 4 Z " fill="#229022" transform="translate(153,215)"/>
<path d="M0 0 C1 4 1 4 1 4 Z " fill="#348A34" transform="translate(144,209)"/>
<path d="M0 0 C1 4 1 4 1 4 Z " fill="#258A25" transform="translate(216,208)"/>
<path d="M0 0 C1 4 1 4 1 4 Z " fill="#0F7F0F" transform="translate(205,208)"/>
<path d="M0 0 C4 1 4 1 4 1 Z " fill="#3C951C" transform="translate(160,207)"/>
<path d="M0 0 C4 1 4 1 4 1 Z " fill="#9FDF9F" transform="translate(154,207)"/>
<path d="M0 0 C4 1 4 1 4 1 Z " fill="#257A0F" transform="translate(90,207)"/>
<path d="M0 0 C4 1 4 1 4 1 Z " fill="#1CB51C" transform="translate(69,207)"/>
<path d="M0 0 C4 1 4 1 4 1 Z " fill="#0F9A25" transform="translate(11,207)"/>
<path d="M0 0 C1 4 1 4 1 4 Z " fill="#358A15" transform="translate(135,174)"/>
<path d="M0 0 C1 4 1 4 1 4 Z " fill="#2F8F2F" transform="translate(169,123)"/>
<path d="M0 0 C1 4 1 4 1 4 Z " fill="#2F8F2F" transform="translate(86,121)"/>
<path d="M0 0 C1 4 1 4 1 4 Z " fill="#258A25" transform="translate(170,75)"/>
<path d="M0 0 C1 4 1 4 1 4 Z " fill="#4FCF4F" transform="translate(86,69)"/>
<path d="M0 0 C1 4 1 4 1 4 Z " fill="#54C935" transform="translate(124,7)"/>
<path d="M0 0 C0.33 0.66 0.66 1.32 1 2 C0.34 1.67 -0.32 1.34 -1 1 C-0.67 0.67 -0.34 0.34 0 0 Z " fill="#387138" transform="translate(139,246)"/>
<path d="" fill="#15D415" transform="translate(0,0)"/>
<path d="M0 0 C3 1 3 1 3 1 Z " fill="#15BF15" transform="translate(70,236)"/>
<path d="M0 0 C3 1 3 1 3 1 Z " fill="#15BF15" transform="translate(61,236)"/>
<path d="M0 0 C3 1 3 1 3 1 Z " fill="#3F943F" transform="translate(201,235)"/>
<path d="M0 0 C0.66 0.66 1.32 1.32 2 2 C1.34 2 0.68 2 0 2 C0 1.34 0 0.68 0 0 Z " fill="#387138" transform="translate(148,233)"/>
<path d="" fill="#2AD42A" transform="translate(0,0)"/>
<path d="M0 0 C0.33 0.66 0.66 1.32 1 2 C0.34 1.67 -0.32 1.34 -1 1 C-0.67 0.67 -0.34 0.34 0 0 Z " fill="#387138" transform="translate(77,232)"/>
<path d="" fill="#54D454" transform="translate(0,0)"/>
<path d="" fill="#699415" transform="translate(0,0)"/>
<path d="M0 0 C0.33 0.66 0.66 1.32 1 2 C0.34 1.67 -0.32 1.34 -1 1 C-0.67 0.67 -0.34 0.34 0 0 Z " fill="#387138" transform="translate(248,231)"/>
<path d="" fill="#1C8D1C" transform="translate(0,0)"/>
<path d="" fill="#6AD46A" transform="translate(0,0)"/>
<path d="" fill="#3FBF3F" transform="translate(0,0)"/>
<path d="" fill="#3FE93F" transform="translate(0,0)"/>
<path d="" fill="#000000" transform="translate(0,0)"/>
<path d="" fill="#38C638" transform="translate(0,0)"/>
<path d="" fill="#387138" transform="translate(0,0)"/>
<path d="" fill="#38C638" transform="translate(0,0)"/>
<path d="" fill="#1C8D0E" transform="translate(0,0)"/>
<path d="" fill="#1C8D1C" transform="translate(0,0)"/>
<path d="" fill="#00AA00" transform="translate(0,0)"/>
<path d="M0 0 C0.99 0.495 0.99 0.495 2 1 C1.01 1.495 1.01 1.495 0 2 C0 1.34 0 0.68 0 0 Z " fill="#387138" transform="translate(148,210)"/>
<path d="" fill="#1CE21C" transform="translate(0,0)"/>
<path d="M0 0 C3 1 3 1 3 1 Z " fill="#2A7F2A" transform="translate(39,207)"/>
<path d="M0 0 C3 1 3 1 3 1 Z " fill="#2DC02D" transform="translate(35,207)"/>
<path d="" fill="#00FF00" transform="translate(0,0)"/>
<path d="M0 0 C0.66 0 1.32 0 2 0 C1.67 0.66 1.34 1.32 1 2 C0.67 1.34 0.34 0.68 0 0 Z " fill="#387138" transform="translate(245,197)"/>
<path d="M0 0 C3 1 3 1 3 1 Z " fill="#159415" transform="translate(201,195)"/>
<path d="" fill="#468D46" transform="translate(0,0)"/>
<path d="" fill="#1C8D1C" transform="translate(0,0)"/>
<path d="" fill="#38C638" transform="translate(0,0)"/>
<path d="" fill="#466346" transform="translate(0,0)"/>
<path d="" fill="#31CD31" transform="translate(0,0)"/>
<path d="" fill="#31CD31" transform="translate(0,0)"/>
<path d="" fill="#31CD31" transform="translate(0,0)"/>
<path d="" fill="#38C638" transform="translate(0,0)"/>
<path d="" fill="#46E246" transform="translate(0,0)"/>
<path d="" fill="#38C638" transform="translate(0,0)"/>
<path d="" fill="#387138" transform="translate(0,0)"/>
<path d="" fill="#46B81C" transform="translate(0,0)"/>
<path d="" fill="#1CE21C" transform="translate(0,0)"/>
<path d="" fill="#1CB81C" transform="translate(0,0)"/>
<path d="" fill="#468D46" transform="translate(0,0)"/>
<path d="M0 0 C2 1 2 1 2 1 Z " fill="#55AA55" transform="translate(133,250)"/>
<path d="" fill="#6A942A" transform="translate(0,0)"/>
<path d="M0 0 C2 1 2 1 2 1 Z " fill="#4AB44A" transform="translate(161,236)"/>
<path d="M0 0 C2 1 2 1 2 1 Z " fill="#4A944A" transform="translate(152,236)"/>
<path d="M0 0 C2 1 2 1 2 1 Z " fill="#00FF00" transform="translate(113,236)"/>
<path d="M0 0 C2 1 2 1 2 1 Z " fill="#6AD46A" transform="translate(242,235)"/>
<path d="M0 0 C2 1 2 1 2 1 Z " fill="#6A946A" transform="translate(150,235)"/>
<path d="" fill="#7FBF3F" transform="translate(0,0)"/>
<path d="" fill="#7F7F3F" transform="translate(0,0)"/>
<path d="" fill="#00FF00" transform="translate(0,0)"/>
<path d="" fill="#7FFF00" transform="translate(0,0)"/>
<path d="" fill="#3FBF00" transform="translate(0,0)"/>
<path d="" fill="#3F3F00" transform="translate(0,0)"/>
<path d="" fill="#3FFF3F" transform="translate(0,0)"/>
<path d="" fill="#00FF00" transform="translate(0,0)"/>
<path d="" fill="#55AA55" transform="translate(0,0)"/>
<path d="" fill="#1FBF1F" transform="translate(0,0)"/>
<path d="" fill="#2AD42A" transform="translate(0,0)"/>
<path d="" fill="#3FBF3F" transform="translate(0,0)"/>
<path d="" fill="#2AD42A" transform="translate(0,0)"/>
<path d="" fill="#1F5F1F" transform="translate(0,0)"/>
<path d="" fill="#00FF00" transform="translate(0,0)"/>
<path d="" fill="#6A946A" transform="translate(0,0)"/>
<path d="" fill="#5F9F1F" transform="translate(0,0)"/>
<path d="" fill="#2AD42A" transform="translate(0,0)"/>
<path d="" fill="#1FBF1F" transform="translate(0,0)"/>
<path d="" fill="#2AD42A" transform="translate(0,0)"/>
<path d="" fill="#2AD42A" transform="translate(0,0)"/>
<path d="" fill="#2A552A" transform="translate(0,0)"/>
<path d="" fill="#2AD42A" transform="translate(0,0)"/>
<path d="" fill="#000000" transform="translate(0,0)"/>
<path d="M0 0 C2 1 2 1 2 1 Z " fill="#6A946A" transform="translate(150,209)"/>
<path d="M0 0 C2 1 2 1 2 1 Z " fill="#6AFF6A" transform="translate(152,208)"/>
<path d="M0 0 C2 1 2 1 2 1 Z " fill="#AAFFAA" transform="translate(73,208)"/>
<path d="M0 0 C2 1 2 1 2 1 Z " fill="#6ABF6A" transform="translate(18,208)"/>
<path d="" fill="#6A942A" transform="translate(0,0)"/>
<path d="" fill="#3FBF00" transform="translate(0,0)"/>
<path d="" fill="#1FDF1F" transform="translate(0,0)"/>
<path d="" fill="#3F3F3F" transform="translate(0,0)"/>
<path d="" fill="#007F00" transform="translate(0,0)"/>
<path d="" fill="#007F00" transform="translate(0,0)"/>
<path d="M0 0 C2 1 2 1 2 1 Z " fill="#4AB44A" transform="translate(241,195)"/>
<path d="" fill="#3FBF00" transform="translate(0,0)"/>
<path d="" fill="#33CC19" transform="translate(0,0)"/>
<path d="" fill="#007F00" transform="translate(0,0)"/>
<path d="" fill="#2A552A" transform="translate(0,0)"/>
<path d="" fill="#3FFF3F" transform="translate(0,0)"/>
<path d="" fill="#2AD42A" transform="translate(0,0)"/>
<path d="" fill="#2A552A" transform="translate(0,0)"/>
<path d="" fill="#3F7F00" transform="translate(0,0)"/>
<path d="" fill="#BFBF00" transform="translate(0,0)"/>
<path d="" fill="#2AD42A" transform="translate(0,0)"/>
<path d="" fill="#2A552A" transform="translate(0,0)"/>
<path d="" fill="#2AD42A" transform="translate(0,0)"/>
<path d="" fill="#AAD42A" transform="translate(0,0)"/>
<path d="" fill="#2A942A" transform="translate(0,0)"/>
<path d="" fill="#6A946A" transform="translate(0,0)"/>
<path d="" fill="#2A942A" transform="translate(0,0)"/>
<path d="" fill="#2AD42A" transform="translate(0,0)"/>
<path d="" fill="#2AD42A" transform="translate(0,0)"/>
<path d="" fill="#2A942A" transform="translate(0,0)"/>
<path d="" fill="#6A942A" transform="translate(0,0)"/>
<path d="" fill="#6A946A" transform="translate(0,0)"/>
<path d="" fill="#1FBF1F" transform="translate(0,0)"/>
<path d="" fill="#2AD42A" transform="translate(0,0)"/>
<path d="" fill="#6A942A" transform="translate(0,0)"/>
<path d="" fill="#7F7F3F" transform="translate(0,0)"/>
<path d="" fill="#7FBF3F" transform="translate(0,0)"/>
<path d="" fill="#2A552A" transform="translate(0,0)"/>
<path d="" fill="#3FBF3F" transform="translate(0,0)"/>
<path d="" fill="#2AD42A" transform="translate(0,0)"/>
<path d="" fill="#2AD42A" transform="translate(0,0)"/>
<path d="" fill="#7F7F3F" transform="translate(0,0)"/>
<path d="" fill="#2AD42A" transform="translate(0,0)"/>
<path d="" fill="#2AD42A" transform="translate(0,0)"/>
<path d="" fill="#2AD42A" transform="translate(0,0)"/>
<path d="" fill="#2A552A" transform="translate(0,0)"/>
<path d="" fill="#2AD42A" transform="translate(0,0)"/>
<path d="" fill="#00FF00" transform="translate(0,0)"/>
<path d="" fill="#3FBF3F" transform="translate(0,0)"/>
<path d="" fill="#3FFF3F" transform="translate(0,0)"/>
<path d="" fill="#2AD42A" transform="translate(0,0)"/>
<path d="" fill="#2AD42A" transform="translate(0,0)"/>
<path d="" fill="#2AD42A" transform="translate(0,0)"/>
<path d="" fill="#3FFF3F" transform="translate(0,0)"/>
<path d="" fill="#000000" transform="translate(0,0)"/>
<path d="" fill="#55AA55" transform="translate(0,0)"/>
<path d="" fill="#55AA55" transform="translate(0,0)"/>
<path d="" fill="#7FFF7F" transform="translate(0,0)"/>
<path d="" fill="#7FFF7F" transform="translate(0,0)"/>
<path d="" fill="#55AA55" transform="translate(0,0)"/>
<path d="" fill="#7FFF7F" transform="translate(0,0)"/>
<path d="" fill="#7F7F7F" transform="translate(0,0)"/>
<path d="" fill="#55AA55" transform="translate(0,0)"/>
<path d="" fill="#55AA55" transform="translate(0,0)"/>
<path d="" fill="#007F00" transform="translate(0,0)"/>
<path d="" fill="#7F7F7F" transform="translate(0,0)"/>
<path d="" fill="#7F7F7F" transform="translate(0,0)"/>
<path d="" fill="#00FF00" transform="translate(0,0)"/>
<path d="" fill="#7F7F00" transform="translate(0,0)"/>
<path d="" fill="#7F7F7F" transform="translate(0,0)"/>
<path d="" fill="#55AA55" transform="translate(0,0)"/>
<path d="" fill="#55AA55" transform="translate(0,0)"/>
<path d="" fill="#007F00" transform="translate(0,0)"/>
<path d="" fill="#000000" transform="translate(0,0)"/>
<path d="" fill="#7F7F00" transform="translate(0,0)"/>
<path d="" fill="#55AA55" transform="translate(0,0)"/>
<path d="" fill="#55AA55" transform="translate(0,0)"/>
<path d="" fill="#55AA55" transform="translate(0,0)"/>
<path d="" fill="#55AA55" transform="translate(0,0)"/>
<path d="" fill="#7FFF7F" transform="translate(0,0)"/>
<path d="" fill="#00FF00" transform="translate(0,0)"/>
<path d="" fill="#7FFF7F" transform="translate(0,0)"/>
<path d="" fill="#7F7F7F" transform="translate(0,0)"/>
<path d="" fill="#55AA55" transform="translate(0,0)"/>
<path d="" fill="#000000" transform="translate(0,0)"/>
<path d="" fill="#339933" transform="translate(0,0)"/>
<path d="" fill="#55AA55" transform="translate(0,0)"/>
<path d="" fill="#7FFF7F" transform="translate(0,0)"/>
<path d="" fill="#555555" transform="translate(0,0)"/>
<path d="" fill="#339933" transform="translate(0,0)"/>
<path d="" fill="#55AA55" transform="translate(0,0)"/>
<path d="" fill="#55AA55" transform="translate(0,0)"/>
<path d="" fill="#55AA55" transform="translate(0,0)"/>
<path d="" fill="#7F7F7F" transform="translate(0,0)"/>
<path d="" fill="#7F7F7F" transform="translate(0,0)"/>
<path d="" fill="#7F7F00" transform="translate(0,0)"/>
<path d="" fill="#55AA55" transform="translate(0,0)"/>
<path d="" fill="#000000" transform="translate(0,0)"/>
<path d="" fill="#3FBF3F" transform="translate(0,0)"/>
<path d="" fill="#7F7F7F" transform="translate(0,0)"/>
<path d="" fill="#000000" transform="translate(0,0)"/>
<path d="" fill="#555555" transform="translate(0,0)"/>
<path d="" fill="#55AA55" transform="translate(0,0)"/>
<path d="" fill="#3FBF3F" transform="translate(0,0)"/>
<path d="" fill="#55AA55" transform="translate(0,0)"/>
<path d="" fill="#55AA55" transform="translate(0,0)"/>
<path d="" fill="#55AA55" transform="translate(0,0)"/>
<path d="" fill="#55AA55" transform="translate(0,0)"/>
<path d="" fill="#55AA55" transform="translate(0,0)"/>
<path d="" fill="#55AA55" transform="translate(0,0)"/>
<path d="" fill="#00FF00" transform="translate(0,0)"/>
<path d="" fill="#55AA55" transform="translate(0,0)"/>
<path d="" fill="#55AA55" transform="translate(0,0)"/>
<path d="" fill="#7F7F7F" transform="translate(0,0)"/>
<path d="" fill="#007F00" transform="translate(0,0)"/>
<path d="" fill="#007F00" transform="translate(0,0)"/>
<path d="" fill="#7FFF7F" transform="translate(0,0)"/>
<path d="" fill="#55AA55" transform="translate(0,0)"/>
<path d="" fill="#55AA55" transform="translate(0,0)"/>
<path d="" fill="#7F7F00" transform="translate(0,0)"/>
<path d="" fill="#007F00" transform="translate(0,0)"/>
<path d="" fill="#7F7F7F" transform="translate(0,0)"/>
<path d="" fill="#7F7F00" transform="translate(0,0)"/>
<path d="" fill="#55AA55" transform="translate(0,0)"/>
<path d="" fill="#55AA55" transform="translate(0,0)"/>
<path d="" fill="#7FFF7F" transform="translate(0,0)"/>
<path d="" fill="#7FFF7F" transform="translate(0,0)"/>
<path d="" fill="#7F7F7F" transform="translate(0,0)"/>
<path d="" fill="#55AA55" transform="translate(0,0)"/>
<path d="" fill="#55AA55" transform="translate(0,0)"/>
<path d="" fill="#55AA55" transform="translate(0,0)"/>
<path d="" fill="#000000" transform="translate(0,0)"/>
<path d="" fill="#55AA55" transform="translate(0,0)"/>
<path d="" fill="#55AA55" transform="translate(0,0)"/>
<path d="" fill="#7F7F7F" transform="translate(0,0)"/>
<path d="" fill="#55AA55" transform="translate(0,0)"/>
<path d="" fill="#339933" transform="translate(0,0)"/>
<path d="" fill="#55FF55" transform="translate(0,0)"/>
<path d="" fill="#55AA55" transform="translate(0,0)"/>
<path d="" fill="#3FBF3F" transform="translate(0,0)"/>
<path d="" fill="#7F7F00" transform="translate(0,0)"/>
<path d="" fill="#7FFF7F" transform="translate(0,0)"/>
<path d="" fill="#7F7F00" transform="translate(0,0)"/>
<path d="" fill="#7FFF7F" transform="translate(0,0)"/>
<path d="" fill="#7F7F00" transform="translate(0,0)"/>
<path d="" fill="#7FFF7F" transform="translate(0,0)"/>
<path d="" fill="#7F7F00" transform="translate(0,0)"/>
<path d="" fill="#7FFF7F" transform="translate(0,0)"/>
<path d="" fill="#7F7F00" transform="translate(0,0)"/>
<path d="" fill="#3FBF3F" transform="translate(0,0)"/>
<path d="" fill="#3FBF3F" transform="translate(0,0)"/>
<path d="" fill="#55FF55" transform="translate(0,0)"/>
<path d="" fill="#55AA55" transform="translate(0,0)"/>
<path d="" fill="#55AA55" transform="translate(0,0)"/>
<path d="" fill="#55AA55" transform="translate(0,0)"/>
<path d="" fill="#7F7F7F" transform="translate(0,0)"/>
<path d="" fill="#55AA55" transform="translate(0,0)"/>
<path d="" fill="#55AA55" transform="translate(0,0)"/>
<path d="" fill="#55AA55" transform="translate(0,0)"/>
<path d="" fill="#55AA55" transform="translate(0,0)"/>
<path d="" fill="#55AA55" transform="translate(0,0)"/>
<path d="" fill="#55AA55" transform="translate(0,0)"/>
<path d="" fill="#55AA55" transform="translate(0,0)"/>
<path d="" fill="#55AA55" transform="translate(0,0)"/>
<path d="" fill="#55AA55" transform="translate(0,0)"/>
<path d="" fill="#55AA55" transform="translate(0,0)"/>
<path d="" fill="#7FFF7F" transform="translate(0,0)"/>
<path d="" fill="#55AA55" transform="translate(0,0)"/>
<path d="" fill="#55AA55" transform="translate(0,0)"/>
<path d="" fill="#55AA55" transform="translate(0,0)"/>
<path d="" fill="#55AA55" transform="translate(0,0)"/>
<path d="" fill="#55AA55" transform="translate(0,0)"/>
<path d="" fill="#55FF55" transform="translate(0,0)"/>
<path d="" fill="#55AA55" transform="translate(0,0)"/>
<path d="" fill="#55FF55" transform="translate(0,0)"/>
<path d="" fill="#55AA55" transform="translate(0,0)"/>
<path d="" fill="#3F7F3F" transform="translate(0,0)"/>
<path d="" fill="#7FFF7F" transform="translate(0,0)"/>
<path d="" fill="#55AA55" transform="translate(0,0)"/>
<path d="" fill="#55AA55" transform="translate(0,0)"/>
<path d="" fill="#3F7F3F" transform="translate(0,0)"/>
<path d="" fill="#3F7F3F" transform="translate(0,0)"/>
<path d="" fill="#3FBF3F" transform="translate(0,0)"/>
<path d="" fill="#3FBF3F" transform="translate(0,0)"/>
<path d="" fill="#339933" transform="translate(0,0)"/>
<path d="" fill="#3FBF3F" transform="translate(0,0)"/>
<path d="" fill="#7FBF3F" transform="translate(0,0)"/>
<path d="" fill="#3FBF3F" transform="translate(0,0)"/>
<path d="" fill="#3FBF3F" transform="translate(0,0)"/>
<path d="" fill="#55AA55" transform="translate(0,0)"/>
<path d="" fill="#00FF00" transform="translate(0,0)"/>
</svg>
