<?xml version="1.0" encoding="UTF-8"?>
<!DOCTYPE svg PUBLIC "-//W3C//DTD SVG 1.1//EN" "http://www.w3.org/Graphics/SVG/1.1/DTD/svg11.dtd">
<svg xmlns="http://www.w3.org/2000/svg" version="1.1" width="225px" height="224px" style="shape-rendering:geometricPrecision; text-rendering:geometricPrecision; image-rendering:optimizeQuality; fill-rule:evenodd; clip-rule:evenodd" xmlns:xlink="http://www.w3.org/1999/xlink">
<g><path style="opacity:1" fill="#ec598f" d="M 202.5,35.5 C 202.523,37.9267 203.023,40.26 204,42.5C 204.167,88.3352 204.667,134.002 205.5,179.5C 202.787,191.215 195.787,199.215 184.5,203.5C 137.387,203.648 90.0535,203.482 42.5,203C 40.26,202.023 37.9267,201.523 35.5,201.5C 26.1076,197.101 20.4409,189.767 18.5,179.5C 19.1739,133.473 19.8406,87.3064 20.5,41C 20.4301,40.2352 20.0967,39.7352 19.5,39.5C 23.4388,29.0623 30.7722,22.229 41.5,19C 88.5,18.3333 135.5,18.3333 182.5,19C 191.765,21.4382 198.431,26.9382 202.5,35.5 Z"/></g>
<g><path style="opacity:1" fill="#fdeef3" d="M 108.5,47.5 C 115.394,46.7863 120.394,49.4529 123.5,55.5C 132.816,56.3321 142.149,56.8321 151.5,57C 156.935,58.7694 160.768,62.2694 163,67.5C 163.667,99.5 163.667,131.5 163,163.5C 161.594,168.573 158.428,172.073 153.5,174C 126.549,175.631 99.549,175.965 72.5,175C 67.7917,173.622 64.2917,170.788 62,166.5C 60.3548,133.561 60.0215,100.561 61,67.5C 63.2315,62.2694 67.0648,58.7694 72.5,57C 81.8511,56.8321 91.1845,56.3321 100.5,55.5C 102.216,51.7836 104.883,49.1169 108.5,47.5 Z"/></g>
<g><path style="opacity:1" fill="#ec588f" d="M 122.5,59.5 C 124.948,60.4731 127.615,60.8064 130.5,60.5C 130.5,64.1667 130.5,67.8333 130.5,71.5C 130.389,72.1174 130.056,72.6174 129.5,73C 117.833,73.6667 106.167,73.6667 94.5,73C 93.7476,72.3292 93.4142,71.4959 93.5,70.5C 93.5,67.1667 93.5,63.8333 93.5,60.5C 96.3854,60.8064 99.0521,60.4731 101.5,59.5C 104.723,51.5323 110.39,49.3657 118.5,53C 120.125,55.0948 121.458,57.2615 122.5,59.5 Z"/></g>
<g><path style="opacity:0.881" fill="#e8367a" d="M 202.5,35.5 C 203.6,37.2774 204.434,39.2774 205,41.5C 205.5,87.4988 205.667,133.499 205.5,179.5C 204.667,134.002 204.167,88.3352 204,42.5C 203.023,40.26 202.523,37.9267 202.5,35.5 Z"/></g>
<g><path style="opacity:1" fill="#ec5990" d="M 73.5,59.5 C 78.8333,59.5 84.1667,59.5 89.5,59.5C 88.0755,75.926 95.5755,81.926 112,77.5C 128.425,81.926 135.925,75.926 134.5,59.5C 142.206,58.6646 149.539,59.8312 156.5,63C 157.667,64.8333 158.833,66.6667 160,68.5C 160.667,99.8333 160.667,131.167 160,162.5C 158.314,167.605 154.814,170.771 149.5,172C 124.167,172.667 98.8333,172.667 73.5,172C 70.0731,170.569 67.2398,168.402 65,165.5C 63.3553,133.227 63.0219,100.894 64,68.5C 65.1667,66.6667 66.3333,64.8333 67.5,63C 69.7274,62.059 71.7274,60.8923 73.5,59.5 Z"/></g>
<g><path style="opacity:1" fill="#f293b5" d="M 101.5,59.5 C 99.0521,60.4731 96.3854,60.8064 93.5,60.5C 93.5,63.8333 93.5,67.1667 93.5,70.5C 92.5184,67.0381 92.185,63.3714 92.5,59.5C 95.5,59.5 98.5,59.5 101.5,59.5 Z"/></g>
<g><path style="opacity:1" fill="#f18bb0" d="M 122.5,59.5 C 125.5,59.5 128.5,59.5 131.5,59.5C 131.817,63.7016 131.483,67.7016 130.5,71.5C 130.5,67.8333 130.5,64.1667 130.5,60.5C 127.615,60.8064 124.948,60.4731 122.5,59.5 Z"/></g>
<g><path style="opacity:1" fill="#fef8fa" d="M 77.5,105.5 C 87.1667,105.5 96.8333,105.5 106.5,105.5C 106.5,106.5 106.5,107.5 106.5,108.5C 96.8333,108.5 87.1667,108.5 77.5,108.5C 77.5,107.5 77.5,106.5 77.5,105.5 Z"/></g>
<g><path style="opacity:1" fill="#fef7fa" d="M 116.5,105.5 C 126.167,105.5 135.833,105.5 145.5,105.5C 145.5,106.5 145.5,107.5 145.5,108.5C 135.833,108.5 126.167,108.5 116.5,108.5C 116.5,107.5 116.5,106.5 116.5,105.5 Z"/></g>
<g><path style="opacity:0.858" fill="#e72c74" d="M 19.5,39.5 C 20.0967,39.7352 20.4301,40.2352 20.5,41C 19.8406,87.3064 19.1739,133.473 18.5,179.5C 18.1766,132.791 18.51,86.1244 19.5,39.5 Z"/></g>
<g><path style="opacity:1" fill="#fef6f9" d="M 78.5,141.5 C 87.8333,141.5 97.1667,141.5 106.5,141.5C 106.5,142.5 106.5,143.5 106.5,144.5C 96.8104,144.832 87.1437,144.498 77.5,143.5C 77.8627,142.817 78.1961,142.15 78.5,141.5 Z"/></g>
<g><path style="opacity:1" fill="#fef6f8" d="M 117.5,141.5 C 126.833,141.5 136.167,141.5 145.5,141.5C 145.5,142.5 145.5,143.5 145.5,144.5C 135.81,144.832 126.144,144.498 116.5,143.5C 116.863,142.817 117.196,142.15 117.5,141.5 Z"/></g>
<g><path style="opacity:0.745" fill="#e72871" d="M 35.5,201.5 C 37.9267,201.523 40.26,202.023 42.5,203C 90.0535,203.482 137.387,203.648 184.5,203.5C 136.874,204.657 89.2077,204.823 41.5,204C 39.2774,203.434 37.2774,202.6 35.5,201.5 Z"/></g>
</svg>
