<?xml version="1.0" encoding="UTF-8"?>
<svg version="1.1" xmlns="http://www.w3.org/2000/svg" width="225" height="225">
<path d="M0 0 C0.76336166 -0.01248276 1.52672333 -0.02496552 2.31321716 -0.03782654 C33.26780731 -0.44639218 33.26780731 -0.44639218 48.0859375 5.2734375 C49.20871094 5.68078125 50.33148438 6.088125 51.48828125 6.5078125 C63.19335241 11.05404443 73.32080747 17.4271621 83.0859375 25.2734375 C83.93027344 25.95019531 84.77460938 26.62695312 85.64453125 27.32421875 C107.42130961 45.82576965 120.45557722 73.00130703 123.0859375 101.2734375 C125.10832366 131.97853519 116.79178687 160.46076489 97.0859375 184.2734375 C96.40144531 185.12164062 95.71695313 185.96984375 95.01171875 186.84375 C77.07986809 207.99073839 50.39826055 220.63888329 23.1484375 223.9609375 C-7.66514482 226.37374656 -36.7471288 218.76619847 -60.9140625 199.2734375 C-61.43307129 198.85755371 -61.95208008 198.44166992 -62.48681641 198.01318359 C-80.88016682 182.97785848 -92.91779757 162.04406383 -98.9140625 139.2734375 C-99.14738281 138.42265625 -99.38070312 137.571875 -99.62109375 136.6953125 C-106.56290751 108.92805745 -100.6767485 78.89044586 -86.9140625 54.2734375 C-83.92454666 49.34161637 -80.53198481 44.75890206 -76.9140625 40.2734375 C-76.49817871 39.75442871 -76.08229492 39.23541992 -75.65380859 38.70068359 C-57.74443955 16.79139343 -28.61996395 0.42539716 0 0 Z " fill="#242527" transform="translate(101.9140625,0.7265625)"/>
<path d="M0 0 C4.44478995 3.53678286 8.34896061 7.63120241 12.20654297 11.79418945 C18.00620133 17.92505647 24.63660515 22.22416387 33.296875 22.48828125 C40.42520136 22.4255687 46.72364373 20.2741638 51.734375 15.17578125 C52.394375 15.17578125 53.054375 15.17578125 53.734375 15.17578125 C54.023125 14.53640625 54.311875 13.89703125 54.609375 13.23828125 C55.734375 11.17578125 55.734375 11.17578125 57.734375 10.17578125 C55.97921719 17.55052327 53.29790262 23.13752588 48.734375 29.17578125 C48.32058594 29.74296875 47.90679687 30.31015625 47.48046875 30.89453125 C41.18617685 39.03764156 32.74698216 42.83364055 22.734375 44.17578125 C7.87472848 45.24545525 -4.16279149 43.46344275 -16.265625 34.17578125 C-16.84183594 33.74007812 -17.41804688 33.304375 -18.01171875 32.85546875 C-20.36544207 30.98892507 -22.30741793 29.12145044 -24.140625 26.73828125 C-29.6071477 20.146298 -37.69884859 14.81764661 -46.34375 13.97265625 C-56.1460086 13.76109671 -61.47916297 16.8759731 -68.578125 23.53125 C-69.135 24.07394531 -69.691875 24.61664063 -70.265625 25.17578125 C-71.65857839 20.99692109 -70.30633552 19.4588307 -68.390625 15.55078125 C-62.02725344 3.05774858 -53.56640267 -2.51377246 -40.578125 -7.13671875 C-26.6505062 -10.0763596 -12.02514422 -7.60413532 0 0 Z " fill="#09B3D1" transform="translate(95.265625,118.82421875)"/>
<path d="M0 0 C0.84240234 -0.01611328 1.68480469 -0.03222656 2.55273438 -0.04882812 C15.40617723 -0.058723 26.62834623 5.87141504 36.0625 14.3125 C37.25494614 15.64402194 38.42262789 16.99820297 39.5625 18.375 C43.72162151 23.36983285 48.8673784 27.24745947 55.0625 29.3125 C66.27358096 30.33301452 73.96672761 28.59830311 82.6875 21.5 C83.47125 20.778125 84.255 20.05625 85.0625 19.3125 C83.9241548 29.71354451 76.59950579 38.92836704 68.78125 45.50390625 C58.50557441 52.33959274 45.00688249 53.68469374 33.0625 51.5625 C20.86174523 48.79394062 12.73730741 43.1847651 4.125 34.25 C-2.79460577 27.15740408 -10.05261742 22.22435553 -20.125 22 C-29.45951324 22.07268253 -35.12500869 25.66595666 -41.75 32.0625 C-42.141875 32.475 -42.53375 32.8875 -42.9375 33.3125 C-41.80627921 24.46003967 -37.64999999 15.87134955 -30.984375 9.83984375 C-21.31883263 2.62757836 -11.87342731 -0.04521488 0 0 Z " fill="#08B4D3" transform="translate(109.9375,59.6875)"/>
<path d="M0 0 C0.66 0 1.32 0 2 0 C-0.43309843 21.53473682 -9.24544606 40.3789103 -23 57 C-24.02673828 58.27230469 -24.02673828 58.27230469 -25.07421875 59.5703125 C-43.00606941 80.71730089 -69.68767695 93.36544579 -96.9375 96.6875 C-105.10923446 97.35264118 -113.99283638 97.92171927 -122 96 C-122 95.67 -122 95.34 -122 95 C-121.06486572 94.970271 -121.06486572 94.970271 -120.11083984 94.93994141 C-102.2157024 94.34310708 -85.95510383 93.00493261 -69 87 C-67.948125 86.63003906 -66.89625 86.26007813 -65.8125 85.87890625 C-52.12492497 80.61865468 -41.36807556 72.11973842 -31 62 C-30.34515625 61.40703125 -29.6903125 60.8140625 -29.015625 60.203125 C-12.77011359 45.1499447 -3.4677823 21.50025025 0 0 Z " fill="#3E3E41" transform="translate(222,128)"/>
<path d="M0 0 C0 0.33 0 0.66 0 1 C-1.03898437 1.18175781 -2.07796875 1.36351562 -3.1484375 1.55078125 C-27.33695882 5.86891468 -47.44439211 14.64734712 -65 32 C-65.78890625 32.71671875 -66.5778125 33.4334375 -67.390625 34.171875 C-86.20442126 51.67002117 -94.81401838 77.14095918 -98 102 C-98.33 102 -98.66 102 -99 102 C-100.70827244 75.09470908 -84.87595318 50.6233139 -68.265625 30.9453125 C-52.66584817 14.13936736 -23.56189976 -2.91821694 0 0 Z " fill="#444445" transform="translate(100,2)"/>
<path d="M0 0 C6.28205515 -0.28064164 11.44070334 0.59853732 17.4375 2.4375 C18.73977539 2.83521606 18.73977539 2.83521606 20.06835938 3.2409668 C33.84783455 7.66954539 45.87663429 14.79779615 57 24 C58.25490234 25.00933594 58.25490234 25.00933594 59.53515625 26.0390625 C70.04851733 34.93626506 78.13124087 45.69039124 84.5625 57.8125 C84.96791016 58.5761084 85.37332031 59.3397168 85.79101562 60.12646484 C88.55697546 65.57972606 90.41710883 71.10027336 92 77 C91.34 77 90.68 77 90 77 C89.74347656 76.2471875 89.48695313 75.494375 89.22265625 74.71875 C84.15768014 60.66642571 77.12217916 48.05577821 67 37 C66.14148438 36.03707031 65.28296875 35.07414062 64.3984375 34.08203125 C48.97075256 17.36554041 29.25376936 7.69215951 7.29296875 2.82421875 C4.55342018 2.13851917 2.42761254 1.40031051 0 0 Z " fill="#434245" transform="translate(128,2)"/>
<path d="M0 0 C1.125 3.75 1.125 3.75 0 6 C0.33 6.66 0.66 7.32 1 8 C7.6 8 14.2 8 21 8 C21 8.66 21 9.32 21 10 C21.598125 10.103125 22.19625 10.20625 22.8125 10.3125 C25.28243264 11.08876455 26.32251235 12.07088921 28 14 C26.9790625 13.566875 26.9790625 13.566875 25.9375 13.125 C17.54998871 9.91276163 9.5958449 8.27389475 1.0625 11.80078125 C-3.12202829 14.23383084 -6.54972323 17.6375775 -10 21 C-11.2022972 17.39310841 -10.43388238 16.24352779 -8.79492188 12.95507812 C-8.47072266 12.33052734 -8.14652344 11.70597656 -7.8125 11.0625 C-7.50763672 10.44181641 -7.20277344 9.82113281 -6.88867188 9.18164062 C-5.03005339 5.52285079 -3.07444931 2.71996735 0 0 Z " fill="#17A9C6" transform="translate(35,123)"/>
<path d="M0 0 C3.45626165 1.15208722 3.84120051 1.86263699 5.875 4.75 C21.86443865 25.84530981 43.10066027 37.29306151 68 45 C67.01 45.99 67.01 45.99 66 47 C49.00953401 41.86198967 34.82571924 35.32615418 21 24 C20.14921875 23.31421875 19.2984375 22.6284375 18.421875 21.921875 C11.23081118 15.81625478 5.50528039 8.61947552 0 1 C0 0.67 0 0.34 0 0 Z " fill="#454548" transform="translate(19,175)"/>
<path d="M0 0 C4.73831012 1.12793453 9.36805145 2.49759319 14 4 C15.10472656 4.31066406 16.20945313 4.62132813 17.34765625 4.94140625 C18.66056641 5.46541016 18.66056641 5.46541016 20 6 C20.495 7.485 20.495 7.485 21 9 C16.51371991 8.23092341 12.67052502 6.70997313 8.5 4.9375 C-2.70468588 0.7357428 -15.87409064 2.45993793 -27 6 C-27 5.34 -27 4.68 -27 4 C-26.24074219 3.80664062 -25.48148438 3.61328125 -24.69921875 3.4140625 C-23.70535156 3.15367188 -22.71148437 2.89328125 -21.6875 2.625 C-20.70136719 2.36976562 -19.71523438 2.11453125 -18.69921875 1.8515625 C-11.40859593 -0.44851822 -8.02346369 -1.19588624 0 0 Z " fill="#0E2C31" transform="translate(74,109)"/>
<path d="M0 0 C0 0.66 0 1.32 0 2 C-5.04140164 4.81532819 -9.22621075 6.5188509 -15 7 C-15 7.66 -15 8.32 -15 9 C-18.63 9 -22.26 9 -26 9 C-25.67 8.34 -25.34 7.68 -25 7 C-25.99 6.67 -26.98 6.34 -28 6 C-28 5.34 -28 4.68 -28 4 C-29.32 3.67 -30.64 3.34 -32 3 C-31.67 2.34 -31.34 1.68 -31 1 C-29.700625 1.7425 -29.700625 1.7425 -28.375 2.5 C-22.04913889 5.19267815 -13.85623777 5.33152604 -7.38671875 3.09765625 C-1.35676157 0 -1.35676157 0 0 0 Z " fill="#18A3BA" transform="translate(189,85)"/>
<path d="M0 0 C1.29067383 -0.0309375 1.29067383 -0.0309375 2.60742188 -0.0625 C8.71478611 -0.09931908 13.65615253 0.98354709 19.3125 3.25 C20.323125 3.641875 21.33375 4.03375 22.375 4.4375 C23.3340625 4.8396875 23.3340625 4.8396875 24.3125 5.25 C23.6525 5.91 22.9925 6.57 22.3125 7.25 C21.63703125 6.97285156 20.9615625 6.69570312 20.265625 6.41015625 C19.37359375 6.04792969 18.4815625 5.68570313 17.5625 5.3125 C16.68078125 4.95285156 15.7990625 4.59320313 14.890625 4.22265625 C5.10374569 0.5303336 -5.33278257 1.66121723 -15.1640625 4.69140625 C-17.78981837 5.27264942 -19.18331982 5.13763194 -21.6875 4.25 C-20.43858386 3.76801537 -19.18831192 3.28954323 -17.9375 2.8125 C-17.24140625 2.54566406 -16.5453125 2.27882812 -15.828125 2.00390625 C-10.50460341 0.12901635 -5.60258588 0.03283567 0 0 Z " fill="#219EB6" transform="translate(109.6875,59.75)"/>
<path d="M0 0 C1.32 0 2.64 0 4 0 C4.66 1.65 5.32 3.3 6 5 C4.72125 4.67515625 3.4425 4.3503125 2.125 4.015625 C-2.96102971 2.88937585 -7.80694944 2.70206415 -13 2.75 C-13.83789062 2.74226563 -14.67578125 2.73453125 -15.5390625 2.7265625 C-21.30052877 2.74439986 -26.41577262 3.58142611 -32 5 C-31.67 3.68 -31.34 2.36 -31 1 C-20.77 1 -10.54 1 0 1 C0 0.67 0 0.34 0 0 Z " fill="#112D35" transform="translate(123,58)"/>
<path d="M0 0 C0.66 0 1.32 0 2 0 C2 0.66 2 1.32 2 2 C2.66 2.33 3.32 2.66 4 3 C2.44555348 4.46691458 0.88107825 5.92320641 -0.6875 7.375 C-1.55761719 8.18710938 -2.42773438 8.99921875 -3.32421875 9.8359375 C-5.89789707 11.91742332 -7.82276665 13.12533875 -11 14 C-11.99 13.67 -12.98 13.34 -14 13 C-13.34 12.34 -12.68 11.68 -12 11 C-12 10.34 -12 9.68 -12 9 C-9.03 9.495 -9.03 9.495 -6 10 C-5.896875 9.236875 -5.79375 8.47375 -5.6875 7.6875 C-4.95635961 4.82940576 -4.23048087 3.84257115 -2 2 C-1.34 2.33 -0.68 2.66 0 3 C0 2.01 0 1.02 0 0 Z " fill="#15ADC8" transform="translate(182,95)"/>
<path d="M0 0 C2 2 2 2 2 4.375 C0.60919278 8.02586894 -1.75337096 8.97085685 -5 11 C-5.33 11.99 -5.66 12.98 -6 14 C-6.99 14 -7.98 14 -9 14 C-9 14.66 -9 15.32 -9 16 C-11.31 16.66 -13.62 17.32 -16 18 C-11 13 -11 13 -8.5625 10.6875 C-5.37839886 7.34807685 -2.69775549 3.73606688 0 0 Z " fill="#132F39" transform="translate(148,141)"/>
<path d="M0 0 C9.9 0 19.8 0 30 0 C20.45795558 4.77102221 10.06640147 3.39880205 0 1 C0 0.67 0 0.34 0 0 Z " fill="#1EA1BA" transform="translate(138,109)"/>
<path d="M0 0 C0.5625 1.9375 0.5625 1.9375 1 4 C0.67 4.33 0.34 4.66 0 5 C1.32 5 2.64 5 4 5 C3.34 6.98 2.68 8.96 2 11 C-0.31 11.33 -2.62 11.66 -5 12 C-5 12.99 -5 13.98 -5 15 C-5.66 15 -6.32 15 -7 15 C-5.63408831 11.45756548 -4.09068516 8.07372071 -2.375 4.6875 C-1.70597656 3.36298828 -1.70597656 3.36298828 -1.0234375 2.01171875 C-0.68570313 1.34785156 -0.34796875 0.68398437 0 0 Z " fill="#172B31" transform="translate(196,79)"/>
<path d="M0 0 C1.1446875 -0.01417969 2.289375 -0.02835937 3.46875 -0.04296875 C6.5 0.1875 6.5 0.1875 9.5 2.1875 C8.61957031 2.17589844 7.73914063 2.16429688 6.83203125 2.15234375 C5.67058594 2.14332031 4.50914063 2.13429688 3.3125 2.125 C2.16394531 2.11339844 1.01539062 2.10179688 -0.16796875 2.08984375 C-3.11520036 2.17622217 -5.67216952 2.36551637 -8.5 3.1875 C-8.83 3.8475 -9.16 4.5075 -9.5 5.1875 C-11.81254012 6.23468798 -14.1485148 7.23096365 -16.5 8.1875 C-17.84013497 8.84038627 -19.17741528 9.49975595 -20.5 10.1875 C-14.24603921 3.56565917 -9.17656658 0.05166986 0 0 Z " fill="#0C303D" transform="translate(89.5,80.8125)"/>
<path d="M0 0 C0.33 0.66 0.66 1.32 1 2 C0.26821134 4.07196631 -0.55899003 6.1108552 -1.4375 8.125 C-1.91058594 9.22070312 -2.38367188 10.31640625 -2.87109375 11.4453125 C-3.24363281 12.28835937 -3.61617187 13.13140625 -4 14 C-4.33 14 -4.66 14 -5 14 C-5 12.35 -5 10.7 -5 9 C-5.598125 9.350625 -6.19625 9.70125 -6.8125 10.0625 C-9 11 -9 11 -12 10 C-6.375 6.125 -6.375 6.125 -3 5 C-1.8499169 3.03327085 -1.8499169 3.03327085 -1 1 C-0.67 0.67 -0.34 0.34 0 0 Z " fill="#2696AB" transform="translate(152,129)"/>
<path d="M0 0 C0.66 0.33 1.32 0.66 2 1 C0.69118353 2.66956087 -0.62214826 4.33558304 -1.9375 6 C-2.66839844 6.928125 -3.39929688 7.85625 -4.15234375 8.8125 C-4.76207031 9.534375 -5.37179688 10.25625 -6 11 C-6.33 11 -6.66 11 -7 11 C-6.38976378 4.53149606 -6.38976378 4.53149606 -4.625 2.125 C-3 1 -3 1 0 0 Z " fill="#15A8C0" transform="translate(145,143)"/>
<path d="M0 0 C0.33 0.99 0.66 1.98 1 3 C0.21625 3.721875 -0.5675 4.44375 -1.375 5.1875 C-3.84412438 7.83299041 -4.93260278 9.60373611 -6 13 C-10.455 13.495 -10.455 13.495 -15 14 C-14.34 13.484375 -13.68 12.96875 -13 12.4375 C-10.57444092 10.46673325 -8.18197288 8.47464244 -5.8125 6.4375 C-4.80123047 5.56931641 -4.80123047 5.56931641 -3.76953125 4.68359375 C-1.79044936 2.92449646 -1.79044936 2.92449646 0 0 Z " fill="#0E3137" transform="translate(188,94)"/>
<path d="M0 0 C2.475 0.495 2.475 0.495 5 1 C5 1.66 5 2.32 5 3 C5.928125 2.690625 5.928125 2.690625 6.875 2.375 C7.926875 2.189375 7.926875 2.189375 9 2 C11.5654594 4.5654594 11.54046087 6.47686668 12 10 C8 7.33333333 4 4.66666667 0 2 C0 1.34 0 0.68 0 0 Z " fill="#18A9C5" transform="translate(101,82)"/>
<path d="M0 0 C1.958964 0.30852185 3.91715713 0.6219418 5.875 0.9375 C6.96554688 1.11152344 8.05609375 1.28554687 9.1796875 1.46484375 C12 2 12 2 14 3 C13.34 4.32 12.68 5.64 12 7 C7.78623759 5.26492136 3.80855781 3.53903854 0 1 C0 0.67 0 0.34 0 0 Z M9 1 C11 2 11 2 11 2 Z M13 1 C15 2 15 2 15 2 Z " fill="#17A7C0" transform="translate(80,153)"/>
<path d="M0 0 C5.66442374 0.36504064 10.00703705 1.0554321 15 4 C12.24921116 4.91692961 10.64051087 5.10886083 7.8125 5.0625 C5.9253125 5.0315625 5.9253125 5.0315625 4 5 C4 4.34 4 3.68 4 3 C2.68 2.34 1.36 1.68 0 1 C0 0.67 0 0.34 0 0 Z " fill="#17ABC3" transform="translate(77,113)"/>
<path d="M0 0 C0.33 0.66 0.66 1.32 1 2 C4.465 1.505 4.465 1.505 8 1 C6.66666667 2.33333333 5.33333333 3.66666667 4 5 C3.13375 5.886875 2.2675 6.77375 1.375 7.6875 C-1 10 -1 10 -3 11 C-2.44894091 7.0507432 -1.61064629 3.65079826 0 0 Z " fill="#22A2B4" transform="translate(70,82)"/>
<path d="M0 0 C0.43570313 0.37511719 0.87140625 0.75023438 1.3203125 1.13671875 C5.18607599 4.45859777 9.07657648 7.74642927 13 11 C11 12 11 12 7.875 11.0625 C6.451875 10.5365625 6.451875 10.5365625 5 10 C5.33 9.01 5.66 8.02 6 7 C4.35 6.67 2.7 6.34 1 6 C0.67 4.02 0.34 2.04 0 0 Z " fill="#103038" transform="translate(112,92)"/>
<path d="M0 0 C0.33 1.32 0.66 2.64 1 4 C2.32 4.33 3.64 4.66 5 5 C2.36 7.31 -0.28 9.62 -3 12 C-4.21386936 8.35839192 -3.6674695 7.66834531 -2.0625 4.3125 C-1.49208984 3.10013672 -1.49208984 3.10013672 -0.91015625 1.86328125 C-0.60980469 1.24839844 -0.30945313 0.63351563 0 0 Z " fill="#22A2B4" transform="translate(28,132)"/>
<path d="M0 0 C2.97 0.495 2.97 0.495 6 1 C2.46110273 4.53889727 -1.09457005 4.16223346 -5.875 4.1875 C-7.08929688 4.20167969 -8.30359375 4.21585937 -9.5546875 4.23046875 C-12.84344421 4.01047255 -15.05365948 3.41715618 -18 2 C-18 1.67 -18 1.34 -18 1 C-16.33388095 0.957279 -14.66617115 0.95936168 -13 1 C-12.67 1.33 -12.34 1.66 -12 2 C-9.98405418 2.23427778 -7.961526 2.41336124 -5.9375 2.5625 C-4.83277344 2.64628906 -3.72804687 2.73007813 -2.58984375 2.81640625 C-1.73519531 2.87699219 -0.88054687 2.93757813 0 3 C0 2.01 0 1.02 0 0 Z " fill="#0B2D33" transform="translate(178,86)"/>
<path d="M0 0 C-1.15720671 3.47162014 -1.9425679 4.13156927 -5 6 C-6.65821773 6.37309899 -8.32577014 6.70700977 -10 7 C-12.23408113 7.99083967 -12.23408113 7.99083967 -14 9 C-10.91037009 4.36555513 -5.8912111 0 0 0 Z " fill="#1DA5BD" transform="translate(50,114)"/>
<path d="M0 0 C0 0.66 0 1.32 0 2 C-0.99 2 -1.98 2 -3 2 C-3.2475 2.598125 -3.495 3.19625 -3.75 3.8125 C-5.19482573 6.34094503 -6.48280545 7.55070617 -9 9 C-9.99 8.67 -10.98 8.34 -12 8 C-10.71064081 6.85157077 -9.41843421 5.70633773 -8.125 4.5625 C-7.04605469 3.60537109 -7.04605469 3.60537109 -5.9453125 2.62890625 C-3.83529848 0.86208728 -2.76919975 0 0 0 Z " fill="#1DA6BC" transform="translate(88,65)"/>
<path d="M0 0 C0.33 0.66 0.66 1.32 1 2 C4.02934491 2.65772428 4.02934491 2.65772428 7 3 C7 3.33 7 3.66 7 4 C1.26157749 4.20413361 -3.60539047 4.27141454 -9 2 C-9 1.67 -9 1.34 -9 1 C-2.25 -1.125 -2.25 -1.125 0 0 Z " fill="#142E3B" transform="translate(127,138)"/>
<path d="M0 0 C0.66 0 1.32 0 2 0 C0.94958421 2.86477034 0.29875437 3.83913226 -2.4375 5.3125 C-5 6 -5 6 -8 5 C-7.34 4.34 -6.68 3.68 -6 3 C-6 2.34 -6 1.68 -6 1 C-3.03 1.495 -3.03 1.495 0 2 C0 1.34 0 0.68 0 0 Z " fill="#1CA7C4" transform="translate(176,103)"/>
<path d="M0 0 C3.77727089 1.81309003 7.37269822 3.9073259 11 6 C10.34 6.66 9.68 7.32 9 8 C8.2575 7.525625 7.515 7.05125 6.75 6.5625 C4.38949985 5.22130673 2.63351523 4.487688 0 4 C0 2.68 0 1.36 0 0 Z " fill="#112E3A" transform="translate(76,151)"/>
<path d="M0 0 C3.94139078 1.66751148 6.7892812 4.22710649 10 7 C9.01 7.495 9.01 7.495 8 8 C7.01 7.67 6.02 7.34 5 7 C5 6.01 5 5.02 5 4 C3.35 3.67 1.7 3.34 0 3 C0 2.01 0 1.02 0 0 Z " fill="#1EA4BB" transform="translate(92,118)"/>
<path d="M0 0 C0.66 0 1.32 0 2 0 C1.38461538 5.53846154 1.38461538 5.53846154 -0.5625 7.875 C-1.2740625 8.431875 -1.2740625 8.431875 -2 9 C-2 7.35 -2 5.7 -2 4 C-2.66 4 -3.32 4 -4 4 C-4 3.34 -4 2.68 -4 2 C-3.01 2 -2.02 2 -1 2 C-0.67 1.34 -0.34 0.68 0 0 Z " fill="#13AEC9" transform="translate(188,88)"/>
<path d="M0 0 C1.1055189 0.93590504 2.20935453 1.87379858 3.3125 2.8125 C3.92738281 3.33457031 4.54226562 3.85664062 5.17578125 4.39453125 C6.85424679 5.87172469 8.43882034 7.40039131 10 9 C9.01 9.495 9.01 9.495 8 10 C8 9.34 8 8.68 8 8 C6.35 7.67 4.7 7.34 3 7 C2.67 6.01 2.34 5.02 2 4 C1.01 3.34 0.02 2.68 -1 2 C-0.67 1.34 -0.34 0.68 0 0 Z " fill="#1BA8C3" transform="translate(147,77)"/>
<path d="M0 0 C0.66 0.33 1.32 0.66 2 1 C-0.97 3.64 -3.94 6.28 -7 9 C-7.33 7.68 -7.66 6.36 -8 5 C-7.34 5 -6.68 5 -6 5 C-6 4.34 -6 3.68 -6 3 C-5.01 3 -4.02 3 -3 3 C-3 2.34 -3 1.68 -3 1 C-2.01 0.67 -1.02 0.34 0 0 Z " fill="#112C36" transform="translate(82,66)"/>
<path d="M0 0 C1.32 0.33 2.64 0.66 4 1 C2.35 4.3 0.7 7.6 -1 11 C-2.41687119 6.74938644 -1.19320039 4.28148375 0 0 Z " fill="#0F3033" transform="translate(27,127)"/>
<path d="M0 0 C4.10958767 1.45044271 7.43258745 3.51110752 11 6 C10.34 6.66 9.68 7.32 9 8 C9 7.34 9 6.68 9 6 C5.7 5.01 2.4 4.02 -1 3 C-0.67 2.01 -0.34 1.02 0 0 Z " fill="#112D36" transform="translate(99,83)"/>
<path d="M0 0 C1.39195915 4.17587745 -0.17676781 6.13474776 -2 10 C-2.12375 9.360625 -2.2475 8.72125 -2.375 8.0625 C-2.684375 7.0415625 -2.684375 7.0415625 -3 6 C-3.66 5.67 -4.32 5.34 -5 5 C-3.35 3.35 -1.7 1.7 0 0 Z " fill="#289FB2" transform="translate(194,79)"/>
<path d="M0 0 C2.64 0.33 5.28 0.66 8 1 C8.12375 1.61875 8.2475 2.2375 8.375 2.875 C8.87197356 5.19120832 8.87197356 5.19120832 11 7 C7.41584854 7 6.58796261 6.21108216 3.8125 4.0625 C3.09707031 3.51722656 2.38164062 2.97195312 1.64453125 2.41015625 C1.10183594 1.94480469 0.55914062 1.47945313 0 1 C0 0.67 0 0.34 0 0 Z " fill="#0F3338" transform="translate(134,65)"/>
<path d="M0 0 C5.875 3.625 5.875 3.625 7 7 C6.34 7 5.68 7 5 7 C4.67 6.34 4.34 5.68 4 5 C2.68 5 1.36 5 0 5 C0 3.35 0 1.7 0 0 Z M-2 4 C-1.01 4.99 -0.02 5.98 1 7 C0.01 6.67 -0.98 6.34 -2 6 C-2 5.34 -2 4.68 -2 4 Z " fill="#16A7BD" transform="translate(140,70)"/>
<path d="M0 0 C-2.61514317 2.12038635 -5.19637616 4.13091744 -8 6 C-8 4.68 -8 3.36 -8 2 C-7.34 2 -6.68 2 -6 2 C-6 1.34 -6 0.68 -6 0 C-3 -1 -3 -1 0 0 Z " fill="#152D38" transform="translate(44,116)"/>
<path d="M0 0 C1.65 0 3.3 0 5 0 C5.28875 0.598125 5.5775 1.19625 5.875 1.8125 C7.04742026 4.19327792 7.04742026 4.19327792 9 7 C4.58110387 5.64978174 2.65654657 3.73884332 0 0 Z " fill="#0E2E37" transform="translate(109,132)"/>
<path d="M0 0 C0.66 0.33 1.32 0.66 2 1 C0.35 2.65 -1.3 4.3 -3 6 C-3.66 4.68 -4.32 3.36 -5 2 C-2.625 0.9375 -2.625 0.9375 0 0 Z " fill="#18AFC9" transform="translate(145,143)"/>
<path d="M0 0 C0 3.62453269 -0.92469613 5.07920195 -3 8 C-3.99 8.33 -4.98 8.66 -6 9 C-4.68775452 5.06326356 -3.08089673 2.77280706 0 0 Z " fill="#23A2B9" transform="translate(35,123)"/>
<path d="M0 0 C2.31 0.33 4.62 0.66 7 1 C5.68 1.33 4.36 1.66 3 2 C3 2.66 3 3.32 3 4 C1.68 3.67 0.36 3.34 -1 3 C-0.67 2.01 -0.34 1.02 0 0 Z " fill="#112A2F" transform="translate(93,161)"/>
<path d="M0 0 C0.99 0.33 1.98 0.66 3 1 C1.68 3.64 0.36 6.28 -1 9 C-2.25541557 5.23375329 -1.37061958 3.62811066 0 0 Z " fill="#0E2F3A" transform="translate(71,75)"/>
</svg>
