<?xml version="1.0" encoding="UTF-8"?>
<svg version="1.1" xmlns="http://www.w3.org/2000/svg" width="1024" height="1024">
<path d="M0 0 C1.03896054 -0.00320648 2.07792107 -0.00641296 3.14836526 -0.0097166 C6.61059086 -0.01798146 10.07264189 -0.01210459 13.53487015 -0.00622082 C16.0499531 -0.0092431 18.56503514 -0.01313297 21.08011556 -0.01781338 C26.53864587 -0.02594844 31.99712374 -0.02789675 37.45565796 -0.02431011 C45.57305114 -0.01899057 53.69040815 -0.025111 61.8077974 -0.03339304 C77.1509571 -0.04861761 92.49410027 -0.05033968 107.83726594 -0.04787002 C119.68753189 -0.0460359 131.53779243 -0.04779946 143.38805771 -0.05209446 C145.09182024 -0.05269687 146.79558278 -0.05329806 148.49934532 -0.05389806 C151.06690004 -0.05480534 153.63445476 -0.05571401 156.20200948 -0.05663041 C180.06816526 -0.06505772 203.93431901 -0.06939719 227.80047607 -0.06522369 C228.69982515 -0.06506732 229.59917422 -0.06491094 230.52577629 -0.06474983 C235.08381404 -0.06394407 239.64185178 -0.0630983 244.19988951 -0.06223653 C245.10509547 -0.06206544 246.01030143 -0.06189435 246.94293788 -0.06171808 C248.77348352 -0.06137142 250.60402917 -0.06102289 252.43457482 -0.06067249 C280.91424687 -0.05531597 309.39388795 -0.06324465 337.87355423 -0.08170605 C369.88705633 -0.10243399 401.90053925 -0.11314722 433.91404843 -0.10913056 C437.32927402 -0.10873523 440.7444996 -0.10837368 444.15972519 -0.10803318 C445.42105272 -0.10789708 445.42105272 -0.10789708 446.70786162 -0.10775824 C459.38761992 -0.10659352 472.06735882 -0.11323102 484.74711227 -0.1238451 C499.17249951 -0.13590828 513.59784407 -0.1374432 528.02323195 -0.12505493 C536.08948886 -0.11843731 544.15564367 -0.12003201 552.22189236 -0.13364345 C558.25437988 -0.14288719 564.28674403 -0.13634397 570.31922999 -0.12379565 C572.75251799 -0.12114759 575.18581797 -0.12351864 577.61909422 -0.13153151 C605.55119977 -0.21709891 629.23885039 4.61212525 651.04152298 23.25447559 C651.79175735 23.85904591 652.54199173 24.46361622 653.31496048 25.08650684 C672.84476456 41.36134358 683.69739958 66.5054474 686.77809525 91.31444263 C687.64515505 100.99142063 687.27463959 110.77592952 687.15248489 120.48021412 C687.0651952 127.52055496 687.04803293 134.56133074 687.02980423 141.60213184 C687.02664515 142.63823503 687.02664515 142.63823503 687.02342224 143.69526958 C686.97851629 160.27476835 687.53543356 176.74206772 689.04152298 193.25447559 C689.10468704 193.94837391 689.1678511 194.64227222 689.23292923 195.35719776 C694.29770425 249.93542446 704.4549126 317.21897897 748.32277298 355.12947559 C763.67293818 367.12730586 778.74734912 371.39564082 798.04152298 375.25447559 C798.04152298 392.41447559 798.04152298 409.57447559 798.04152298 427.25447559 C789.04152298 429.25447559 789.04152298 429.25447559 785.44386673 430.04353809 C760.15231682 436.14544529 739.64642848 452.14588866 726.04152298 474.25447559 C699.4420838 519.24704952 691.23195082 572.80795024 688.04152298 624.25447559 C687.99642593 624.94156605 687.95132889 625.6286565 687.90486526 626.33656788 C687.17824483 637.70366902 686.97979589 649.02892819 687.04933548 660.41853809 C687.05318127 661.08409843 687.05702705 661.74965878 687.06098938 662.43538761 C687.09767143 668.64312208 687.14252921 674.85073617 687.2129097 681.05818653 C687.61084809 717.43620987 682.84157431 748.26996113 656.29152298 775.44197559 C632.18075186 799.30589191 603.02134416 803.57402991 570.59791946 803.50844288 C568.11268364 803.51074948 565.6274485 803.51392734 563.14221478 803.51789737 C557.75514608 803.52449095 552.36813028 803.5249211 546.98106384 803.51980305 C538.97007725 803.51221292 530.9591243 803.51611858 522.94813791 803.52221966 C508.6374303 803.53273344 494.32674059 803.53184542 480.0160313 803.52606184 C467.49228987 803.52102546 454.968555 803.51971978 442.44481277 803.52210712 C441.61322611 803.52225989 440.78163945 803.52241266 439.9248532 803.52257006 C436.54894669 803.52319277 433.17304018 803.52382957 429.79713368 803.52448959 C398.14570418 803.53060394 366.49428605 803.52506645 334.8428583 803.5142958 C306.73882637 803.504805 278.63481256 803.50565427 250.53078079 803.51521778 C218.93625644 803.5259332 187.34174214 803.53017027 155.74721622 803.52399325 C152.37755521 803.52335184 149.0078942 803.52272616 145.63823318 803.52210712 C144.80857152 803.52194897 143.97890986 803.52179081 143.12410694 803.52162787 C130.60999375 803.51935547 118.09588784 803.52200873 105.58177567 803.52706623 C91.34889043 803.53278978 77.11602585 803.53134435 62.88314319 803.52050474 C54.92312264 803.51464202 46.96314683 803.51423457 39.00312747 803.52179709 C33.0533708 803.52682508 27.10365341 803.52135236 21.15390122 803.51184794 C18.75166459 803.50961838 16.34942196 803.51074021 13.94718921 803.51559952 C-15.66725589 803.57089776 -42.47468884 799.10951691 -64.95847702 778.25447559 C-65.80796921 777.48490528 -66.6574614 776.71533497 -67.53269577 775.92244434 C-86.99323904 757.4751606 -98.31140698 730.85634387 -99.0438652 704.13994312 C-99.13102956 696.49239234 -99.06490462 688.84533474 -98.99399948 681.19792652 C-98.93013849 674.11405709 -98.91721517 667.03000633 -98.91160202 659.94588184 C-98.91099022 659.25160902 -98.91037842 658.5573362 -98.90974808 657.8420248 C-98.90372951 641.57774838 -99.46361851 625.45216125 -100.95847702 609.25447559 C-101.02164108 608.56766712 -101.08480515 607.88085865 -101.14988327 607.1732378 C-106.3236943 551.67365271 -116.82752686 485.49790341 -161.46628952 447.19197559 C-174.54361188 437.02527984 -188.61056619 431.35217204 -204.79050827 428.79744434 C-207.95847702 428.25447559 -207.95847702 428.25447559 -209.95847702 427.25447559 C-209.95847702 410.09447559 -209.95847702 392.93447559 -209.95847702 375.25447559 C-200.05847702 373.27447559 -200.05847702 373.27447559 -189.95847702 371.25447559 C-158.74112972 359.1776916 -139.47156564 336.56260727 -126.06394577 306.40291309 C-101.70011675 248.60747024 -98.54905701 184.59776389 -99.05442429 122.74226856 C-99.33156354 87.49678803 -95.06984934 55.76411984 -69.81003952 29.01619434 C-50.59231324 10.40395807 -26.93259065 -0.12562554 0 0 Z " fill="#7C11F7" transform="translate(217.95847702026367,15.745524406433105)"/>
<path d="M0 0 C24.65371374 -0.07034074 49.30741226 -0.12311025 73.96120644 -0.15543652 C85.4105326 -0.17085066 96.85979611 -0.19183487 108.30908203 -0.22631836 C118.29796373 -0.25638878 128.28680001 -0.27561453 138.27572572 -0.28226548 C143.5559816 -0.2861481 148.83610765 -0.29515659 154.11632156 -0.31719017 C205.34755454 -0.52264713 205.34755454 -0.52264713 225.875 6.1875 C226.8227832 6.48720703 227.77056641 6.78691406 228.74707031 7.09570312 C237.30629251 9.90532936 245.18284797 13.54831889 253 18 C253.96679688 18.54140625 254.93359375 19.0828125 255.9296875 19.640625 C278.95063061 33.3864635 294.26521183 54.49084674 301.125 80.29296875 C305.2015953 97.56390153 305.29402416 119.25306846 299 136 C298.6299585 136.9914502 298.6299585 136.9914502 298.25244141 138.00292969 C289.02298849 162.17287822 271.44083203 181.79080363 248 193 C240.88496413 196.11387892 233.78096531 198.53314208 226 199 C226 199.99 226 200.98 226 202 C227.15371094 201.96648437 228.30742188 201.93296875 229.49609375 201.8984375 C233.86556454 201.90419817 237.83005709 202.58852397 242.0625 203.625 C242.79710449 203.80321289 243.53170898 203.98142578 244.28857422 204.16503906 C269.55555144 210.58912318 293.75474094 225.08677165 308.31640625 247.15625 C325.19363418 275.66349347 329.43745615 306.29730183 321.48046875 338.6640625 C313.91539791 366.91962704 296.20313018 389.91512025 271.06640625 404.71875 C259.26716991 411.43717638 246.97375883 416.06884637 234 420 C232.99839844 420.30808594 231.99679687 420.61617187 230.96484375 420.93359375 C210.80086128 426.53308816 189.25722453 427.15547569 168.46582031 427.12939453 C166.63303594 427.13075226 164.80025185 427.13253427 162.96746826 427.13470459 C158.03030498 427.13923084 153.09316279 427.13751033 148.15599918 427.1343255 C142.98085031 427.13178153 137.80570315 427.13414467 132.6305542 427.13571167 C123.95584796 427.13752548 115.28115026 427.13514574 106.60644531 427.13037109 C96.56726504 427.12490937 86.52810502 427.12670808 76.48892522 427.1321975 C67.86111631 427.13672661 59.23331351 427.1373808 50.6055038 427.13475883 C45.45527358 427.13319758 40.30505291 427.13299857 35.1548233 427.13629532 C30.3251932 427.13917178 25.49558946 427.13720257 20.66596222 427.13140106 C18.88933354 427.13007313 17.11270265 427.13046814 15.33607483 427.13266373 C12.92203779 427.13537341 10.50808665 427.13199662 8.09405518 427.12698364 C7.38211919 427.12921436 6.67018321 427.13144509 5.9366734 427.13374341 C1.11415125 427.11415125 1.11415125 427.11415125 0 426 C-0.09815597 423.7430785 -0.12371089 421.48300714 -0.12304783 419.22395229 C-0.12420167 418.50355126 -0.12535552 417.78315023 -0.12654433 417.04091886 C-0.12921787 414.59630277 -0.12468282 412.15175089 -0.12025452 409.70713806 C-0.12069007 407.94910989 -0.12156468 406.19108179 -0.12284368 404.43305403 C-0.1250918 399.57823473 -0.12106305 394.72343727 -0.11606562 389.86862075 C-0.11176582 384.6422773 -0.11320721 379.41593518 -0.1139679 374.18959045 C-0.11449343 365.12665958 -0.11134355 356.06373588 -0.10573006 347.00080681 C-0.09761904 333.89717011 -0.09500025 320.7935369 -0.09374207 307.68989796 C-0.09155092 286.43250488 -0.08488913 265.17511562 -0.07543945 243.91772461 C-0.06626696 223.26245137 -0.05918533 202.60717916 -0.05493164 181.9519043 C-0.05466892 180.6797069 -0.05440619 179.40750951 -0.05413551 178.09676068 C-0.05283052 171.71481697 -0.0515668 165.33287325 -0.05032361 158.95092952 C-0.03994904 105.9672837 -0.02232902 52.98364204 0 0 Z " fill="#FEFDFE" transform="translate(361,207)"/>
<path d="M0 0 C25.183125 -0.12375 25.183125 -0.12375 50.875 -0.25 C58.74255127 -0.30462402 58.74255127 -0.30462402 66.76904297 -0.36035156 C73.31665039 -0.37841797 73.31665039 -0.37841797 76.40945435 -0.3817749 C78.50917991 -0.38780292 80.60889423 -0.40162328 82.70852661 -0.42230225 C113.02077774 -0.70516613 147.61105739 2.1929391 170.5625 24.34375 C184.88342272 39.94988373 186.80592018 58.86940653 186.17919922 79.08349609 C185.15654768 95.72735882 177.049999 109.89919985 165 121 C161.49423579 123.69978457 157.90159993 125.92026785 154 128 C153.1853125 128.44730469 152.370625 128.89460937 151.53125 129.35546875 C145.86299597 132.19834307 139.96952266 134.01693899 133.875 135.6875 C132.79412109 135.99131592 132.79412109 135.99131592 131.69140625 136.30126953 C115.36817067 140.52656302 98.6568857 140.27431335 81.93359375 140.1953125 C79.82621365 140.19236376 77.71883206 140.19032845 75.6114502 140.18920898 C67.88677747 140.17881787 60.16213631 140.15089584 52.4375 140.125 C35.133125 140.08375 17.82875 140.0425 0 140 C0 93.8 0 47.6 0 0 Z " fill="#7711F1" transform="translate(430,439)"/>
<path d="M0 0 C15.984375 -0.04125 31.96875 -0.0825 48.4375 -0.125 C53.45122803 -0.14320801 58.46495605 -0.16141602 63.63061523 -0.18017578 C69.8380127 -0.18920898 69.8380127 -0.18920898 72.76039124 -0.19088745 C74.76548658 -0.1939227 76.77057869 -0.20088043 78.77565002 -0.21115112 C111.3704754 -0.36950603 111.3704754 -0.36950603 125.3125 4.6875 C126.05757812 4.94950195 126.80265625 5.21150391 127.5703125 5.48144531 C144.0878847 11.52219819 154.94782379 21.14832227 162.40625 36.97265625 C168.65136426 51.73301188 168.17472568 70.77381275 162.48828125 85.609375 C160.38427607 90.40275162 158.05918745 94.75200914 155 99 C154.58492187 99.6084375 154.16984375 100.216875 153.7421875 100.84375 C144.77429349 112.6577421 129.64005299 118.90042436 115.8125 122.6875 C115.08337402 122.89020508 114.35424805 123.09291016 113.60302734 123.30175781 C98.805032 127.11341088 83.91840276 127.28091185 68.75 127.1953125 C66.97916796 127.19236247 65.20833415 127.19032796 63.4375 127.18920898 C56.95830629 127.17883285 50.47915021 127.1509111 44 127.125 C29.48 127.08375 14.96 127.0425 0 127 C0 85.09 0 43.18 0 0 Z " fill="#7B11F2" transform="translate(430,261)"/>
<path d="M0 0 C61.43243243 0 61.43243243 0 72.84375 10.734375 C79.87802016 18.52724292 81.3816091 26.32927168 81.27734375 36.58203125 C80.58727005 45.08646065 77.04625648 52.95374352 71 59 C67.78087928 61.52517853 64.45690567 63.8138146 61 66 C61.9178125 66.4125 62.835625 66.825 63.78125 67.25 C74.08394406 72.03208994 81.90623923 76.94560095 86.30859375 87.921875 C89.55908775 97.69172138 89.28536553 109.58518178 85 119 C79.38589909 129.72437225 70.49104975 137.22332378 59 141 C39.70416988 144.85916602 19.67796286 143 0 143 C0 95.81 0 48.62 0 0 Z M17 16 C17 30.85 17 45.7 17 61 C22.383125 61.0928125 22.383125 61.0928125 27.875 61.1875 C28.98472168 61.21481201 30.09444336 61.24212402 31.23779297 61.27026367 C40.62237085 61.34762281 48.91145245 59.80475021 56.30859375 53.72265625 C61.04246126 48.90132699 62.69187251 43.16258962 63.08984375 36.51953125 C62.87784233 30.574274 61.27747831 25.79055838 56.9375 21.625 C48.63426595 15.58085014 39.27857344 15.5989034 29.375 15.8125 C25.29125 15.874375 21.2075 15.93625 17 16 Z M17 77 C17 93.5 17 110 17 127 C23.868125 127.0928125 23.868125 127.0928125 30.875 127.1875 C32.29796387 127.21481201 33.72092773 127.24212402 35.18701172 127.27026367 C46.93309016 127.34662221 56.05199753 125.80967683 64.6875 117.375 C68.84622956 112.01844865 70.35985413 105.57085816 69.9375 98.875 C68.92509434 92.1467207 66.72215912 87.09499234 61.4375 82.6875 C52.04644546 76.50899685 41.70627868 76.60206117 30.8125 76.8125 C23.9753125 76.9053125 23.9753125 76.9053125 17 77 Z " fill="#7851B2" transform="translate(91,829)"/>
<path d="M0 0 C10.57958506 8.98958962 15.97381632 21.04996531 17.33056641 34.79443359 C17.4628834 37.88133454 17.49521351 40.9456357 17.46484375 44.03515625 C17.45727051 45.1245752 17.44969727 46.21399414 17.44189453 47.33642578 C17.12493953 62.91811869 12.83505704 77.32050991 2 88.94140625 C-8.28098969 98.22483456 -20.11306737 100.57477049 -33.5390625 100.14453125 C-41.84767446 99.58268204 -48.78271932 96.18495164 -54.97265625 90.72265625 C-56.29265625 89.07265625 -57.61265625 87.42265625 -58.97265625 85.72265625 C-59.30265625 105.19265625 -59.63265625 124.66265625 -59.97265625 144.72265625 C-65.58265625 144.72265625 -71.19265625 144.72265625 -76.97265625 144.72265625 C-76.97265625 95.55265625 -76.97265625 46.38265625 -76.97265625 -4.27734375 C-71.36265625 -4.27734375 -65.75265625 -4.27734375 -59.97265625 -4.27734375 C-59.64265625 0.67265625 -59.31265625 5.62265625 -58.97265625 10.72265625 C-57.98265625 9.52640625 -56.99265625 8.33015625 -55.97265625 7.09765625 C-41.94430229 -8.85007008 -17.7810733 -13.08661272 0 0 Z M-53.40625 19.46484375 C-59.52488438 28.21612498 -60.22981838 38.04383129 -60.28515625 48.41015625 C-60.29071533 49.28889404 -60.29627441 50.16763184 -60.30200195 51.07299805 C-60.18281393 61.91707069 -58.08214095 70.24241127 -50.4921875 78.29296875 C-43.94649343 84.15426049 -36.56806319 85.9002473 -27.97265625 85.72265625 C-19.9094033 84.49770779 -13.21962917 80.98568872 -8.25 74.4609375 C-3.20667398 66.56757467 -0.56215314 58.04742521 0.02734375 48.72265625 C0.08019531 47.98789062 0.13304687 47.253125 0.1875 46.49609375 C0.60586357 35.3276055 -1.50119853 24.29017134 -8.97265625 15.72265625 C-14.53590361 9.73726546 -20.84750624 7.59285433 -28.84765625 7.28515625 C-39.00983911 7.579898 -46.98272611 11.65859946 -53.40625 19.46484375 Z " fill="#7851B3" transform="translate(915.97265625,874.27734375)"/>
<path d="M0 0 C11.59437729 11.67379083 11.84473464 25.52785708 11.82423401 41.22329712 C11.81912993 42.67360472 11.81391398 44.12391193 11.80859375 45.57421875 C11.80672471 47.08450269 11.80530311 48.59478725 11.80430603 50.10507202 C11.80051908 54.04723841 11.79072222 57.98936695 11.77960205 61.93151855 C11.76930497 65.96736133 11.76479077 70.00321033 11.75976562 74.0390625 C11.74909587 81.93361291 11.73153083 89.82812549 11.7109375 97.72265625 C5.7709375 97.72265625 -0.1690625 97.72265625 -6.2890625 97.72265625 C-6.6190625 93.76265625 -6.9490625 89.80265625 -7.2890625 85.72265625 C-8.6090625 87.12515625 -9.9290625 88.52765625 -11.2890625 89.97265625 C-19.6897605 98.38658369 -27.74188711 100.01872762 -39.28833008 100.03955078 C-48.36989076 99.89176446 -56.18675517 97.78116621 -62.859375 91.33203125 C-69.09672653 84.31075029 -70.63935191 75.7505532 -70.1015625 66.49609375 C-68.79971288 57.3134045 -66.16033603 50.27641302 -58.74780273 44.42333984 C-49.29391164 37.88418729 -38.44365049 36.41273369 -27.3515625 34.91015625 C-25.85852367 34.69343266 -24.36568281 34.47534066 -22.87304688 34.25585938 C-11.25611344 32.58328228 -11.25611344 32.58328228 -6.2890625 32.72265625 C-7.66463682 21.139219 -7.66463682 21.139219 -14.2265625 11.91015625 C-20.26661169 7.5958354 -27.08819375 8.17177012 -34.2890625 8.72265625 C-42.59193337 10.32716913 -49.23406247 13.51595052 -56.14453125 18.33203125 C-58.2890625 19.72265625 -58.2890625 19.72265625 -60.2890625 19.72265625 C-61.48757554 4.62472119 -61.48757554 4.62472119 -58.96484375 0.62109375 C-56.7742316 -0.80257452 -54.79625202 -1.53155793 -52.2890625 -2.27734375 C-51.25136719 -2.64730469 -50.21367188 -3.01726563 -49.14453125 -3.3984375 C-34.07878434 -8.46712301 -13.03335952 -11.1910914 0 0 Z M-23.4765625 48.47265625 C-24.56259766 48.62992188 -25.64863281 48.7871875 -26.76757812 48.94921875 C-39.22577985 50.81556109 -39.22577985 50.81556109 -49.3515625 57.72265625 C-52.49337093 62.58739189 -52.89219341 66.94823621 -52.2890625 72.72265625 C-50.47003282 77.87657368 -47.75796646 80.62879966 -43.2890625 83.72265625 C-36.70440415 86.56309711 -29.87416916 86.07217346 -23.0859375 84.07421875 C-16.20699919 81.12223341 -10.51032484 74.93740029 -7.2890625 68.22265625 C-5.1322276 61.51860892 -6.07588715 53.67059354 -6.2890625 46.72265625 C-12.12704348 46.59800657 -17.72288276 47.57353895 -23.4765625 48.47265625 Z " fill="#7851B2" transform="translate(798.2890625,874.27734375)"/>
<path d="M0 0 C10.16328204 9.40880258 14.71313047 22.05573899 15.359375 35.62890625 C15.66066872 47.00500179 15.88918181 57.92062649 10.9765625 68.40625 C10.61433594 69.21449219 10.25210938 70.02273438 9.87890625 70.85546875 C3.89882519 82.79535941 -5.46853521 90.19540445 -17.8359375 94.78125 C-31.97602811 98.76390274 -48.48517422 97.96308773 -61.52734375 91.0859375 C-63.83722621 89.65545192 -65.91834983 88.12239766 -68.0234375 86.40625 C-68.71050781 85.85453125 -69.39757812 85.3028125 -70.10546875 84.734375 C-79.06480024 76.71722942 -84.291739 64.74694971 -85.22460938 52.83813477 C-85.32664212 50.10700819 -85.35240392 47.38919775 -85.3359375 44.65625 C-85.33102295 43.68977539 -85.3261084 42.72330078 -85.32104492 41.72753906 C-85.07082606 26.40644563 -81.12693109 13.92192255 -70.3984375 2.6640625 C-52.0919722 -14.73912326 -19.71303932 -15.52687267 0 0 Z M-58.0234375 13.40625 C-66.89998189 23.88940876 -68.86046052 37.06116857 -67.7734375 50.49609375 C-66.0759937 61.30214224 -61.71652147 70.02446411 -53.109375 76.9453125 C-45.42257188 82.18213853 -36.41755032 83.59068769 -27.32421875 81.90625 C-17.88936547 79.64085549 -12.4599624 76.06452058 -7.30859375 67.80859375 C-0.56891919 55.21011395 -0.43027693 40.03583059 -3.98828125 26.44921875 C-7.20214434 17.00167404 -12.26922941 11.26789506 -20.8203125 6.37890625 C-33.17384273 0.65088048 -48.50344235 4.20760489 -58.0234375 13.40625 Z " fill="#7851B3" transform="translate(283.0234375,877.59375)"/>
<path d="M0 0 C13.55649839 -0.4551817 27.72002713 2.92987945 37.89453125 12.3125 C51.3083908 27.27654615 52.52819941 45.04620113 51.55078125 64.16015625 C49.91700119 77.23039669 43.55054767 89.90672728 33.1171875 98.0625 C19.14349832 107.65546804 3.11915316 109.40856851 -13.3359375 106.46484375 C-25.58362387 103.01519954 -35.18533588 96.63171775 -41.94921875 85.74609375 C-47.22168441 75.86022064 -48.9947347 65.96558323 -48.88671875 54.84765625 C-48.87914551 53.75187256 -48.87157227 52.65608887 -48.86376953 51.52709961 C-48.56899209 37.00016617 -44.79709807 24.70022891 -34.69921875 13.91015625 C-24.77350577 4.56941875 -13.38483334 0.87524429 0 0 Z M-21.6640625 23.984375 C-30.46325066 34.70898726 -32.45212006 47.70854347 -31.44921875 61.16015625 C-29.98824309 71.0432269 -26.54566555 80.26080286 -18.51171875 86.59765625 C-9.74681414 92.4299424 -0.08787206 94.43701257 10.36328125 92.53515625 C18.49377401 90.27586027 24.93554766 85.17671697 29.55078125 78.16015625 C35.97146614 65.10476364 35.93877573 49.10120264 31.69921875 35.41015625 C28.50748331 26.6912692 23.84908381 21.41363822 15.55078125 17.16015625 C3.12691348 12.04444599 -11.97529853 14.69350689 -21.6640625 23.984375 Z " fill="#7851B3" transform="translate(365.44921875,866.83984375)"/>
<path d="M0 0 C0.2208564 2.95064148 0.28060989 5.68368231 0.1875 8.625 C0.16719727 9.82769531 0.16719727 9.82769531 0.14648438 11.0546875 C0.11109051 13.03674378 0.05728234 15.01845551 0 17 C-0.70253906 16.71382812 -1.40507813 16.42765625 -2.12890625 16.1328125 C-13.2308294 11.75246187 -24.80249692 8.37095912 -36.625 12.1875 C-40.34866529 14.18724617 -42.07463819 15.22949979 -44 19 C-44.75676857 23.78498461 -44.98506225 27.47722028 -42.296875 31.6328125 C-39.87320202 34.13067955 -37.88529115 35.39493239 -34.75 36.875 C-33.69683594 37.37773438 -32.64367187 37.88046875 -31.55859375 38.3984375 C-28.35269004 39.84127013 -25.13123512 41.23345455 -21.89672852 42.61010742 C-11.34151123 47.11681552 -1.03936407 51.61530735 3.8125 62.75 C6.14210071 69.73880212 5.7173727 76.99569806 3.0859375 83.83984375 C-1.21960563 92.40446731 -8.25527422 96.60587899 -17 100 C-23.2807889 101.92848618 -29.07102884 102.38468848 -35.625 102.375 C-37.06891113 102.37584595 -37.06891113 102.37584595 -38.54199219 102.37670898 C-47.15943751 102.24480931 -55.19984355 100.90007822 -63 97 C-63 90.73 -63 84.46 -63 78 C-59.21191516 79.51523393 -55.74818673 81.11388952 -52.16015625 83 C-42.65095256 87.40209068 -30.96684786 88.60503008 -21 85 C-18.21473359 83.69625828 -16.56318357 82.72409317 -14.6875 80.3125 C-13.17076191 75.21074461 -13.15171768 71.57538145 -15.640625 66.953125 C-18.28342955 63.64524381 -20.30807225 62.40262356 -24.125 60.625 C-25.02448364 60.19465454 -25.02448364 60.19465454 -25.94213867 59.75561523 C-29.45723863 58.09432959 -33.02008143 56.56117724 -36.60546875 55.05859375 C-56.22942644 46.7869857 -56.22942644 46.7869857 -61.5625 36.8125 C-64.30200468 29.50294603 -64.27265743 21.1968034 -61.25 14 C-56.58698303 5.17242649 -49.68244424 0.47660714 -40.3125 -2.8125 C-28.19919298 -6.4000648 -10.89570008 -7.26380005 0 0 Z " fill="#7851B2" transform="translate(568,872)"/>
<path d="M0 0 C0 9.9 0 19.8 0 30 C8.25 30 16.5 30 25 30 C25 34.62 25 39.24 25 44 C16.75 44 8.5 44 0 44 C0.06304472 52.3542958 0.13856146 60.70819842 0.23571491 69.06215763 C0.28034099 72.94172631 0.31961379 76.82119187 0.34643555 80.70092773 C0.37254659 84.44884353 0.41300299 88.19636081 0.46318626 91.94402885 C0.47980252 93.37002014 0.49134934 94.79608028 0.49761391 96.22215462 C0.39959057 106.55355099 0.39959057 106.55355099 4 116 C7.0711687 118.40409765 10.12505157 118.26923051 13.9375 118.25 C14.95714844 118.25515625 15.97679687 118.2603125 17.02734375 118.265625 C20.4321258 118.10485464 20.4321258 118.10485464 25 116 C25 120.95 25 125.9 25 131 C16.8245243 135.00431463 7.87840263 135.29432718 -0.98046875 133.34375 C-7.61913248 131.01368951 -11.80685485 127.30858043 -14.9921875 121.05078125 C-18.7457866 111.952772 -18.13572415 102.10000294 -18.09765625 92.4375 C-18.09578795 91.03645885 -18.094366 89.63541704 -18.09336853 88.234375 C-18.08957576 84.57165682 -18.07977366 80.90897917 -18.06866455 77.24627686 C-18.05838026 73.49882556 -18.05385596 69.75136763 -18.04882812 66.00390625 C-18.03814804 58.66925034 -18.02057801 51.33463604 -18 44 C-23.61 44 -29.22 44 -35 44 C-35 39.38 -35 34.76 -35 30 C-29.39 30 -23.78 30 -18 30 C-18 21.75 -18 13.5 -18 5 C-15.7725 4.175 -13.545 3.35 -11.25 2.5 C-10.55551758 2.23896484 -9.86103516 1.97792969 -9.14550781 1.70898438 C-5.83926285 0.50706036 -3.57052204 0 0 0 Z " fill="#7851B2" transform="translate(465,840)"/>
<path d="M0 0 C0 9.9 0 19.8 0 30 C8.58 30 17.16 30 26 30 C26 34.62 26 39.24 26 44 C17.42 44 8.84 44 0 44 C0.08576863 51.81540511 0.17965531 59.63061354 0.28752708 67.44573975 C0.33730731 71.0752791 0.38363762 74.70479189 0.421875 78.33447266 C0.45896039 81.84241945 0.50538053 85.35013366 0.55806351 88.85787964 C0.58540197 90.83624619 0.60326629 92.81473641 0.62094116 94.79321289 C0.50224419 106.79748196 0.50224419 106.79748196 6 117 C9.01943979 118.00647993 11.15267045 118.16564779 14.3125 118.1875 C15.69888672 118.20876953 15.69888672 118.20876953 17.11328125 118.23046875 C20.59286646 118.06873824 20.59286646 118.06873824 26 116 C26 120.95 26 125.9 26 131 C17.40722222 135.20870748 7.20938339 135.4807431 -2 132.9375 C-7.3399391 130.78137365 -11.41935241 127.0625047 -14.0625 121.94140625 C-16.35689904 116.10613177 -17.12532541 110.5477906 -17.11352539 104.28198242 C-17.11367142 103.62776306 -17.11381744 102.9735437 -17.1139679 102.29949951 C-17.11327494 100.15145474 -17.10551164 98.00349825 -17.09765625 95.85546875 C-17.09578988 94.36045886 -17.09436701 92.86544835 -17.09336853 91.37043762 C-17.08956064 87.44628189 -17.07974518 83.5221635 -17.06866455 79.59802246 C-17.05841321 75.58944199 -17.05386294 71.58085545 -17.04882812 67.57226562 C-17.03812129 59.71482475 -17.02053856 51.85742133 -17 44 C-22.61 44 -28.22 44 -34 44 C-34 39.38 -34 34.76 -34 30 C-28.39 30 -22.78 30 -17 30 C-17 21.75 -17 13.5 -17 5 C-3.66666667 0 -3.66666667 0 0 0 Z " fill="#7851B2" transform="translate(619,840)"/>
<path d="M0 0 C1.23105469 0.00644531 2.46210937 0.01289062 3.73046875 0.01953125 C6.8125 0.1875 6.8125 0.1875 8.8125 1.1875 C8.8125 7.1275 8.8125 13.0675 8.8125 19.1875 C6.8325 18.5275 4.8525 17.8675 2.8125 17.1875 C-4.22437293 16.31549557 -10.45688509 16.76673992 -16.1875 21.1875 C-23.82156681 28.39646796 -26.28316914 39.19637343 -26.73339844 49.35473633 C-26.77401354 51.90943275 -26.79443978 54.46451316 -26.796875 57.01953125 C-26.81190268 58.39102585 -26.8286392 59.76250268 -26.84698486 61.13395691 C-26.89015768 64.69630897 -26.91054411 68.2584173 -26.92572021 71.82098389 C-26.94547495 75.47520065 -26.98742227 79.12916089 -27.02734375 82.78320312 C-27.1021011 89.91789406 -27.15066107 97.05249758 -27.1875 104.1875 C-32.7975 104.1875 -38.4075 104.1875 -44.1875 104.1875 C-44.1875 70.5275 -44.1875 36.8675 -44.1875 2.1875 C-38.5775 2.1875 -32.9675 2.1875 -27.1875 2.1875 C-26.8575 7.1375 -26.5275 12.0875 -26.1875 17.1875 C-25.3625 15.82625 -24.5375 14.465 -23.6875 13.0625 C-17.85642885 4.30900075 -10.56203724 -0.12242614 0 0 Z " fill="#7851B2" transform="translate(710.1875,867.8125)"/>
</svg>
