<?xml version="1.0" encoding="UTF-8"?>
<svg version="1.1" xmlns="http://www.w3.org/2000/svg" width="256" height="256">
<path d="M0 0 C2.52096309 2.2275585 4.98034211 4.50638231 7.42578125 6.81640625 C8.17601562 7.5021875 8.92625 8.18796875 9.69921875 8.89453125 C25.98970564 24.32762409 36.54719771 45.38249626 42.42578125 66.81640625 C42.93431641 68.57791016 42.93431641 68.57791016 43.453125 70.375 C51.37949267 103.7241875 43.69917207 138.85763396 26.42578125 167.81640625 C21.49702501 175.46447627 15.66316104 182.21338695 9.42578125 188.81640625 C8.74 189.56664062 8.05421875 190.316875 7.34765625 191.08984375 C-8.08543659 207.38033064 -29.14030876 217.93782271 -50.57421875 223.81640625 C-51.74855469 224.15542969 -52.92289063 224.49445313 -54.1328125 224.84375 C-87.482 232.77011767 -122.61544646 225.08979707 -151.57421875 207.81640625 C-159.22228877 202.88765001 -165.97119945 197.05378604 -172.57421875 190.81640625 C-173.32445312 190.130625 -174.0746875 189.44484375 -174.84765625 188.73828125 C-191.13814314 173.30518841 -201.69563521 152.25031624 -207.57421875 130.81640625 C-207.91324219 129.64207031 -208.25226563 128.46773437 -208.6015625 127.2578125 C-216.52793017 93.908625 -208.84760957 58.77517854 -191.57421875 29.81640625 C-186.64546251 22.16833623 -180.81159854 15.41942555 -174.57421875 8.81640625 C-173.8884375 8.06617188 -173.20265625 7.3159375 -172.49609375 6.54296875 C-157.06300091 -9.74751814 -136.00812874 -20.30501021 -114.57421875 -26.18359375 C-113.39988281 -26.52261719 -112.22554688 -26.86164062 -111.015625 -27.2109375 C-72.53579317 -36.35674638 -29.92130312 -25.38089294 0 0 Z " fill="#000000" transform="translate(210.57421875,29.18359375)"/>
<path d="M0 0 C1.09570312 -0.10957031 2.19140625 -0.21914062 3.3203125 -0.33203125 C8.737959 1.41233185 10.63526445 5.22979032 13.64227295 9.90097046 C14.99849848 12.00400306 16.38511146 14.08493934 17.77587891 16.1652832 C20.62901661 20.44560761 23.45412886 24.74376443 26.27261353 29.04696655 C29.47676724 33.9387394 32.68943482 38.82491219 35.90234375 43.7109375 C36.56163376 44.71382309 37.22092377 45.71670868 37.90019226 46.74998474 C44.18867789 56.30684727 50.54082793 65.82062712 56.90136719 75.32962036 C65.54432264 88.25137629 74.14352647 101.1875064 82.45239258 114.32739258 C85.6962699 119.44853224 88.99927357 124.52215803 92.390625 129.546875 C92.76725281 130.10591522 93.14388062 130.66495544 93.53192139 131.24093628 C95.34600087 133.9311688 97.1682516 136.61526512 99.00292969 139.29150391 C99.64133789 140.23429199 100.27974609 141.17708008 100.9375 142.1484375 C101.50597656 142.97907715 102.07445312 143.8097168 102.66015625 144.66552734 C103.875 146.8125 103.875 146.8125 103.875 149.8125 C98.73214286 153.8125 98.73214286 153.8125 94.875 153.8125 C93.57910156 152.47753906 93.57910156 152.47753906 92.265625 150.578125 C91.76611328 149.86914062 91.26660156 149.16015625 90.75195312 148.4296875 C90.21505859 147.64851562 89.67816406 146.86734375 89.125 146.0625 C87.9549634 144.39974651 86.78301646 142.73833599 85.609375 141.078125 C84.99771484 140.20994141 84.38605469 139.34175781 83.75585938 138.44726562 C80.70719714 134.17660586 77.54059884 129.99679913 74.375 125.8125 C58.54427958 104.81641937 58.54427958 104.81641937 51.875 94.8125 C49.44978506 94.23060734 49.44978506 94.23060734 46.75 94.125 C45.83992188 94.05925781 44.92984375 93.99351562 43.9921875 93.92578125 C43.29351562 93.88839844 42.59484375 93.85101563 41.875 93.8125 C41.875 96.7825 41.875 99.7525 41.875 102.8125 C46.495 102.8125 51.115 102.8125 55.875 102.8125 C55.875 103.8025 55.875 104.7925 55.875 105.8125 C51.255 105.8125 46.635 105.8125 41.875 105.8125 C41.875 109.1125 41.875 112.4125 41.875 115.8125 C47.155 115.8125 52.435 115.8125 57.875 115.8125 C57.875 116.8025 57.875 117.7925 57.875 118.8125 C51.275 118.8125 44.675 118.8125 37.875 118.8125 C37.875 109.5725 37.875 100.3325 37.875 90.8125 C41.505 90.4825 45.135 90.1525 48.875 89.8125 C47.79798828 88.24242187 47.79798828 88.24242187 46.69921875 86.640625 C40.21181524 77.17515159 33.74699836 67.69447551 27.30166626 58.20031738 C26.4875224 57.00106673 25.67321665 55.80192595 24.85873413 54.60290527 C23.69042238 52.88278268 22.52284398 51.16216452 21.35546875 49.44140625 C20.34842896 47.9574939 20.34842896 47.9574939 19.32104492 46.44360352 C15.81205638 41.25138451 12.34789987 36.02888778 8.875 30.8125 C8.87135437 31.7329158 8.86770874 32.6533316 8.86395264 33.60163879 C8.82611194 42.26873035 8.76930418 50.9354441 8.69109726 59.60226917 C8.65155992 64.05818484 8.61940237 68.51390105 8.60400391 72.9699707 C8.5888782 77.26904431 8.5545064 81.56756977 8.50669098 85.86639977 C8.49183477 87.50782194 8.48395656 89.14932235 8.48311615 90.79081154 C8.48075732 93.08745635 8.45376909 95.38257283 8.42089844 97.67895508 C8.41201599 98.98689529 8.40313354 100.29483551 8.39398193 101.64241028 C7.875 104.8125 7.875 104.8125 5.98175049 106.73344421 C3.5771625 107.96504928 2.00420568 108.21482696 -0.6875 108.1875 C-1.83412109 108.19910156 -1.83412109 108.19910156 -3.00390625 108.2109375 C-5.68094116 107.70806906 -6.43773624 106.92194153 -8.125 104.8125 C-8.49973011 102.85597134 -8.49973011 102.85597134 -8.4992218 100.59288025 C-8.50623611 99.73340286 -8.51325043 98.87392548 -8.52047729 97.98840332 C-8.51283356 97.04855591 -8.50518982 96.1087085 -8.49731445 95.14038086 C-8.50096512 94.14829117 -8.50461578 93.15620148 -8.50837708 92.13404846 C-8.5164962 88.84830717 -8.50286185 85.56305689 -8.48828125 82.27734375 C-8.48776285 79.9995575 -8.48827977 77.72177079 -8.48979187 75.44398499 C-8.48970209 70.66823659 -8.47925954 65.89265679 -8.46118164 61.11694336 C-8.43848153 54.98414763 -8.43795208 48.85159812 -8.44469929 42.71877193 C-8.4480346 38.01516009 -8.44141764 33.31160476 -8.43157005 28.60800362 C-8.42771118 26.34608824 -8.42657267 24.08416658 -8.4281559 21.82224846 C-8.42852521 18.6664511 -8.41594439 15.51097403 -8.3996582 12.35522461 C-8.40213562 11.41335297 -8.40461304 10.47148132 -8.40716553 9.50106812 C-8.40008072 8.64441055 -8.39299591 7.78775299 -8.38569641 6.90513611 C-8.38261711 5.78547156 -8.38261711 5.78547156 -8.37947559 4.64318752 C-7.7377982 0.02698532 -3.84687946 0.26330149 0 0 Z " fill="#F7F7F7" transform="translate(54.125,65.1875)"/>
<path d="M0 0 C2.49609375 -0.3984375 2.49609375 -0.3984375 5.4375 -0.375 C6.40558594 -0.38273437 7.37367188 -0.39046875 8.37109375 -0.3984375 C11.43205534 0.06548238 12.11427763 0.62096165 14 3 C14.28072825 5.96901318 14.37868392 8.72579747 14.34057617 11.6940918 C14.34123329 13.0261113 14.34123329 13.0261113 14.34190369 14.38504028 C14.3398119 17.32332261 14.3164624 20.26103597 14.29296875 23.19921875 C14.28737419 25.23517037 14.28310343 27.27112603 14.28010559 29.30708313 C14.26864586 34.66821423 14.23916887 40.02910187 14.20599365 45.39013672 C14.17531714 50.85966702 14.16160542 56.32923661 14.14648438 61.79882812 C14.11430033 72.5326591 14.06309027 83.26630932 14 94 C2.9201082 83.09590347 -3.06172697 72.18185426 -3.32880783 56.5126152 C-3.35884411 50.4289147 -3.22206219 44.35895792 -3.00921631 38.27935791 C-2.91254585 35.12263544 -2.8739926 31.96635942 -2.83782101 28.80844784 C-2.76218464 22.29293758 -2.64334315 15.77796281 -2.43334961 9.26538086 C-2.39858017 8.1243541 -2.36381073 6.98332733 -2.32798767 5.807724 C-2 3 -2 3 0 0 Z " fill="#F9F9F9" transform="translate(127,62)"/>
<path d="M0 0 C2.9008605 0.35298081 3.89516676 0.88728296 5.921875 3.06640625 C6.52515625 3.89011719 7.1284375 4.71382812 7.75 5.5625 C8.36359375 6.38878906 8.9771875 7.21507812 9.609375 8.06640625 C10.06828125 8.70449219 10.5271875 9.34257812 11 10 C14.19739209 6.91008328 16.60883312 3.75754796 19 0 C20.32 0.33 21.64 0.66 23 1 C20.03 4.96 17.06 8.92 14 13 C15.11375 14.7325 16.2275 16.465 17.375 18.25 C19.42402323 21.43736948 21.38325319 24.57053707 23 28 C19.94918504 27.68276924 19.09333887 27.11098219 17.078125 24.71484375 C16.47484375 23.79832031 15.8715625 22.88179687 15.25 21.9375 C14.32960937 20.55884766 14.32960937 20.55884766 13.390625 19.15234375 C12.93171875 18.44207031 12.4728125 17.73179687 12 17 C8.36440339 20.43361902 5.63886654 23.7973607 3 28 C1.68 27.67 0.36 27.34 -1 27 C-0.33871094 26.18015625 0.32257813 25.3603125 1.00390625 24.515625 C1.85743806 23.42760643 2.71026629 22.33903565 3.5625 21.25 C4.00013672 20.71117187 4.43777344 20.17234375 4.88867188 19.6171875 C7.30079266 16.60647943 7.30079266 16.60647943 8 12.93359375 C6.68159674 10.38433744 5.13160696 8.12949073 3.4375 5.8125 C0 1.08853119 0 1.08853119 0 0 Z " fill="#EAEAEA" transform="translate(148,156)"/>
<path d="M0 0 C7.59 0 15.18 0 23 0 C23 0.99 23 1.98 23 3 C19.7 3 16.4 3 13 3 C13 11.25 13 19.5 13 28 C12.01 28 11.02 28 10 28 C10 19.42 10 10.84 10 2 C6.7 2 3.4 2 0 2 C0 1.34 0 0.68 0 0 Z " fill="#E7E7E7" transform="translate(204,156)"/>
<path d="M0 0 C1.32 0.33 2.64 0.66 4 1 C2.90751403 2.50852857 1.80061501 4.00662831 0.6875 5.5 C0.07261719 6.3353125 -0.54226562 7.170625 -1.17578125 8.03125 C-1.77777344 8.6809375 -2.37976563 9.330625 -3 10 C-3.99 10 -4.98 10 -6 10 C-4.34832443 6.4213696 -2.21713508 3.25179812 0 0 Z " fill="#DFDFDF" transform="translate(167,156)"/>
</svg>
