<?xml version="1.0" encoding="UTF-8"?>
<!DOCTYPE svg PUBLIC "-//W3C//DTD SVG 1.1//EN" "http://www.w3.org/Graphics/SVG/1.1/DTD/svg11.dtd">
<svg xmlns="http://www.w3.org/2000/svg" version="1.1" width="600px" height="600px" style="shape-rendering:geometricPrecision; text-rendering:geometricPrecision; image-rendering:optimizeQuality; fill-rule:evenodd; clip-rule:evenodd" xmlns:xlink="http://www.w3.org/1999/xlink">
<g><path style="opacity:0.621" fill="#1455a2" d="M 464.5,92.5 C 464.565,92.9382 464.399,93.2716 464,93.5C 462.127,91.2911 459.96,89.4578 457.5,88C 353.5,87.3333 249.5,87.3333 145.5,88C 143,90.5 140.5,93 138,95.5C 137.536,94.9056 137.369,94.2389 137.5,93.5C 139.668,90.5001 142.334,88.0001 145.5,86C 249.5,85.3333 353.5,85.3333 457.5,86C 460.331,87.6657 462.664,89.8324 464.5,92.5 Z"/></g>
<g><path style="opacity:1" fill="#2e66b5" d="M 464.5,92.5 C 498.8,127.634 532.966,162.967 567,198.5C 567.982,199.759 568.315,201.092 568,202.5C 476.167,305.667 384.333,408.833 292.5,512C 290.888,512.72 289.388,512.554 288,511.5C 263.999,482.002 239.832,452.669 215.5,423.5C 215.611,422.883 215.944,422.383 216.5,422C 212.286,417.454 208.453,412.621 205,407.5C 202.894,404.882 200.394,402.882 197.5,401.5C 141.819,335.15 86.4861,268.483 31.5,201.5C 63.7678,168.398 96.4344,135.898 129.5,104C 128.906,103.536 128.239,103.369 127.5,103.5C 130.5,99.8333 133.833,96.5 137.5,93.5C 137.369,94.2389 137.536,94.9056 138,95.5C 140.5,93 143,90.5 145.5,88C 249.5,87.3333 353.5,87.3333 457.5,88C 459.96,89.4578 462.127,91.2911 464,93.5C 464.399,93.2716 464.565,92.9382 464.5,92.5 Z"/></g>
<g><path style="opacity:1" fill="#15223b" d="M 221.5,113.5 C 170.502,143.669 119.168,173.335 67.5,202.5C 96.6318,172.868 125.965,143.368 155.5,114C 177.497,113.5 199.497,113.333 221.5,113.5 Z"/></g>
<g><path style="opacity:1" fill="#264b80" d="M 221.5,113.5 C 260.167,113.5 298.833,113.5 337.5,113.5C 261.06,158.226 184.393,202.726 107.5,247C 106.748,247.671 106.414,248.504 106.5,249.5C 93.9068,233.566 80.9068,217.9 67.5,202.5C 119.168,173.335 170.502,143.669 221.5,113.5 Z"/></g>
<g><path style="opacity:1" fill="#17243e" d="M 337.5,113.5 C 374.168,113.333 410.835,113.5 447.5,114C 450.039,116.37 452.372,118.87 454.5,121.5C 434.557,133.812 414.224,145.645 393.5,157C 392.643,157.689 391.977,158.522 391.5,159.5C 392.635,161.799 393.968,163.966 395.5,166C 314.942,212.776 234.275,259.276 153.5,305.5C 137.833,286.833 122.167,268.167 106.5,249.5C 106.414,248.504 106.748,247.671 107.5,247C 184.393,202.726 261.06,158.226 337.5,113.5 Z"/></g>
<g><path style="opacity:1" fill="#264c81" d="M 454.5,121.5 C 472.164,140.497 490.164,159.164 508.5,177.5C 502.807,179.179 497.474,181.679 492.5,185C 401.303,238.098 309.969,290.931 218.5,343.5C 217.624,343.369 216.957,343.702 216.5,344.5C 254.494,345.5 292.494,345.833 330.5,345.5C 330.5,342.5 330.5,339.5 330.5,336.5C 357.5,336.5 384.5,336.5 411.5,336.5C 389.589,360.686 367.922,385.019 346.5,409.5C 311.004,408.502 275.337,408.168 239.5,408.5C 210.606,374.391 181.939,340.058 153.5,305.5C 234.275,259.276 314.942,212.776 395.5,166C 393.968,163.966 392.635,161.799 391.5,159.5C 391.977,158.522 392.643,157.689 393.5,157C 414.224,145.645 434.557,133.812 454.5,121.5 Z"/></g>
<g><path style="opacity:0.494" fill="#124ea9" d="M 127.5,103.5 C 128.239,103.369 128.906,103.536 129.5,104C 96.4344,135.898 63.7678,168.398 31.5,201.5C 30.475,201.103 30.3083,200.437 31,199.5C 63.0346,167.299 95.2013,135.299 127.5,103.5 Z"/></g>
<g><path style="opacity:1" fill="#17243e" d="M 508.5,177.5 C 516.328,185.495 523.995,193.662 531.5,202C 491.626,246.371 451.959,290.871 412.5,335.5C 384.833,335.5 357.167,335.5 329.5,335.5C 329.5,338.5 329.5,341.5 329.5,344.5C 292.33,344.832 255.33,344.498 218.5,343.5C 309.969,290.931 401.303,238.098 492.5,185C 497.474,181.679 502.807,179.179 508.5,177.5 Z"/></g>
<g><path style="opacity:1" fill="#1c3459" d="M 412.5,335.5 C 412.5,336.167 412.167,336.5 411.5,336.5C 384.5,336.5 357.5,336.5 330.5,336.5C 330.5,339.5 330.5,342.5 330.5,345.5C 292.494,345.833 254.494,345.5 216.5,344.5C 216.957,343.702 217.624,343.369 218.5,343.5C 255.33,344.498 292.33,344.832 329.5,344.5C 329.5,341.5 329.5,338.5 329.5,335.5C 357.167,335.5 384.833,335.5 412.5,335.5 Z"/></g>
<g><path style="opacity:1" fill="#17243e" d="M 239.5,408.5 C 275.337,408.168 311.004,408.502 346.5,409.5C 328.506,430.326 310.006,450.659 291,470.5C 273.595,450.019 256.429,429.352 239.5,408.5 Z"/></g>
<g><path style="opacity:0.388" fill="#164eb1" d="M 197.5,401.5 C 200.394,402.882 202.894,404.882 205,407.5C 208.453,412.621 212.286,417.454 216.5,422C 215.944,422.383 215.611,422.883 215.5,423.5C 209.152,416.482 203.152,409.149 197.5,401.5 Z"/></g>
</svg>
