<?xml version="1.0" encoding="UTF-8"?>
<svg version="1.1" xmlns="http://www.w3.org/2000/svg" width="550" height="550">
<path d="M0 0 C0.94210831 -0.00705963 1.88421661 -0.01411926 2.85487366 -0.02139282 C42.04071823 -0.24837484 42.04071823 -0.24837484 59.8046875 3.203125 C60.84399414 3.39648438 61.88330078 3.58984375 62.95410156 3.7890625 C87.60757309 8.47807029 111.280119 16.13028203 133.8046875 27.203125 C134.56587891 27.56954102 135.32707031 27.93595703 136.11132812 28.31347656 C156.60650149 38.24815984 175.66715918 51.22387581 192.8046875 66.203125 C193.33416992 66.66493164 193.86365234 67.12673828 194.40917969 67.60253906 C197.95296072 70.72043876 201.40310671 73.9306773 204.8046875 77.203125 C205.37461426 77.7511377 205.94454102 78.29915039 206.53173828 78.86376953 C214.16578528 86.25042641 221.29074338 93.79226309 227.8046875 102.203125 C228.98417969 103.67458984 228.98417969 103.67458984 230.1875 105.17578125 C264.92848151 148.84702492 287.72676317 206.30144235 288.0078125 262.3984375 C288.01487213 263.34054581 288.02193176 264.28265411 288.02920532 265.25331116 C288.25618734 304.43915573 288.25618734 304.43915573 284.8046875 322.203125 C284.61132812 323.24243164 284.41796875 324.28173828 284.21875 325.35253906 C279.52974221 350.00601059 271.87753047 373.6785565 260.8046875 396.203125 C260.43827148 396.96431641 260.07185547 397.72550781 259.69433594 398.50976562 C249.75965266 419.00493899 236.78393669 438.06559668 221.8046875 455.203125 C221.11197754 455.99734863 221.11197754 455.99734863 220.40527344 456.80761719 C217.28737374 460.35139822 214.0771352 463.80154421 210.8046875 467.203125 C210.2566748 467.77305176 209.70866211 468.34297852 209.14404297 468.93017578 C201.75738609 476.56422278 194.21554941 483.68918088 185.8046875 490.203125 C184.82371094 490.98945313 183.84273438 491.77578125 182.83203125 492.5859375 C139.16078758 527.32691901 81.70637015 550.12520067 25.609375 550.40625 C24.66726669 550.41330963 23.72515839 550.42036926 22.75450134 550.42764282 C-16.43134323 550.65462484 -16.43134323 550.65462484 -34.1953125 547.203125 C-35.23461914 547.00976562 -36.27392578 546.81640625 -37.34472656 546.6171875 C-61.99819809 541.92817971 -85.670744 534.27596797 -108.1953125 523.203125 C-108.95650391 522.83670898 -109.71769531 522.47029297 -110.50195312 522.09277344 C-130.99712649 512.15809016 -150.05778418 499.18237419 -167.1953125 484.203125 C-167.98953613 483.51041504 -167.98953613 483.51041504 -168.79980469 482.80371094 C-172.34358572 479.68581124 -175.79373171 476.4755727 -179.1953125 473.203125 C-179.76523926 472.6551123 -180.33516602 472.10709961 -180.92236328 471.54248047 C-188.55641028 464.15582359 -195.68136838 456.61398691 -202.1953125 448.203125 C-202.98164063 447.22214844 -203.76796875 446.24117188 -204.578125 445.23046875 C-239.31910651 401.55922508 -262.11738817 344.10480765 -262.3984375 288.0078125 C-262.40549713 287.06570419 -262.41255676 286.12359589 -262.41983032 285.15293884 C-262.64681234 245.96709427 -262.64681234 245.96709427 -259.1953125 228.203125 C-259.00195312 227.16381836 -258.80859375 226.12451172 -258.609375 225.05371094 C-253.92036721 200.40023941 -246.26815547 176.7276935 -235.1953125 154.203125 C-234.82889648 153.44193359 -234.46248047 152.68074219 -234.08496094 151.89648438 C-224.15027766 131.40131101 -211.17456169 112.34065332 -196.1953125 95.203125 C-195.73350586 94.67364258 -195.27169922 94.14416016 -194.79589844 93.59863281 C-191.67799874 90.05485178 -188.4677602 86.60470579 -185.1953125 83.203125 C-184.6472998 82.63319824 -184.09928711 82.06327148 -183.53466797 81.47607422 C-176.14801109 73.84202722 -168.60617441 66.71706912 -160.1953125 60.203125 C-159.21433594 59.41679688 -158.23335938 58.63046875 -157.22265625 57.8203125 C-113.55141258 23.07933099 -56.09699515 0.28104933 0 0 Z " fill="#2C2C2C" transform="translate(262.1953125,-0.203125)"/>
<path d="M0 0 C4.835593 0.80593217 6.77344041 1.13722695 10.671875 3.43359375 C11.50074219 3.91763672 12.32960938 4.40167969 13.18359375 4.90039062 C14.03050781 5.40763672 14.87742187 5.91488281 15.75 6.4375 C16.61238281 6.94087891 17.47476563 7.44425781 18.36328125 7.96289062 C24.69147321 11.69147321 24.69147321 11.69147321 27 14 C27.26006222 15.93721581 27.26006222 15.93721581 27.27415466 18.35165405 C27.28412979 19.26576553 27.29410492 20.17987701 27.30438232 21.12168884 C27.305047 22.12744461 27.30571167 23.13320038 27.30639648 24.16943359 C27.31472 25.22643967 27.32304352 26.28344574 27.33161926 27.3724823 C27.35579685 30.88117104 27.36450085 34.38967418 27.37109375 37.8984375 C27.38005408 40.32980406 27.38917581 42.76117003 27.39845276 45.1925354 C27.41496637 50.29536278 27.42264721 55.39812436 27.42553711 60.50097656 C27.43092364 67.04744556 27.46860564 73.59329829 27.51428127 80.13959312 C27.5439882 85.16326163 27.55125929 90.1867806 27.55226326 95.21052933 C27.55647811 97.62433317 27.56896264 100.03813696 27.58978081 102.45185471 C27.61656239 105.82562626 27.61190828 109.19795466 27.59936523 112.57177734 C27.61419952 113.57348465 27.62903381 114.57519196 27.64431763 115.60725403 C27.57244102 122.37814877 27.57244102 122.37814877 24.67445374 125.52627563 C23.791884 126.01260468 22.90931427 126.49893372 22 127 C20.32164062 127.99386719 20.32164062 127.99386719 18.609375 129.0078125 C17.32537615 129.7180066 16.03877773 130.42351539 14.75 131.125 C10.23988844 133.60350603 5.76875224 136.11490348 1.3828125 138.80859375 C0.6290332 139.2679834 -0.12474609 139.72737305 -0.90136719 140.20068359 C-2.35383407 141.0902159 -3.80015238 141.98988861 -5.23925781 142.90087891 C-5.90538086 143.30612793 -6.57150391 143.71137695 -7.2578125 144.12890625 C-8.12623779 144.67140015 -8.12623779 144.67140015 -9.01220703 145.22485352 C-12.88056033 146.73333076 -16.01712604 146.4119077 -19.80151367 144.82592773 C-20.74744385 144.28395752 -21.69337402 143.7419873 -22.66796875 143.18359375 C-23.72693359 142.58353516 -24.78589844 141.98347656 -25.87695312 141.36523438 C-26.96943359 140.72908203 -28.06191406 140.09292969 -29.1875 139.4375 C-30.26064453 138.82841797 -31.33378906 138.21933594 -32.43945312 137.59179688 C-51.04445842 126.95554158 -51.04445842 126.95554158 -55 123 C-55.29434204 121.05352783 -55.29434204 121.05352783 -55.35400391 118.64550781 C-55.37967438 117.74407043 -55.40534485 116.84263306 -55.43179321 115.91387939 C-55.44656708 114.93683044 -55.46134094 113.95978149 -55.4765625 112.953125 C-55.50077774 111.44718781 -55.50077774 111.44718781 -55.52548218 109.91082764 C-55.55317615 107.78241903 -55.57461503 105.65392137 -55.59033203 103.52539062 C-55.62472883 100.2756203 -55.71245876 97.02993854 -55.80078125 93.78125 C-55.82103846 91.71357161 -55.83806964 89.6458586 -55.8515625 87.578125 C-55.88657867 86.60917297 -55.92159485 85.64022095 -55.95767212 84.64190674 C-55.91547638 78.05022131 -55.91547638 78.05022131 -53.37486267 75.13566589 C-51.32279709 73.55751959 -49.26046918 72.25836176 -47 71 C-45.96915283 70.36682861 -44.93830566 69.73365723 -43.8762207 69.08129883 C-42.90257568 68.54529053 -41.92893066 68.00928223 -40.92578125 67.45703125 C-39.84619141 66.85826172 -38.76660156 66.25949219 -37.65429688 65.64257812 C-36.00010742 64.73668945 -36.00010742 64.73668945 -34.3125 63.8125 C-32.09994608 62.59041267 -29.88769514 61.36777662 -27.67578125 60.14453125 C-26.70552002 59.61190674 -25.73525879 59.07928223 -24.7355957 58.53051758 C-22.9070152 57.50745902 -21.10258758 56.44002841 -19.32495117 55.33081055 C-16.23877603 53.56427262 -14.51754094 53.50754427 -11 54 C-8.55383789 55.1805391 -6.32413561 56.57969491 -4 58 C-2.68 58.33 -1.36 58.66 0 59 C0 39.53 0 20.06 0 0 Z " fill="#FCFCFC" transform="translate(339,158)"/>
<path d="M0 0 C2.69384766 1.3034668 2.69384766 1.3034668 5.4140625 2.94921875 C6.42339844 3.55056641 7.43273437 4.15191406 8.47265625 4.77148438 C9.51292969 5.40376953 10.55320313 6.03605469 11.625 6.6875 C18.85650556 11.04565069 26.07257172 15.1418805 33.71240234 18.74926758 C36 20 36 20 37 22 C37.09443369 23.43430948 37.12793944 24.87288864 37.12939453 26.31030273 C37.13254669 27.20140244 37.13569885 28.09250214 37.13894653 29.01060486 C37.13591019 30.45748436 37.13591019 30.45748436 37.1328125 31.93359375 C37.13376923 32.92247086 37.13472595 33.91134796 37.13571167 34.93019104 C37.13639299 37.02418074 37.13454206 39.11817255 37.13037109 41.2121582 C37.12502784 44.42078393 37.13031481 47.62926931 37.13671875 50.83789062 C37.13605785 52.86979198 37.13477644 54.90169324 37.1328125 56.93359375 C37.13483673 57.89615585 37.13686096 58.85871796 37.13894653 59.85044861 C37.13421829 61.1918264 37.13421829 61.1918264 37.12939453 62.56030273 C37.12859894 63.34702866 37.12780334 64.13375458 37.12698364 64.94432068 C37 67 37 67 36 70 C34.3984375 71.28125 34.3984375 71.28125 32.375 72.5 C31.39660156 73.10328125 31.39660156 73.10328125 30.3984375 73.71875 C28 75 28 75 24.6171875 76.41796875 C21.08277143 77.96379867 17.99999468 79.7424657 14.75 81.8125 C6.16144647 87.15560934 6.16144647 87.15560934 2 89.5625 C0.7315625 90.30693359 0.7315625 90.30693359 -0.5625 91.06640625 C-3.51733394 92.19814553 -5.01169115 91.92101981 -8 91 C-10.3125 89.9375 -10.3125 89.9375 -12 89 C-12 88.34 -12 87.68 -12 87 C-12.56750977 86.88301758 -13.13501953 86.76603516 -13.71972656 86.64550781 C-16.21915474 85.93796091 -18.21225214 84.92885504 -20.484375 83.671875 C-21.76441406 82.96611328 -21.76441406 82.96611328 -23.0703125 82.24609375 C-23.95460937 81.75238281 -24.83890625 81.25867188 -25.75 80.75 C-27.05324219 80.03263672 -27.05324219 80.03263672 -28.3828125 79.30078125 C-43.55183995 70.89632009 -43.55183995 70.89632009 -45 68 C-45.11456534 66.54100148 -45.16936773 65.07707042 -45.19287109 63.61376953 C-45.21696548 62.25193039 -45.21696548 62.25193039 -45.24154663 60.86257935 C-45.28595129 56.71356929 -45.32705005 52.56471929 -45.35009766 48.41552734 C-45.36667294 46.22531521 -45.39398341 44.03515751 -45.43212891 41.84521484 C-45.48680235 38.69079472 -45.50875598 35.53764214 -45.5234375 32.3828125 C-45.54610687 31.4035379 -45.56877625 30.42426331 -45.59213257 29.41531372 C-45.57100197 22.63732 -45.57100197 22.63732 -42.78442383 19.52709961 C-41.86556396 19.02315674 -40.9467041 18.51921387 -40 18 C-38.77277222 17.27768188 -38.77277222 17.27768188 -37.52075195 16.54077148 C-36.66441162 16.09290283 -35.80807129 15.64503418 -34.92578125 15.18359375 C-30.92814931 13.05371337 -26.99989175 10.84857903 -23.10546875 8.53515625 C-21.64270508 7.67760742 -21.64270508 7.67760742 -20.15039062 6.80273438 C-18.14863285 5.62701508 -16.15395679 4.43916722 -14.16601562 3.24023438 C-13.19728516 2.67755859 -12.22855469 2.11488281 -11.23046875 1.53515625 C-10.36832764 1.023479 -9.50618652 0.51180176 -8.61791992 -0.01538086 C-5.25315406 -1.28089431 -3.44245947 -0.96338631 0 0 Z " fill="#69A35A" transform="translate(229,212)"/>
<path d="M0 0 C2.6346142 0.79366719 4.71450469 1.79064871 7.08618164 3.17944336 C7.93664062 3.67202637 8.78709961 4.16460937 9.66333008 4.67211914 C10.55955078 5.20047363 11.45577148 5.72882813 12.37915039 6.27319336 C14.25505792 7.36501737 16.13136471 8.45615567 18.00805664 9.54663086 C18.94020996 10.09029297 19.87236328 10.63395508 20.83276367 11.1940918 C23.36428019 12.6563037 25.90974526 14.08677693 28.46899414 15.49975586 C29.20722412 15.90774414 29.9454541 16.31573242 30.70605469 16.73608398 C32.08693707 17.49640789 33.4698426 18.25307177 34.85498047 19.00561523 C39.45651721 21.55292699 39.45651721 21.55292699 40.56665039 23.77319336 C40.6578471 25.68301282 40.68417576 27.59606522 40.68017578 29.50805664 C40.68006248 31.30969772 40.68006248 31.30969772 40.6799469 33.1477356 C40.67478561 34.44983978 40.66962433 35.75194397 40.66430664 37.09350586 C40.66244177 38.43586169 40.66101819 39.7782182 40.66001892 41.12057495 C40.65619917 44.65515011 40.64637351 48.18968423 40.63531494 51.72424316 C40.62508917 55.330398 40.6205188 58.93655946 40.61547852 62.54272461 C40.60475077 69.61956432 40.58768084 76.69637616 40.56665039 83.77319336 C31.18449257 82.60132231 22.6643757 79.66755145 15.42456055 73.37670898 C10.94452647 67.09877424 12.09947889 58.11234808 12.69604492 50.71801758 C13.50903902 43.66851991 13.50903902 43.66851991 10.68310547 37.53881836 C8.3564697 35.96974102 6.16880558 34.81169648 3.56665039 33.77319336 C2.11258789 33.15444336 2.11258789 33.15444336 0.62915039 32.52319336 C-4.47307235 32.93970134 -9.79650686 36.13635061 -13.43334961 39.77319336 C-13.53091077 41.94468541 -13.56540506 44.11905893 -13.57397461 46.29272461 C-13.59230723 47.6384446 -13.61187797 48.98414818 -13.63256836 50.32983398 C-13.6615159 52.45649728 -13.68334879 54.58211143 -13.68383789 56.70898438 C-13.68717811 58.75868312 -13.72175808 60.80594908 -13.76147461 62.85522461 C-13.77082031 64.08474854 -13.78016602 65.31427246 -13.78979492 66.58105469 C-14.43334961 69.77319336 -14.43334961 69.77319336 -16.72338867 72.04443359 C-17.61767578 72.61492432 -18.51196289 73.18541504 -19.43334961 73.77319336 C-20.10946289 74.22597656 -20.78557617 74.67875977 -21.48217773 75.14526367 C-23.62590277 76.44945107 -25.77609022 77.74150557 -27.93334961 79.02319336 C-28.6797168 79.48209961 -29.42608398 79.94100586 -30.19506836 80.41381836 C-30.92338867 80.84694336 -31.65170898 81.28006836 -32.40209961 81.72631836 C-33.05629883 82.11980469 -33.71049805 82.51329102 -34.38452148 82.91870117 C-36.84956943 83.94678361 -38.78586074 83.83280307 -41.43334961 83.77319336 C-41.52607035 76.01934278 -41.59712469 68.2656223 -41.6405983 60.51135635 C-41.66146473 56.9106105 -41.68976382 53.3102442 -41.73510742 49.7097168 C-41.77860086 46.23431423 -41.80249382 42.75927648 -41.81285858 39.28362274 C-41.82383576 37.31373552 -41.85505661 35.34399489 -41.88653564 33.37432861 C-41.88683777 32.17338562 -41.88713989 30.97244263 -41.88745117 29.73510742 C-41.89633362 28.67809631 -41.90521606 27.62108521 -41.91436768 26.53204346 C-41.30927047 23.06154496 -40.13565033 21.95930594 -37.43334961 19.77319336 C-35.46605007 18.54491506 -33.45551966 17.38449584 -31.41772461 16.27709961 C-30.55573456 15.80396584 -30.55573456 15.80396584 -29.67633057 15.3212738 C-27.84882699 14.31952732 -26.01645094 13.32715325 -24.18334961 12.33569336 C-22.36998272 11.3487168 -20.55775074 10.35972737 -18.7467041 9.36849976 C-17.0129404 8.41999766 -15.27687624 7.47570444 -13.54077148 6.53149414 C-10.89463968 5.03420931 -8.39853499 3.44517673 -5.88647461 1.73803711 C-2.43334961 -0.22680664 -2.43334961 -0.22680664 0 0 Z " fill="#FCFCFC" transform="translate(125.433349609375,210.226806640625)"/>
<path d="M0 0 C2.15551758 0.96459961 2.15551758 0.96459961 4.14453125 2.15234375 C5.27205811 2.81580811 5.27205811 2.81580811 6.42236328 3.49267578 C7.2111084 3.96946777 7.99985352 4.44625977 8.8125 4.9375 C9.63476074 5.42460449 10.45702148 5.91170898 11.30419922 6.41357422 C13.01535519 7.42782303 14.72432121 8.44577504 16.43115234 9.46728516 C18.94196945 10.96537581 21.46263037 12.44504802 23.98828125 13.91796875 C35.83101838 20.83101838 35.83101838 20.83101838 37 22 C37.17883149 24.26617608 37.26802736 26.53971385 37.3125 28.8125 C37.36857422 30.67841797 37.36857422 30.67841797 37.42578125 32.58203125 C37 36 37 36 35.5703125 38.0859375 C31.72674856 40.94816597 27.69998984 43.40027128 23.5625 45.8125 C22.71623047 46.32748047 21.86996094 46.84246094 20.99804688 47.37304688 C20.17498047 47.85451172 19.35191406 48.33597656 18.50390625 48.83203125 C17.75955322 49.27264893 17.0152002 49.7132666 16.24829102 50.16723633 C13.4584112 51.20060369 11.81893396 50.80749258 9 50 C9.04382813 49.13117188 9.08765625 48.26234375 9.1328125 47.3671875 C9.26316952 40.46054415 9.26316952 40.46054415 5.8828125 34.765625 C1.05067966 31.711132 1.05067966 31.711132 -4.49609375 31.234375 C-9.40780198 32.73623898 -13.41862434 34.18074699 -17 38 C-19.05911204 43.60751894 -19.04793895 47.51404064 -17 53 C-13.14398699 57.13144251 -7.69390142 59.31704508 -2.66308594 61.69189453 C2.21574613 64.08837255 6.8671392 66.89142428 11.5625 69.625 C13.37509476 70.66096943 15.18879598 71.6950068 17.00390625 72.7265625 C17.77549072 73.16564941 18.5470752 73.60473633 19.34204102 74.05712891 C19.88916748 74.36827637 20.43629395 74.67942383 21 75 C21 76.32 21 77.64 21 79 C19.84242188 79.60328125 18.68484375 80.2065625 17.4921875 80.828125 C15.95303356 81.63524231 14.41397616 82.44254376 12.875 83.25 C12.11445313 83.64574219 11.35390625 84.04148437 10.5703125 84.44921875 C7.13402548 86.25623175 3.87495747 88.03898906 0.7578125 90.359375 C-2 92 -2 92 -4.29467773 91.80053711 C-7.50307458 90.85113423 -10.1247814 89.47140907 -13.04296875 87.83203125 C-13.61147049 87.51473557 -14.17997223 87.19743988 -14.76570129 86.87052917 C-16.57660031 85.8575111 -18.38195421 84.83502232 -20.1875 83.8125 C-21.38052897 83.14459178 -22.57388584 82.47726889 -23.76757812 81.81054688 C-29.13997952 78.80190215 -34.48752437 75.74864763 -39.80078125 72.63671875 C-40.59266846 72.17354248 -41.38455566 71.71036621 -42.20043945 71.2331543 C-44 70 -44 70 -45 68 C-45.14444121 66.55782286 -45.23144903 65.10966229 -45.28808594 63.66137695 C-45.32351501 62.76316727 -45.35894409 61.86495758 -45.39544678 60.93952942 C-45.51957276 56.82017809 -45.61000988 52.70094483 -45.6796875 48.58032227 C-45.72638225 46.41015155 -45.7945828 44.24033204 -45.88476562 42.0715332 C-46.61515874 24.19734189 -46.61515874 24.19734189 -43.0012207 19.28076172 C-40.08749637 17.40690644 -37.23229005 16.24057374 -34 15 C-31.64226306 13.62462551 -29.32612309 12.22405934 -27.01171875 10.78125 C-25.80146084 10.06583992 -24.58854161 9.3549135 -23.37304688 8.6484375 C-21.51302731 7.56719757 -19.65689222 6.48166321 -17.8112793 5.37597656 C-15.99126905 4.28649193 -14.15970659 3.21939897 -12.32421875 2.15625 C-11.25260498 1.52525391 -10.18099121 0.89425781 -9.0769043 0.24414062 C-5.44537012 -1.22426358 -3.72514048 -1.08197388 0 0 Z " fill="#FBFBFB" transform="translate(429,212)"/>
<path d="M0 0 C3.00683594 1.37939453 3.00683594 1.37939453 5.984375 3.1328125 C7.63566406 4.09574219 7.63566406 4.09574219 9.3203125 5.078125 C11.01800781 6.09132813 11.01800781 6.09132813 12.75 7.125 C13.86632812 7.77726562 14.98265625 8.42953125 16.1328125 9.1015625 C36.54637222 21.09274443 36.54637222 21.09274443 38 24 C38.10917158 25.39256305 38.15896101 26.79004828 38.17700195 28.18676758 C38.19625481 29.48370293 38.19625481 29.48370293 38.21589661 30.80683899 C38.22328354 31.74327744 38.23067047 32.67971588 38.23828125 33.64453125 C38.246353 34.60646896 38.25442474 35.56840668 38.26274109 36.55949402 C38.2765861 38.59799393 38.28730638 40.63651706 38.29516602 42.67504883 C38.31237389 45.78967336 38.35625577 48.90323518 38.40039062 52.01757812 C38.41051791 53.99738802 38.4190339 55.97720695 38.42578125 57.95703125 C38.44328934 58.887397 38.46079742 59.81776276 38.47883606 60.77632141 C38.46510422 64.87902219 38.38621746 67.33873806 36.28588867 70.93481445 C33.9502792 73.04492024 31.75978289 74.57616788 29 76.0859375 C28.03578125 76.62130127 27.0715625 77.15666504 26.078125 77.70825195 C25.06234375 78.25827881 24.0465625 78.80830566 23 79.375 C20.91610292 80.52111099 18.83276372 81.66823696 16.75 82.81640625 C15.75355469 83.36312988 14.75710938 83.90985352 13.73046875 84.47314453 C10.42065095 86.32396718 7.21715054 88.30588442 4 90.3125 C-0.30059341 92.77792639 -2.98433735 94.25391566 -8 93 C-12.14082517 90.87462071 -16.08748547 88.51840016 -20 86 C-19.505 84.515 -19.505 84.515 -19 83 C-15.875 82.25 -15.875 82.25 -12 82 C-9.97543152 83.29572383 -7.97321053 84.6273318 -6 86 C-1.7413765 85.68511449 1.36102472 83.85820599 5 81.7265625 C6.7015625 80.7365625 6.7015625 80.7365625 8.4375 79.7265625 C9.62508032 79.02617785 10.81257963 78.3256558 12 77.625 C13.18712379 76.93164713 14.37462059 76.2389325 15.5625 75.546875 C18.71347145 73.70642122 21.85973971 71.85866289 25 70 C25.93416748 69.6275415 26.86833496 69.25508301 27.83081055 68.87133789 C30.40335514 66.65202958 30.3805879 66.07357509 30.65942383 62.80395508 C30.70057411 61.0428897 30.71470105 59.28106064 30.70703125 57.51953125 C30.72971321 56.12754768 30.72971321 56.12754768 30.75285339 54.70744324 C30.79585616 51.74221742 30.80458046 48.77800706 30.8125 45.8125 C30.83563454 43.80270714 30.86099769 41.7929386 30.88867188 39.78320312 C30.95164851 34.85537849 30.98388551 29.92819174 31 25 C30.0915332 24.71479492 29.18306641 24.42958984 28.24707031 24.13574219 C25.58852801 23.20585205 23.44135301 22.26481181 21.046875 20.828125 C20.34989502 20.41344971 19.65291504 19.99877441 18.93481445 19.5715332 C18.21382568 19.13542725 17.49283691 18.69932129 16.75 18.25 C16.00000732 17.80551514 15.25001465 17.36103027 14.47729492 16.90307617 C11.23917374 14.97879287 8.03815274 13.02478257 4.87890625 10.97265625 C4.03199219 10.42480469 3.18507813 9.87695312 2.3125 9.3125 C1.60738281 8.83425781 0.90226562 8.35601562 0.17578125 7.86328125 C-2.8800942 6.65080643 -4.81566763 7.27618863 -8 8 C-10.70822277 9.19827075 -10.70822277 9.19827075 -13.3359375 10.765625 C-14.31820313 11.32636719 -15.30046875 11.88710938 -16.3125 12.46484375 C-17.323125 13.05394531 -18.33375 13.64304687 -19.375 14.25 C-20.37789063 14.82363281 -21.38078125 15.39726562 -22.4140625 15.98828125 C-25.28839822 17.63989563 -28.15327587 19.30118684 -31 21 C-31.69373718 21.3254631 -32.38747437 21.65092621 -33.10223389 21.98625183 C-37.34972116 24.10666905 -37.34972116 24.10666905 -39.69320679 28.02560425 C-39.92770527 30.54044654 -39.90084731 32.9341259 -39.78125 35.45703125 C-39.76993042 36.35999435 -39.75861084 37.26295746 -39.74694824 38.19328308 C-39.70227241 41.06854311 -39.6019382 43.93875647 -39.5 46.8125 C-39.45986109 48.76490176 -39.42336102 50.71738196 -39.390625 52.66992188 C-39.30256691 57.44854976 -39.16458958 62.22342041 -39 67 C-37.59008016 67.83607361 -36.17336593 68.66069606 -34.75390625 69.48046875 C-33.57163452 70.17112427 -33.57163452 70.17112427 -32.36547852 70.87573242 C-28.99766035 72.47639324 -26.66504719 72.38989864 -23 72 C-21.28311866 68.56623732 -21.75490998 64.61885635 -21.68359375 60.8359375 C-21.66281265 59.92872955 -21.64203156 59.02152161 -21.62062073 58.08682251 C-21.55512865 55.1829602 -21.49624186 52.27900595 -21.4375 49.375 C-21.39431445 47.40884458 -21.35070015 45.44269853 -21.30664062 43.4765625 C-21.19944761 38.65113638 -21.09817919 33.8256176 -21 29 C-19.02 29 -17.04 29 -15 29 C-14.92567346 35.01397009 -14.87131412 41.02767096 -14.83520508 47.04199219 C-14.82014712 49.08663594 -14.79969643 51.13124755 -14.77368164 53.17578125 C-14.73716689 56.11987252 -14.72024349 59.06353557 -14.70703125 62.0078125 C-14.69154739 62.9174173 -14.67606354 63.82702209 -14.66011047 64.76419067 C-14.65875216 69.92211757 -15.04398103 73.57180836 -18 78 C-21.21260142 80.14173428 -23.33905432 80.64931429 -27.1796875 80.5859375 C-30.96351733 79.79982327 -34.10835201 78.14003626 -37.4375 76.25 C-38.05278564 75.90275879 -38.66807129 75.55551758 -39.30200195 75.19775391 C-42.68893497 73.15947455 -44.56662866 71.67080613 -46 68 C-46.29434204 65.85098267 -46.29434204 65.85098267 -46.35400391 63.51025391 C-46.37967438 62.62898834 -46.40534485 61.74772278 -46.43179321 60.8397522 C-46.44656708 59.8948996 -46.46134094 58.950047 -46.4765625 57.9765625 C-46.49270599 56.99763031 -46.50884949 56.01869812 -46.52548218 55.01010132 C-46.55311452 52.94072507 -46.57458094 50.8712586 -46.59033203 48.80175781 C-46.62481312 45.6421243 -46.71260651 42.48665249 -46.80078125 39.328125 C-46.82103274 37.31513487 -46.83806571 35.30210926 -46.8515625 33.2890625 C-46.88657867 32.34825836 -46.92159485 31.40745422 -46.95767212 30.43814087 C-46.91545208 24.03370236 -46.91545208 24.03370236 -44.35577393 21.14338684 C-42.30813095 19.57231073 -40.24862233 18.26351752 -38 17 C-37.04544922 16.40759521 -36.09089844 15.81519043 -35.10742188 15.20483398 C-34.23666016 14.72344971 -33.36589844 14.24206543 -32.46875 13.74609375 C-31.49292969 13.20146484 -30.51710937 12.65683594 -29.51171875 12.09570312 C-28.51785156 11.54849609 -27.52398437 11.00128906 -26.5 10.4375 C-24.50944256 9.33378624 -22.5198406 8.2283473 -20.53125 7.12109375 C-19.58378906 6.5988623 -18.63632812 6.07663086 -17.66015625 5.53857422 C-14.64535043 3.79487871 -11.81603944 1.85701335 -9.02929688 -0.23022461 C-5.79002298 -1.4589819 -3.33027695 -0.75263902 0 0 Z " fill="#64985F" transform="translate(277,298)"/>
<path d="M0 0 C0.66 0.33 1.32 0.66 2 1 C1.34 1.66 0.68 2.32 0 3 C0.39491682 5.83382959 1.47292949 8.17387538 2.77734375 10.69921875 C3.13554199 11.39708496 3.49374023 12.09495117 3.86279297 12.81396484 C4.23807129 13.53535645 4.61334961 14.25674805 5 15 C5.35852051 15.69947754 5.71704102 16.39895508 6.08642578 17.11962891 C11.15163666 26.97474313 16.47340278 36.63992853 22.08618164 46.19311523 C25.50800237 52.05305218 28.61708456 58.00545046 31.5625 64.1171875 C32.96023765 67.02427127 32.96023765 67.02427127 34.6875 69.7578125 C36 72 36 72 36 74 C34.8553125 73.5359375 34.8553125 73.5359375 33.6875 73.0625 C31.81210323 72.32106407 29.91315348 71.63771783 28 71 C28 70.34 28 69.68 28 69 C27.43249023 68.88301758 26.86498047 68.76603516 26.28027344 68.64550781 C23.78084526 67.93796091 21.78774786 66.92885504 19.515625 65.671875 C18.23558594 64.96611328 18.23558594 64.96611328 16.9296875 64.24609375 C16.04539063 63.75238281 15.16109375 63.25867188 14.25 62.75 C12.94675781 62.03263672 12.94675781 62.03263672 11.6171875 61.30078125 C-3.55183995 52.89632009 -3.55183995 52.89632009 -5 50 C-5.11456534 48.54100148 -5.16936773 47.07707042 -5.19287109 45.61376953 C-5.21696548 44.25193039 -5.21696548 44.25193039 -5.24154663 42.86257935 C-5.28595129 38.71356929 -5.32705005 34.56471929 -5.35009766 30.41552734 C-5.36667294 28.22531521 -5.39398341 26.03515751 -5.43212891 23.84521484 C-5.48680235 20.69079472 -5.50875598 17.53764214 -5.5234375 14.3828125 C-5.54610687 13.4035379 -5.56877625 12.42426331 -5.59213257 11.41531372 C-5.57087649 4.59707056 -5.57087649 4.59707056 -2.46728516 1.35107422 C-1.65308105 0.90521973 -0.83887695 0.45936523 0 0 Z " fill="#3E853D" transform="translate(189,230)"/>
<path d="M0 0 C2.52082212 1.35082029 4.33652671 2.88496534 6.0390625 5.1796875 C6.70128136 7.60782331 6.74074789 9.73685043 6.6015625 12.2421875 C3.7890625 12.5546875 3.7890625 12.5546875 0.6015625 12.2421875 C-1.1484375 9.8046875 -1.1484375 9.8046875 -2.3984375 7.2421875 C-5.12386017 5.87947617 -7.35931024 6.07295149 -10.3984375 6.0546875 C-11.4709375 6.04050781 -12.5434375 6.02632813 -13.6484375 6.01171875 C-16.54296846 5.95632964 -16.54296846 5.95632964 -18.3984375 8.2421875 C-18.0799198 10.35039547 -18.0799198 10.35039547 -17.3984375 12.2421875 C-16.24085938 12.42394531 -15.08328125 12.60570312 -13.890625 12.79296875 C-12.35147842 13.04636483 -10.81242048 13.30029969 -9.2734375 13.5546875 C-8.51289063 13.67263672 -7.75234375 13.79058594 -6.96875 13.91210938 C-1.38299402 14.85109422 3.4722254 16.1128504 7.6015625 20.2421875 C8.17058145 23.62635283 8.12974695 26.85433771 7.6015625 30.2421875 C5.05810038 33.63347032 2.5247558 35.71134687 -1.3984375 37.2421875 C-9.31653418 38.05627753 -17.30665111 38.60034622 -24.015625 33.7265625 C-26.42016707 31.14541564 -27.3635143 29.0104979 -27.5234375 25.4921875 C-27.4615625 24.3784375 -27.4615625 24.3784375 -27.3984375 23.2421875 C-25.4184375 23.2421875 -23.4384375 23.2421875 -21.3984375 23.2421875 C-21.1509375 24.2115625 -20.9034375 25.1809375 -20.6484375 26.1796875 C-20.2359375 27.1903125 -19.8234375 28.2009375 -19.3984375 29.2421875 C-16.33297858 30.44081638 -13.22367519 30.40706103 -9.9609375 30.4296875 C-9.03410156 30.44386719 -8.10726563 30.45804687 -7.15234375 30.47265625 C-4.22010377 30.22726312 -2.05982361 29.46420327 0.6015625 28.2421875 C0.1065625 25.7671875 0.1065625 25.7671875 -0.3984375 23.2421875 C-0.97811279 23.14196289 -1.55778809 23.04173828 -2.1550293 22.93847656 C-4.80166068 22.4718441 -7.44355102 21.98226333 -10.0859375 21.4921875 C-11.45395508 21.25628906 -11.45395508 21.25628906 -12.84960938 21.015625 C-18.00368863 20.04103547 -21.6229147 19.14843105 -25.3984375 15.2421875 C-26.84991653 12.33922945 -26.77082775 10.46956971 -26.3984375 7.2421875 C-20.38445703 -1.6928692 -10.09427396 -3.18939601 0 0 Z " fill="#64985F" transform="translate(292.3984375,326.7578125)"/>
<path d="M0 0 C1.31097656 0.68255859 1.31097656 0.68255859 2.6484375 1.37890625 C3.30070312 1.72824219 3.95296875 2.07757813 4.625 2.4375 C6.05001731 14.16750357 6.05001731 14.16750357 4.625 19.4375 C1.20160738 23.22496771 -2.45191918 25.15582202 -7.375 26.4375 C-13.5455446 25.98887622 -19.21348396 24.15073218 -23.375 19.4375 C-25.01723928 13.7017378 -25.06221751 9.16700945 -23.375 3.4375 C-16.15150184 -4.1697465 -8.94302457 -4.71321565 0 0 Z " fill="#323232" transform="translate(334.375,246.5625)"/>
<path d="M0 0 C0 16.83 0 33.66 0 51 C-2.47024333 48.52975667 -3.75376707 46.93561459 -5.375 43.98046875 C-5.80296875 43.20509766 -6.2309375 42.42972656 -6.671875 41.63085938 C-7.11015625 40.82455078 -7.5484375 40.01824219 -8 39.1875 C-8.65742188 37.99543945 -8.65742188 37.99543945 -9.328125 36.77929688 C-11.15690952 33.44947687 -12.943099 30.11393749 -14.640625 26.71484375 C-16.29235979 23.41612054 -18.18795498 20.29559098 -20.109375 17.1484375 C-21 15 -21 15 -20.7890625 12.875 C-18.11035625 6.50975742 -6.5850183 0 0 0 Z " fill="#6DBB4C" transform="translate(209,221)"/>
<path d="M0 0 C0.66 0.33 1.32 0.66 2 1 C1.34 1.66 0.68 2.32 0 3 C0.61675591 7.3619838 3.00935784 11.13034047 5 15 C6.08545595 17.16560406 7.16871214 19.3323118 8.25 21.5 C8.77078125 22.5415625 9.2915625 23.583125 9.828125 24.65625 C10.21484375 25.4296875 10.6015625 26.203125 11 27 C10.34 27 9.68 27 9 27 C8.649375 28.258125 8.29875 29.51625 7.9375 30.8125 C5.95554421 36.8250678 2.53824017 41.79921325 -1 47 C-1.66 47.99 -2.32 48.98 -3 50 C-3.66 50 -4.32 50 -5 50 C-5.12675467 43.5223479 -5.21433146 37.04501538 -5.2746582 30.56640625 C-5.29980574 28.36250864 -5.33392827 26.15869445 -5.37719727 23.95507812 C-5.43783686 20.78755114 -5.46620749 17.6211264 -5.48828125 14.453125 C-5.51408768 13.46757629 -5.5398941 12.48202759 -5.56648254 11.46661377 C-5.56930051 4.59692793 -5.56930051 4.59692793 -2.46948242 1.34667969 C-1.65455322 0.90227539 -0.83962402 0.45787109 0 0 Z " fill="#569F49" transform="translate(189,230)"/>
<path d="M0 0 C0.66 0 1.32 0 2 0 C3.16833788 2.33667577 3.12676003 3.70779871 3.12939453 6.31030273 C3.13254669 7.20140244 3.13569885 8.09250214 3.13894653 9.01060486 C3.1369223 9.97519119 3.13489807 10.93977753 3.1328125 11.93359375 C3.13376923 12.92247086 3.13472595 13.91134796 3.13571167 14.93019104 C3.13639299 17.02418074 3.13454206 19.11817255 3.13037109 21.2121582 C3.12502784 24.42078393 3.13031481 27.62926931 3.13671875 30.83789062 C3.13605785 32.86979198 3.13477644 34.90169324 3.1328125 36.93359375 C3.13483673 37.89615585 3.13686096 38.85871796 3.13894653 39.85044861 C3.13579437 40.74470047 3.13264221 41.63895233 3.12939453 42.56030273 C3.12820114 43.74039162 3.12820114 43.74039162 3.12698364 44.94432068 C3 47 3 47 2 50 C0.22265625 51.421875 0.22265625 51.421875 -1.9375 52.75 C-2.64777344 53.19859375 -3.35804688 53.6471875 -4.08984375 54.109375 C-5.03537109 54.55023438 -5.03537109 54.55023438 -6 55 C-6.66 54.67 -7.32 54.34 -8 54 C-7.67 47.07 -7.34 40.14 -7 33 C-6.34 33 -5.68 33 -5 33 C-3.4921875 35.1875 -3.4921875 35.1875 -1.875 38 C-1.06675781 39.3921875 -1.06675781 39.3921875 -0.2421875 40.8125 C0.16773438 41.534375 0.57765625 42.25625 1 43 C1.1746397 39.91738544 1.28094067 36.83604167 1.375 33.75 C1.42527344 32.87730469 1.47554688 32.00460937 1.52734375 31.10546875 C1.5846184 28.6044758 1.56114351 26.43970535 1 24 C-1.70131104 21.25264382 -1.70131104 21.25264382 -5 20 C-7.31026274 20.11443256 -7.31026274 20.11443256 -9 21 C-7.02896201 15.68417026 -4.22730738 10.89523807 -1.4609375 5.9609375 C0.22123749 3.10189963 0.22123749 3.10189963 0 0 Z " fill="#3E813D" transform="translate(263,232)"/>
<path d="M0 0 C0.763125 0.45375 1.52625 0.9075 2.3125 1.375 C3.6325 2.035 4.9525 2.695 6.3125 3.375 C6.3125 6.675 6.3125 9.975 6.3125 13.375 C-0.02140119 17.39459114 -0.02140119 17.39459114 -2.8125 17.3125 C-3.43125 17.003125 -4.05 16.69375 -4.6875 16.375 C-5.595 16.065625 -6.5025 15.75625 -7.4375 15.4375 C-9.6875 13.375 -9.6875 13.375 -10.00390625 10.953125 C-10.00031323 8.40926405 -9.90146732 5.909324 -9.6875 3.375 C-3.42887931 -0.79741379 -3.42887931 -0.79741379 0 0 Z " fill="#659960" transform="translate(426.6875,248.625)"/>
<path d="M0 0 C0.66 0.33 1.32 0.66 2 1 C1.34 1.66 0.68 2.32 0 3 C0.40145172 5.95839034 1.58895449 8.42138635 2.9375 11.0625 C3.27652344 11.73410156 3.61554688 12.40570313 3.96484375 13.09765625 C5.08699921 15.22750419 5.08699921 15.22750419 7 18 C7 18.99 7 19.98 7 21 C6.0925 20.690625 5.185 20.38125 4.25 20.0625 C1.86182795 19.28175145 -0.56246334 18.60938416 -3 18 C-3.33 28.56 -3.66 39.12 -4 50 C-4.33 50 -4.66 50 -5 50 C-5.12675467 43.5223479 -5.21433146 37.04501538 -5.2746582 30.56640625 C-5.29980574 28.36250864 -5.33392827 26.15869445 -5.37719727 23.95507812 C-5.43783686 20.78755114 -5.46620749 17.6211264 -5.48828125 14.453125 C-5.51408768 13.46757629 -5.5398941 12.48202759 -5.56648254 11.46661377 C-5.56930051 4.59692793 -5.56930051 4.59692793 -2.46948242 1.34667969 C-1.65455322 0.90227539 -0.83962402 0.45787109 0 0 Z " fill="#528E48" transform="translate(189,230)"/>
<path d="M0 0 C1.9375 1.0625 1.9375 1.0625 3 3 C3.4375 6.5 3.4375 6.5 3 10 C1.4375 12 1.4375 12 -1 13 C-4.625 12.875 -4.625 12.875 -8 12 C-10.31282587 8.53076119 -10.42478586 7.07794425 -10 3 C-7.72054654 -1.02256493 -4.21158603 -0.45124136 0 0 Z " fill="#40553F" transform="translate(330,316)"/>
<path d="M0 0 C1.65 0 3.3 0 5 0 C5 2.31 5 4.62 5 7 C4.34 6.34 3.68 5.68 3 5 C2.67 5.66 2.34 6.32 2 7 C1.34 7 0.68 7 0 7 C0 4.69 0 2.38 0 0 Z " fill="#557C51" transform="translate(324,319)"/>
</svg>
