<?xml version="1.0" encoding="UTF-8"?>
<svg version="1.1" xmlns="http://www.w3.org/2000/svg" width="1024" height="1024">
<path d="M0 0 C13.4531102 9.78408015 20.03457946 22.48972905 27.03125 37.1875 C27.73740726 38.65814425 28.44395722 40.1286 29.15087891 41.59887695 C33.963472 51.63027836 38.67603065 61.70716973 43.3371582 71.80981445 C47.90047143 81.69548844 52.55052444 91.53852251 57.21875 101.375 C58.76445797 104.63274844 60.31003995 107.89055661 61.85546875 111.1484375 C62.23748444 111.95372391 62.61950012 112.75901031 63.01309204 113.58869934 C66.86818968 121.71841241 70.70255554 129.85782538 74.53125 138 C74.85743317 138.69361633 75.18361633 139.38723267 75.51968384 140.10186768 C77.15957701 143.58925724 78.79911678 147.0768128 80.43847656 150.56445312 C83.42489748 156.91741864 86.41457463 163.26885195 89.40396118 169.62042236 C91.07277695 173.16617951 92.74148601 176.71198686 94.41015625 180.2578125 C94.74035263 180.95945526 95.07054901 181.66109802 95.41075134 182.38400269 C97.4011699 186.6136687 99.39107999 190.84357351 101.38058472 195.07366943 C108.54407593 210.30466826 115.71636361 225.53144127 122.90625 240.75 C130.42750386 256.66995163 137.92874385 272.59925159 145.42236328 288.53222656 C148.41562625 294.89629777 151.4105034 301.25960937 154.40524292 307.62298584 C156.07230988 311.16529349 157.73927483 314.70764915 159.40625 318.25 C160.07291618 319.6666669 160.73958284 321.08333356 161.40625 322.5 C171.40625 343.75 171.40625 343.75 181.40625 365 C181.90125755 366.05189011 181.90125755 366.05189011 182.40626526 367.12503052 C183.07288302 368.54159454 183.73949883 369.95815948 184.40611267 371.37472534 C186.07351148 374.91797008 187.74094441 378.46119875 189.40844727 382.00439453 C192.39974547 388.36054412 195.39081351 394.71680141 198.38058472 401.07366943 C205.54407593 416.30466826 212.71636361 431.53144127 219.90625 446.75 C227.42750386 462.66995163 234.92874385 478.59925159 242.42236328 494.53222656 C245.41562625 500.89629777 248.4105034 507.25960937 251.40524292 513.62298584 C253.07230988 517.16529349 254.73927483 520.70764915 256.40625 524.25 C257.07291618 525.6666669 257.73958284 527.08333356 258.40625 528.5 C270.40625 554 282.40625 579.5 294.40625 605 C294.73625504 605.70126007 295.06626007 606.40252014 295.40626526 607.12503052 C296.07288302 608.54159454 296.73949883 609.95815948 297.40611267 611.37472534 C299.07351148 614.91797008 300.74094441 618.46119875 302.40844727 622.00439453 C305.39974547 628.36054412 308.39081351 634.71680141 311.38058472 641.07366943 C318.54407601 656.30466843 325.71644663 671.53140194 332.90625 686.75 C337.11044121 695.64931287 341.31357255 704.54911674 345.5078125 713.453125 C345.84228394 714.1631366 346.17675537 714.87314819 346.5213623 715.60467529 C348.18374145 719.13469165 349.84410848 722.66563555 351.50097656 726.19824219 C354.49528935 732.58020904 357.49855298 738.95698022 360.55111694 745.31134033 C361.93022586 748.18478774 363.30117319 751.06209247 364.67132568 753.93981934 C365.31374986 755.28358742 365.95994021 756.62556338 366.6104126 757.9654541 C372.31471014 769.72024311 377.21921955 781.54395201 376.90625 794.8125 C376.89416504 795.66320068 376.88208008 796.51390137 376.86962891 797.39038086 C376.34150725 814.29187419 368.55978974 828.29493955 356.40625 839.75 C349.72424874 845.67076061 342.60051257 848.59839071 334.23046875 851.3203125 C332.67991539 851.83021477 332.67991539 851.83021477 331.09803772 852.35041809 C316.44419169 857.10916839 301.63937522 861.38179176 286.85237503 865.70362091 C282.55674358 866.96027508 278.26266761 868.22222132 273.96850586 869.48388672 C268.65550643 871.04465019 263.34243022 872.60514717 258.02876282 874.16363525 C241.56115963 878.99381313 225.10361003 883.85765533 208.64836502 888.72974014 C204.9947809 889.81135829 201.34101769 890.89237101 197.68725586 891.97338867 C192.57599826 893.4856541 187.46476879 894.99801447 182.35359859 896.51057529 C172.79717803 899.338617 163.24045129 902.16562286 153.68359375 904.9921875 C152.95059114 905.20898289 152.21758854 905.42577827 151.46237373 905.64914322 C147.75851932 906.7446031 144.05466044 907.84004785 140.35079956 908.93548584 C133.6920275 910.9048635 127.03329501 912.87437498 120.3745594 914.84387589 C116.67679121 915.93758936 112.97902048 917.03129425 109.28125 918.125 C107.80208332 918.56249996 106.32291665 918.99999996 104.84375 919.4375 C54.55208333 934.3125 4.26041667 949.1875 -46.03125 964.0625 C-47.12955155 964.38734989 -47.12955155 964.38734989 -48.25004101 964.7187624 C-49.72907079 965.15622173 -51.20810076 965.5936804 -52.68713093 966.03113842 C-56.38714358 967.12550522 -60.08715284 968.2198835 -63.78715515 969.31428528 C-70.41837307 971.27568195 -77.04961337 973.23700271 -83.68098354 975.19788456 C-87.34593316 976.28160498 -91.01086248 977.36539401 -94.67578125 978.44921875 C-95.40274515 978.66420202 -96.12970905 978.8791853 -96.87870216 979.10068321 C-106.92214079 982.07094776 -116.96463479 985.0443875 -127.00643921 988.02017212 C-132.61288189 989.68156726 -138.21958635 991.34207819 -143.82634544 993.00240517 C-147.61882363 994.12554296 -151.41115996 995.24915425 -155.203125 996.37402344 C-164.0125605 998.98707821 -172.82494865 1001.58977679 -181.64208221 1004.17674255 C-183.62280871 1004.75853533 -185.60297342 1005.34221086 -187.58306885 1005.92614746 C-191.41347668 1007.05477473 -195.24749293 1008.17064281 -199.08203125 1009.28515625 C-200.78301216 1009.78756584 -200.78301216 1009.78756584 -202.51835632 1010.30012512 C-220.0140387 1015.34849911 -236.00916662 1014.61356034 -252.59375 1006.75 C-256.1990627 1004.69879161 -259.3950675 1002.38668082 -262.59375 999.75 C-263.75583984 998.81027344 -263.75583984 998.81027344 -264.94140625 997.8515625 C-273.43753443 990.19813972 -278.88032212 980.27441572 -284.81347656 970.62060547 C-287.56686692 966.18089567 -290.4212165 961.80897849 -293.28125 957.4375 C-294.35570977 955.78921959 -295.42993219 954.14078443 -296.50390625 952.4921875 C-297.02098145 951.6990918 -297.53805664 950.90599609 -298.07080078 950.08886719 C-301.8191445 944.33235344 -305.54355582 938.5603031 -309.27294922 932.79150391 C-310.5672054 930.79102883 -311.86336316 928.79180003 -313.16015625 926.79296875 C-318.62796658 918.36120263 -324.05711293 909.90543695 -329.46875 901.4375 C-335.965356 891.27343041 -342.51745341 881.1471012 -349.10302734 871.04052734 C-352.83948387 865.29938174 -356.55406851 859.54404158 -360.27294922 853.79150391 C-361.5672054 851.79102883 -362.86336316 849.79180003 -364.16015625 847.79296875 C-369.58708525 839.42415885 -374.97440009 831.03087634 -380.34375 822.625 C-386.16033718 813.52089617 -392.03337799 804.45601883 -397.94824219 795.41552734 C-403.22476628 787.34042774 -408.42348338 779.21695544 -413.61328125 771.0859375 C-418.06763642 764.11465543 -422.56442831 757.17277841 -427.09375 750.25 C-433.07795629 741.10280366 -438.99310516 731.91328983 -444.87036133 722.69702148 C-448.33597496 717.2647502 -451.82861939 711.85310628 -455.36816406 706.46875 C-463.83378522 693.55092587 -463.83378522 693.55092587 -466.59375 686.75 C-466.90957031 685.9765625 -467.22539062 685.203125 -467.55078125 684.40625 C-472.44917082 669.91238496 -470.55803881 653.43031279 -464.2265625 639.80859375 C-459.2064219 630.03055871 -453.13091578 620.78982042 -447.30224609 611.48193359 C-444.61450638 607.18416174 -441.9478876 602.87338518 -439.28125 598.5625 C-438.75321777 597.70978516 -438.22518555 596.85707031 -437.68115234 595.97851562 C-433.30585546 588.91022678 -428.948481 581.83097298 -424.59375 574.75 C-417.09730608 562.5604717 -409.56930326 550.39075832 -402.03027344 538.22753906 C-394.84430548 526.632508 -387.68148138 515.02352403 -380.53588867 503.40356445 C-375.88019766 495.83464695 -371.2086335 488.27575966 -366.52734375 480.72265625 C-362.2019938 473.74045744 -357.89611377 466.74638156 -353.59375 459.75 C-346.09735465 447.56044197 -338.56930314 435.39075813 -331.03027344 423.22753906 C-323.84430548 411.632508 -316.68148138 400.02352403 -309.53588867 388.40356445 C-304.88019766 380.83464695 -300.2086335 373.27575966 -295.52734375 365.72265625 C-291.2019938 358.74045744 -286.89611377 351.74638156 -282.59375 344.75 C-275.09735465 332.56044197 -267.56930314 320.39075813 -260.03027344 308.22753906 C-252.84430548 296.632508 -245.68148138 285.02352403 -238.53588867 273.40356445 C-233.88019766 265.83464695 -229.2086335 258.27575966 -224.52734375 250.72265625 C-220.2019938 243.74045744 -215.89611377 236.74638156 -211.59375 229.75 C-204.09735465 217.56044197 -196.56930314 205.39075813 -189.03027344 193.22753906 C-182.53414571 182.7456105 -176.05375546 172.25423644 -169.59375 161.75 C-162.09730608 149.5604717 -154.56930326 137.39075832 -147.03027344 125.22753906 C-139.84430548 113.632508 -132.68148138 102.02352403 -125.53588867 90.40356445 C-120.88105301 82.83603752 -116.21110989 75.27806261 -111.52954102 67.72705078 C-107.87190553 61.82422874 -104.23259771 55.9103586 -100.59985352 49.9921875 C-97.90012485 45.59768051 -95.1921961 41.20825699 -92.48339844 36.81933594 C-90.72300409 33.95994605 -88.97408153 31.09383073 -87.2265625 28.2265625 C-77.01235 11.58483885 -66.62922202 -0.73432217 -47.59375 -7.25 C-31.49407903 -10.94693691 -13.91453036 -9.03540933 0 0 Z M-22.59375 122.75 C-25.87978709 127.08816196 -27.34323656 130.71314519 -28.43603516 136.02416992 C-28.58762053 136.74236719 -28.73920591 137.46056446 -28.89538479 138.20052528 C-29.40371541 140.6247509 -29.89306322 143.05242633 -30.3828125 145.48046875 C-30.75253063 147.26242414 -31.12345644 149.04412931 -31.49546814 150.8256073 C-32.31246653 154.75082424 -33.12099024 158.67766501 -33.92337036 162.605896 C-35.252084 169.10996257 -36.59938395 175.61010134 -37.94897461 182.10986328 C-39.73267262 190.70691446 -41.51143454 199.30496497 -43.28526974 207.90405655 C-47.34678595 227.59196254 -51.44929105 247.27123857 -55.55859375 266.94921875 C-55.90824142 268.62373193 -56.25788447 270.29824606 -56.60752296 271.97276115 C-58.03193445 278.79457028 -59.45641061 285.6163659 -60.88108158 292.43812084 C-63.4521127 304.74951966 -66.02043735 317.06148118 -68.5871582 329.3737793 C-68.77023069 330.25195253 -68.95330317 331.13012577 -69.14192331 332.03491032 C-69.88059728 335.57826444 -70.61925547 339.12162186 -71.35789531 342.66498309 C-79.38697764 381.18159659 -87.42898928 419.69549549 -95.47933722 458.20766926 C-97.89921107 469.7842323 -100.31886264 481.36084181 -102.73828125 492.9375 C-102.87857293 493.60877505 -103.01886462 494.2800501 -103.16340756 494.97166681 C-107.71074606 516.73024539 -112.25349974 538.48977829 -116.79296875 560.25 C-116.94315539 560.96992882 -117.09334203 561.68985764 -117.24807978 562.43160248 C-119.53016621 573.37102736 -121.81197495 584.31051017 -124.09375 595.25 C-131.9205039 632.77364794 -139.74932394 670.29685976 -147.59133911 707.81732178 C-147.73867567 708.52226359 -147.88601224 709.22720541 -148.03781354 709.95350909 C-148.25855651 711.00966729 -148.25855651 711.00966729 -148.48375893 712.08716202 C-148.63074077 712.79040619 -148.77772261 713.49365037 -148.92915845 714.21820498 C-149.22557341 715.63641444 -149.52199175 717.0546232 -149.8184135 718.47283125 C-151.85869347 728.23457004 -153.89732127 737.9966524 -155.9346664 747.75900412 C-157.21780141 753.9071199 -158.50141756 760.05513524 -159.78515625 766.203125 C-159.925268 766.87418683 -160.06537974 767.54524866 -160.2097373 768.2366457 C-164.23971393 787.53715924 -168.29400222 806.83241785 -172.36763281 826.12376308 C-173.3802109 830.91988476 -174.39094083 835.71639293 -175.40034485 840.51318359 C-175.61015007 841.51019523 -175.61015007 841.51019523 -175.82419378 842.52734852 C-176.5198029 845.83332175 -177.21515045 849.13934987 -177.91030216 852.44541931 C-179.50610453 860.03184047 -181.11054822 867.61636405 -182.72171879 875.19953537 C-183.70282128 879.82738502 -184.6756181 884.4569511 -185.6460743 889.08704376 C-186.09412206 891.21615117 -186.54563891 893.34453207 -187.00094414 895.4720993 C-187.62159235 898.37438693 -188.22973576 901.27903336 -188.83496094 904.18457031 C-189.10571174 905.42838093 -189.10571174 905.42838093 -189.38193226 906.69731903 C-190.76136559 913.42665155 -191.69669207 920.37629484 -189.53125 927 C-186.0816172 931.89625301 -181.53386497 936.26497126 -175.59375 937.75 C-170.41895057 938.01360172 -166.02966937 937.28259195 -161.11743164 935.77587891 C-160.39745499 935.56346054 -159.67747833 935.35104218 -158.9356842 935.13218689 C-156.5389851 934.4226278 -154.14657181 933.69959551 -151.75390625 932.9765625 C-150.03422463 932.46459174 -148.31428251 931.95349529 -146.59410095 931.44320679 C-142.89285209 930.34329509 -139.19344544 929.23745833 -135.49536133 928.12695312 C-129.57326495 926.34866878 -123.6473164 924.58347535 -117.72070312 922.8203125 C-110.49037505 920.66842423 -103.26094829 918.51355806 -96.03267479 916.35477829 C-83.45374125 912.5983253 -70.86814215 908.86491689 -58.27734375 905.1484375 C-57.37913029 904.88329849 -56.48091682 904.61815948 -55.55548477 904.34498596 C-51.04051515 903.01238224 -46.52541388 901.6802252 -42.01025391 900.3482666 C-33.79730051 897.92521965 -25.58557632 895.4980121 -17.37372208 893.07124329 C-12.79070475 891.71691319 -8.20761243 890.36283695 -3.62451172 889.00878906 C-2.716145 888.74041733 -1.80777828 888.47204559 -0.8718853 888.19554138 C8.37513865 885.46363647 17.62241154 882.73257461 26.86968613 880.00151825 C35.19443498 877.54288499 43.51911518 875.08401932 51.84375 872.625 C53.21398819 872.22024445 53.21398819 872.22024445 54.61190796 871.80731201 C83.36151959 863.3147306 112.10631842 854.8060142 140.84753418 846.2850647 C160.55569915 840.44222031 180.26611321 834.60708249 199.98046875 828.78515625 C200.96951832 828.49305645 201.95856789 828.20095665 202.97758865 827.90000534 C211.70911352 825.32131286 220.44066523 822.74271162 229.17285156 820.16625977 C230.07428579 819.90027292 230.97572002 819.63428608 231.90447044 819.36023903 C233.69268643 818.83262001 235.48092596 818.30508081 237.26918983 817.77762413 C241.55165765 816.51408326 245.83335779 815.24805335 250.1133728 813.97622681 C251.74792052 813.49074145 253.38249251 813.00533782 255.01708984 812.52001953 C255.80782583 812.28523203 256.59856182 812.05044453 257.41325951 811.80854225 C261.98852444 810.4539198 266.57052309 809.12661493 271.16145229 807.82608509 C273.94912569 807.03489032 276.73321481 806.23153223 279.51693153 805.42654228 C281.37979147 804.89320742 283.24770336 804.37761508 285.11576843 803.86280823 C293.25320782 801.49923373 300.36033141 798.61257469 304.84375 791.0625 C307.54957823 785.32614415 308.64604339 780.35194468 306.55053711 774.26391602 C302.78202895 765.44524808 298.71569977 756.78221817 294.59375 748.125 C293.83959772 746.53547431 293.08577935 744.94579016 292.33227539 743.35595703 C291.1706792 740.90519876 290.00888053 738.45453883 288.84605408 736.00436401 C285.32407503 728.58305927 281.82280957 721.15211018 278.32778931 713.71807861 C277.33819649 711.61318753 276.34823176 709.50847175 275.3581543 707.40380859 C274.03536447 704.59185203 272.71269749 701.77983774 271.39013672 698.96777344 C269.39735736 694.73086212 267.40386306 690.49428746 265.41015625 686.2578125 C265.07995483 685.55615967 264.74975342 684.85450684 264.4095459 684.1315918 C263.40845901 682.004389 262.40735744 679.87719312 261.40625 677.75 C254.06727794 662.15585869 254.06727794 662.15585869 250.43191528 654.42633057 C243.26842407 639.19533174 236.09613639 623.96855873 228.90625 608.75 C221.38499614 592.83004837 213.88375615 576.90074841 206.39013672 560.96777344 C203.39687375 554.60370223 200.4019966 548.24039063 197.40725708 541.87701416 C195.74019012 538.33470651 194.07322517 534.79235085 192.40625 531.25 C191.73958382 529.8333331 191.07291716 528.41666644 190.40625 527 C183.73958333 512.83333333 177.07291667 498.66666667 170.40625 484.5 C169.91124245 483.44810989 169.91124245 483.44810989 169.40623474 482.37496948 C168.73961698 480.95840546 168.07300117 479.54184052 167.40638733 478.12527466 C165.73898852 474.58202992 164.07155559 471.03880125 162.40405273 467.49560547 C159.41275453 461.13945588 156.42168649 454.78319859 153.43191528 448.42633057 C146.26842407 433.19533174 139.09613639 417.96855873 131.90625 402.75 C124.38499614 386.83004837 116.88375615 370.90074841 109.39013672 354.96777344 C106.39687375 348.60370223 103.4019966 342.24039063 100.40725708 335.87701416 C98.74019012 332.33470651 97.07322517 328.79235085 95.40625 325.25 C94.73958382 323.8333331 94.07291716 322.41666644 93.40625 321 C92.07291667 318.16666667 90.73958333 315.33333333 89.40625 312.5 C89.07624496 311.79873993 88.74623993 311.09747986 88.40623474 310.37496948 C87.73961698 308.95840546 87.07300117 307.54184052 86.40638733 306.12527466 C84.73898852 302.58202992 83.07155559 299.03880125 81.40405273 295.49560547 C78.41275453 289.13945588 75.42168649 282.78319859 72.43191528 276.42633057 C65.26842407 261.19533174 58.09613639 245.96855873 50.90625 230.75 C45.37667957 219.04576885 39.85433256 207.33818389 34.34375 195.625 C34.01784882 194.93227997 33.69194763 194.23955994 33.35617065 193.52584839 C31.03918121 188.60072983 28.72268362 183.67537999 26.40625 178.75 C25.34795858 176.49981944 24.28964758 174.2496481 23.23126221 171.99951172 C22.52211851 170.49175501 21.81309266 168.98394287 21.10418701 167.47607422 C19.38403297 163.81789392 17.6615645 160.16084286 15.93359375 156.50634766 C13.12378347 150.5597913 10.32666869 144.61287612 7.6484375 138.60546875 C7.24939209 137.7230249 6.85034668 136.84058105 6.43920898 135.93139648 C5.74678489 134.39454523 5.06742155 132.85168263 4.40649414 131.30102539 C2.13506939 126.30072348 -0.9098073 122.69938103 -5.59375 119.75 C-11.86061809 117.79185357 -17.4387873 118.52226828 -22.59375 122.75 Z " fill="#000000" transform="translate(558.59375,8.25)"/>
</svg>
