<?xml version="1.0" encoding="UTF-8"?>
<svg version="1.1" xmlns="http://www.w3.org/2000/svg" width="400" height="400">
<path d="M0 0 C3.48982991 2.85401158 6.76993795 5.85723692 10 9 C10.62261719 9.57234375 11.24523437 10.1446875 11.88671875 10.734375 C35.27158958 32.80548905 45.06124856 66.99752659 48 98 C48 99.32 48 100.64 48 102 C39.64284994 99.74868611 31.31785366 97.39214186 23 95 C22.67128906 93.25589844 22.67128906 93.25589844 22.3359375 91.4765625 C18.17874502 70.1557829 11.77723089 48.21263538 -2.8203125 31.49609375 C-4 30 -4 30 -4 28 C-4.66 28 -5.32 28 -6 28 C-7.35386936 26.34997172 -8.68678142 24.6825613 -10 23 C-10.66 22.67 -11.32 22.34 -12 22 C-12 21.34 -12 20.68 -12 20 C-12.57234375 19.72800781 -13.1446875 19.45601562 -13.734375 19.17578125 C-16.0289741 17.98496344 -18.09587584 16.61479555 -20.25 15.1875 C-35.40962293 6.14062825 -51.4521582 4.82290644 -68.4296875 8.9609375 C-79.64093382 12.2237291 -93.26759264 16.23663904 -101.69921875 24.70703125 C-103 26 -103 26 -105 26 C-105 26.66 -105 27.32 -105 28 C-105.66 28 -106.32 28 -107 28 C-107 28.66 -107 29.32 -107 30 C-107.66 30 -108.32 30 -109 30 C-109 30.66 -109 31.32 -109 32 C-109.66 32 -110.32 32 -111 32 C-111.42321533 32.87567627 -111.42321533 32.87567627 -111.85498047 33.76904297 C-112.91436004 35.83313904 -114.06260507 37.74761632 -115.3203125 39.6953125 C-139.00815099 76.93970011 -144.10769966 119.85695619 -134.8046875 162.78051758 C-130.93340757 179.39647662 -125.18556188 196.21826791 -116.265625 210.84375 C-115 213 -115 213 -115 215 C-114.31035156 214.95359375 -113.62070313 214.9071875 -112.91015625 214.859375 C-104.22102021 214.52563589 -98.17684628 216.3701511 -91.25 221.625 C-84.96536769 227.5287455 -82.69380599 233.96116922 -82.375 242.5 C-82.69380599 251.03883078 -84.96536769 257.4712545 -91.25 263.375 C-98.99391751 269.23706229 -106.30613005 271.20381392 -116 270 C-124.16043718 268.22189608 -129.43154562 263.91583993 -134 257 C-136.88955337 251.18008037 -138.81770435 245.54163481 -138 239 C-137.67 238.24976563 -137.34 237.49953125 -137 236.7265625 C-135.52441119 233.1135399 -134.3363191 230.00797873 -135.61230469 226.14746094 C-137.67089209 221.70152995 -140.24408812 217.53219682 -142.71582031 213.30761719 C-151.16800762 198.11939011 -156.38347817 180.67974119 -160.25 163.8125 C-160.40114258 163.16144287 -160.55228516 162.51038574 -160.70800781 161.83959961 C-163.36212218 149.52313097 -164.33777225 137.1434681 -164.26074219 124.57275391 C-164.25000015 122.50002835 -164.26073653 120.42816888 -164.2734375 118.35546875 C-164.28814777 105.47382617 -163.09328309 92.74247336 -159.8125 80.25 C-159.59891846 79.42346924 -159.38533691 78.59693848 -159.1652832 77.74536133 C-150.55252633 45.41622891 -134.27946369 14.65036039 -104.8984375 -3.28271484 C-70.8138128 -22.98979736 -32.21223178 -23.59370487 0 0 Z " fill="#7247B6" transform="translate(254,37)"/>
<path d="M0 0 C3.26183503 2.26551577 6.18823554 4.58197894 8.17749023 8.05688477 C9.91099623 10.28623168 9.91099623 10.28623168 12.98901367 10.57421875 C14.20306885 10.61160156 15.41712402 10.64898437 16.66796875 10.6875 C17.66302933 10.72905716 17.66302933 10.72905716 18.67819214 10.77145386 C20.10484257 10.83081389 21.53183065 10.88246128 22.95901489 10.92718506 C26.71739841 11.04998887 30.47166888 11.24401632 34.2265625 11.4453125 C34.97754715 11.48536407 35.7285318 11.52541565 36.50227356 11.56668091 C46.81050905 12.16288647 56.90171397 13.89512685 67 16 C67.76038574 16.15726563 68.52077148 16.31453125 69.30419922 16.4765625 C79.58261791 18.66929182 89.26907133 22.10241786 99 26 C100.06089844 26.4125 101.12179687 26.825 102.21484375 27.25 C117.8698894 33.50378959 132.68922252 42.31631221 145.66796875 53.078125 C148.82451657 55.6795011 152.10146658 58.1135478 155.3828125 60.5546875 C155.91648437 61.03164062 156.45015625 61.50859375 157 62 C157 62.66 157 63.32 157 64 C157.66 64 158.32 64 159 64 C159 64.66 159 65.32 159 66 C159.66 66 160.32 66 161 66 C161 66.66 161 67.32 161 68 C161.66 68 162.32 68 163 68 C163 68.66 163 69.32 163 70 C163.66 70 164.32 70 165 70 C165 70.66 165 71.32 165 72 C165.66 72 166.32 72 167 72 C189.68630683 95.93333426 204.08709355 127.69472473 203.25390625 160.9140625 C202.24686862 182.01630822 194.17661263 202.27940857 178.85546875 217.0703125 C176.93967994 218.76928662 175.0070764 220.41036176 173 222 C172.30390625 222.55816406 171.6078125 223.11632812 170.890625 223.69140625 C169 225 169 225 167 225 C167 225.66 167 226.32 167 227 C145.54472208 239.62259416 125.01633598 247.43877678 99.75 247.3125 C98.57195801 247.30758545 97.39391602 247.3026709 96.18017578 247.29760742 C86.83633241 247.17275821 78.04869963 246.31592956 69 244 C68.30261719 243.82307617 67.60523438 243.64615234 66.88671875 243.46386719 C56.59848079 240.7805835 46.78163258 237.14331162 37 233 C37.33 232.01 37.66 231.02 38 230 C38.66 230 39.32 230 40 230 C40 229.34 40 228.68 40 228 C41.63753983 226.68523023 43.33762273 225.44789592 45.0625 224.25 C48.54510166 221.80457881 51.78606888 219.36205341 54.875 216.4375 C58 214 58 214 60.40625 214.234375 C62.89044327 214.96766096 65.2283592 215.83276573 67.625 216.8125 C90.0691143 224.96042979 116.6746076 227.07018687 138.94921875 217.33984375 C156.82655711 208.86927326 169.24747608 193.75788654 176.00390625 175.25 C182.39932069 153.99374331 176.57802559 133.52110645 166.75 114.375 C162.48283234 106.75505774 157.45471414 98.39660917 151.203125 92.2265625 C150 91 150 91 150 89 C149.34 89 148.68 89 148 89 C148 88.34 148 87.68 148 87 C147.34 87 146.68 87 146 87 C146 86.34 146 85.68 146 85 C145.34 85 144.68 85 144 85 C144 84.34 144 83.68 144 83 C143.34 83 142.68 83 142 83 C142 82.34 142 81.68 142 81 C141.34 81 140.68 81 140 81 C140 80.34 140 79.68 140 79 C139.17822266 78.63261719 139.17822266 78.63261719 138.33984375 78.2578125 C135.49639769 76.72928223 133.10978567 74.85891041 130.5625 72.875 C124.31396153 68.10893715 117.80073459 63.94552422 111 60 C109.87207031 59.34128906 108.74414062 58.68257812 107.58203125 58.00390625 C77.5918799 40.98571835 44.93548891 36.0456075 11 35 C10.71125 35.76699219 10.4225 36.53398437 10.125 37.32421875 C8.83592692 40.39024325 7.238959 42.55113859 5 45 C4.34 45 3.68 45 3 45 C3 45.66 3 46.32 3 47 C-5.69421007 51.63835029 -13.72883609 53.66486288 -23.5 51 C-30.72378716 48.33860473 -36.43263706 42.7324713 -40 36 C-43.06242013 27.64794511 -42.44308189 20.10311513 -39 12 C-35.25472408 5.17824742 -29.70325107 -0.1029571 -22.23046875 -2.53125 C-14.65832042 -4.12259466 -6.9330041 -3.51882661 0 0 Z " fill="#7248B6" transform="translate(192,134)"/>
<path d="M0 0 C0.81399927 3.39547574 1.6259338 6.79144197 2.4375 10.1875 C2.66759766 11.14720703 2.89769531 12.10691406 3.13476562 13.09570312 C3.35712891 14.02705078 3.57949219 14.95839844 3.80859375 15.91796875 C4.01282959 16.77156982 4.21706543 17.6251709 4.42749023 18.50463867 C4.61641846 19.32810791 4.80534668 20.15157715 5 21 C5.24041016 21.87213135 5.48082031 22.7442627 5.72851562 23.64282227 C5.81810547 24.42069092 5.90769531 25.19855957 6 26 C4.06891628 28.19121386 2.28625065 29.90437699 0.0625 31.75 C-1.14994361 32.81190641 -2.35958196 33.87702422 -3.56640625 34.9453125 C-4.15824707 35.46512695 -4.75008789 35.98494141 -5.35986328 36.52050781 C-21.81401262 51.36304205 -33.19778364 73.50060992 -35.23828125 95.578125 C-35.77019172 114.72690187 -28.89132648 131.2237955 -17 146 C-16.48050781 146.64710938 -15.96101563 147.29421875 -15.42578125 147.9609375 C-7.5361206 156.74489217 4.75556725 162.1465133 16 165 C16.67361572 165.17515137 17.34723145 165.35030273 18.04125977 165.53076172 C25.7889365 167.33284609 33.51531268 167.39993941 41.4375 167.375 C42.14686707 167.3737915 42.85623413 167.37258301 43.58709717 167.37133789 C55.14282486 167.31799125 65.92754397 166.46980689 77 163 C77.86206055 162.73687012 78.72412109 162.47374023 79.61230469 162.20263672 C92.6753406 158.11146613 104.23987246 152.51650821 115.84619141 145.30322266 C118.82514504 143.50072271 121.8785631 141.84621395 124.94604492 140.19995117 C127.07433547 139.01506696 127.07433547 139.01506696 129.13793945 137.3527832 C131 136 131 136 133 136 C133 135.34 133 134.68 133 134 C138.41176471 130 138.41176471 130 141 130 C141 129.34 141 128.68 141 128 C142.38997745 126.79696095 143.84048901 125.66364664 145.3125 124.5625 C160.08215365 112.98009178 170.49943256 98.97399329 180 83 C180.99 81.515 180.99 81.515 182 80 C182.57443786 76.45763317 182.14259976 75.21389964 180.125 72.1875 C175.94350012 65.91525018 175.20534221 59.10481257 176.359375 51.69140625 C178.10125358 44.14718889 182.14714453 38.9726586 188 34 C194.48914917 29.94558796 201.47489224 28.9097145 209 30 C213.74948453 31.41165235 217.87932627 33.25288418 222 36 C222 36.66 222 37.32 222 38 C222.66 38 223.32 38 224 38 C224 38.66 224 39.32 224 40 C224.66 40 225.32 40 226 40 C226.6509259 41.24735567 227.29551669 42.49801832 227.9375 43.75 C228.29714844 44.44609375 228.65679687 45.1421875 229.02734375 45.859375 C231.84290895 52.05587993 232.00274078 59.19067498 230.28125 65.73046875 C227.191234 73.96635818 222.94344146 78.8813524 215.203125 83.0078125 C213 84 213 84 209.8125 84.625 C204.89494351 87.02913873 203.35862008 92.25312893 201 97 C190.83375037 115.68723664 175.57202989 136.46211921 158 149 C157.34 149 156.68 149 156 149 C156 149.66 156 150.32 156 151 C153.57592771 152.84061072 151.15161924 154.56043578 148.625 156.25 C147.88765625 156.74798096 147.1503125 157.24596191 146.390625 157.7590332 C108.31679414 183.32110188 62.27812773 198.80608105 16.28588867 190.43212891 C-7.02228825 185.68361039 -28.25673402 173.5303152 -42.6875 154.375 C-57.51291214 131.96205381 -61.04184662 102.60124143 -55.86572266 76.46728516 C-55.08576819 73.24114512 -54.09692176 70.13164391 -53 67 C-52.77505859 66.35337402 -52.55011719 65.70674805 -52.31835938 65.04052734 C-46.47658184 48.58135936 -37.6890251 34.7575312 -25.78515625 21.99609375 C-23.95116302 20.12140655 -23.95116302 20.12140655 -23 18 C-22.34 18 -21.68 18 -21 18 C-21 17.34 -21 16.68 -21 16 C-20.34 16 -19.68 16 -19 16 C-19 15.34 -19 14.68 -19 14 C-3.78978389 0 -3.78978389 0 0 0 Z " fill="#7247B6" transform="translate(71,188)"/>
</svg>
