<?xml version="1.0" encoding="UTF-8"?>
<svg version="1.1" xmlns="http://www.w3.org/2000/svg" width="512" height="512">
<path d="M0 0 C11.1427692 8.05685638 21.81812361 16.88329559 31.9375 26.1875 C35.68105756 24.10332079 38.59953212 21.77262208 41.6875 18.8125 C68.8043463 -6.1291982 103.93378987 -28.89432367 141.859375 -28.1171875 C154.26011273 -27.56594236 164.00462239 -22.18519661 172.4140625 -13.15234375 C185.23631295 2.7789808 189.35524169 24.13756167 189.9375 44.1875 C189.97746094 45.2703125 190.01742188 46.353125 190.05859375 47.46875 C190.42469394 66.93666615 190.83399591 96.39450819 181.9375 114.1875 C183.16726563 114.42339844 184.39703125 114.65929687 185.6640625 114.90234375 C191.76940822 116.26478228 197.49480702 118.48035178 203.3125 120.75 C204.4557373 121.19472656 205.59897461 121.63945312 206.77685547 122.09765625 C237.58189534 134.23859289 271.76273531 151.54891494 286.3125 183.125 C290.36559566 192.55285296 290.7096985 205.32917062 287.375 215.0625 C286.60646127 216.7910564 285.79278695 218.50018164 284.9375 220.1875 C284.52113281 221.10144531 284.10476563 222.01539063 283.67578125 222.95703125 C272.85403863 244.17446363 250.37013177 257.54881697 229.9375 268.1875 C229.29296875 268.52346191 228.6484375 268.85942383 227.984375 269.20556641 C214.05850791 276.34605476 198.38020276 283.41693842 182.9375 286.1875 C183.07849121 286.88609131 183.21948242 287.58468262 183.36474609 288.30444336 C184.02095286 291.57660951 184.66672198 294.85076034 185.3125 298.125 C185.53421875 299.22263672 185.7559375 300.32027344 185.984375 301.45117188 C188.88034995 316.22916168 190.29430834 330.71929977 190.25317383 345.77148438 C190.25000111 348.186653 190.2736513 350.60060497 190.29882812 353.015625 C190.38935277 375.24506503 186.32659502 399.16203524 170.75 416.0625 C160.20670937 425.97607191 147.51970136 428.82730335 133.51171875 428.5 C95.13991171 426.54100538 61.55486775 398.23727465 33.9375 374.1875 C29.53543193 377.35698901 25.35885978 380.65829724 21.28344727 384.24121094 C1.97957509 401.16530372 -19.73016627 415.63664974 -44.0625 424.1875 C-45.25488281 424.61933594 -46.44726562 425.05117188 -47.67578125 425.49609375 C-55.30573846 427.9059928 -62.40789463 428.55626628 -70.375 428.625 C-71.28209717 428.63523193 -72.18919434 428.64546387 -73.1237793 428.65600586 C-85.29418747 428.49728553 -95.16834388 424.2712904 -104.2890625 416.22265625 C-121.68645088 398.18713973 -124.66286289 369.19285485 -124.25 345.32421875 C-123.46435562 325.65855794 -121.92847584 305.06860974 -116.0625 286.1875 C-116.60994873 286.07865479 -117.15739746 285.96980957 -117.72143555 285.85766602 C-123.29389129 284.69280239 -128.54810502 283.12279924 -133.875 281.125 C-134.68831787 280.82118408 -135.50163574 280.51736816 -136.33959961 280.2043457 C-168.38781057 268.01872582 -204.68124496 250.76669374 -220.0625 218.1875 C-220.44019531 217.44628906 -220.81789062 216.70507812 -221.20703125 215.94140625 C-224.9922909 207.07456516 -224.49769533 194.17602351 -221.4375 185.1875 C-220.69698879 183.49748313 -219.90547749 181.82881132 -219.0625 180.1875 C-218.42634766 178.93259766 -218.42634766 178.93259766 -217.77734375 177.65234375 C-214.09511325 171.01612332 -209.28932703 165.64601263 -204.0625 160.1875 C-203.52109375 159.58292969 -202.9796875 158.97835937 -202.421875 158.35546875 C-181.57444341 135.87604126 -147.59146182 123.13427723 -119.0625 114.1875 C-118.4025 114.1875 -117.7425 114.1875 -117.0625 114.1875 C-117.20349121 113.46908936 -117.34448242 112.75067871 -117.48974609 112.01049805 C-124.84925351 74.22144666 -133.12318413 25.46548523 -110.0625 -8.8125 C-81.28331377 -46.09705911 -30.77692064 -21.72411302 0 0 Z M-88.3125 3.0625 C-103.31205653 21.67029976 -101.52528338 51.53997998 -99.18530273 73.86694336 C-97.86879971 85.1516245 -95.83372838 96.17292224 -93.0625 107.1875 C-86.49799113 106.12485218 -79.94911895 104.99553042 -73.41015625 103.78515625 C-72.74472809 103.66245865 -72.07929993 103.53976105 -71.39370728 103.41334534 C-67.83611702 102.75646474 -64.28084094 102.08912406 -60.72753906 101.40942383 C-54.38211239 100.21245939 -48.15937875 99.08178197 -41.69921875 98.7265625 C-31.440289 98.23566277 -31.440289 98.23566277 -23.21875 92.61328125 C-20.28827485 89.02619358 -17.79311196 85.21170247 -15.37353516 81.26708984 C-13.62417501 78.49222025 -11.61038121 76.00771763 -9.5 73.5 C-8.79875 72.65308594 -8.0975 71.80617188 -7.375 70.93359375 C-0.05843141 62.24516855 7.34095814 53.63306713 14.9375 45.1875 C10.89969757 40.15943448 6.60168719 35.95138722 1.5625 31.9375 C0.86769531 31.38030273 0.17289062 30.82310547 -0.54296875 30.24902344 C-19.59846064 15.15055036 -65.48724282 -20.32051723 -88.3125 3.0625 Z M49.9375 44.1875 C53.15375961 48.01224115 56.43732586 51.74718947 59.8359375 55.41162109 C84.83292335 82.38523324 84.83292335 82.38523324 91.04931641 94.32250977 C94.15633287 97.39136142 97.97672205 97.39967945 102.1875 97.96875 C103.578479 98.17908875 103.578479 98.17908875 104.99755859 98.39367676 C107.97538981 98.84124883 110.95594822 99.2654913 113.9375 99.6875 C117.81373802 100.25221999 121.68840343 100.82703458 125.5625 101.40625 C126.51318359 101.54683838 127.46386719 101.68742676 128.44335938 101.83227539 C135.72114552 102.93449983 142.90577355 104.33675566 150.08837891 105.9432373 C153.10398937 106.61546575 155.8363972 107.1875 158.9375 107.1875 C159.57038324 104.18898525 160.19378116 101.18894458 160.8125 98.1875 C160.98652344 97.36765625 161.16054688 96.5478125 161.33984375 95.703125 C164.11523162 82.1345621 165.29168995 68.81506716 165.25317383 54.99633789 C165.24999699 52.62274842 165.27365936 50.25039165 165.29882812 47.87695312 C165.36657994 31.57103353 163.69262998 13.01432307 151.73046875 0.74609375 C145.99445384 -4.24011529 140.24305698 -4.41721553 132.85546875 -4.20703125 C101.11264393 -1.01059525 72.52614885 23.41849231 49.9375 44.1875 Z M30.30859375 63.55078125 C24.77884561 69.12521423 19.84545573 75.06494917 14.9375 81.1875 C14.08260359 82.22680509 13.22580697 83.26454984 12.3671875 84.30078125 C11.54476562 85.29464844 10.72234375 86.28851563 9.875 87.3125 C9.12089844 88.22257812 8.36679688 89.13265625 7.58984375 90.0703125 C5.83495853 91.87128029 5.83495853 91.87128029 5.9375 93.1875 C23.7575 93.5175 41.5775 93.8475 59.9375 94.1875 C57.98787063 90.28824127 55.69139668 87.32404582 52.875 84.0625 C52.38765381 83.49208984 51.90030762 82.92167969 51.39819336 82.33398438 C47.64315521 77.95728355 43.80565589 73.65853372 39.91015625 69.40625 C37.9375 67.1875 37.9375 67.1875 35.80859375 64.40625 C35.19113281 63.6740625 34.57367188 62.941875 33.9375 62.1875 C31.83910154 61.97356302 31.83910154 61.97356302 30.30859375 63.55078125 Z M13.65820312 117.10253906 C-1.96607892 116.17394643 -1.96607892 116.17394643 -16.37792969 120.64599609 C-20.36488686 124.56816787 -22.53870972 129.32261208 -24.75585938 134.39208984 C-26.65837728 138.4623122 -29.05400227 142.17276545 -31.44189453 145.97241211 C-37.8005174 156.13673261 -43.58721573 166.62494817 -49.25 177.1875 C-50.18549683 178.93135986 -50.18549683 178.93135986 -51.13989258 180.71044922 C-52.80852204 183.85616974 -54.44777228 187.01381553 -56.0625 190.1875 C-56.50674316 191.05632812 -56.95098633 191.92515625 -57.40869141 192.8203125 C-57.97402588 193.99207031 -57.97402588 193.99207031 -58.55078125 195.1875 C-59.03285034 196.1775 -59.03285034 196.1775 -59.5246582 197.1875 C-61.22810019 203.52186076 -56.2343843 210.3757734 -53.5 215.8125 C-52.92354736 216.95895996 -52.34709473 218.10541992 -51.75317383 219.28662109 C-45.14861868 232.28734578 -37.76368902 244.80808577 -30.0625 257.1875 C-29.52734772 258.05060791 -29.52734772 258.05060791 -28.98138428 258.93115234 C-26.50566606 262.91751343 -23.98409051 266.87101654 -21.4375 270.8125 C-20.78676514 271.84455566 -20.13603027 272.87661133 -19.46557617 273.93994141 C-18.84529541 274.88015137 -18.22501465 275.82036133 -17.5859375 276.7890625 C-17.04888184 277.61744629 -16.51182617 278.44583008 -15.95849609 279.29931641 C-13.38940277 281.85782371 -11.64497728 281.90034045 -8.0625 282.1875 C-6.92039063 282.29046387 -5.77828125 282.39342773 -4.6015625 282.49951172 C6.86737378 283.21059721 18.30462443 283.34117237 29.79394531 283.31787109 C32.93299181 283.3125077 36.07189529 283.31785252 39.2109375 283.32421875 C60.38760683 284.02846396 60.38760683 284.02846396 80.9375 280.1875 C82.78593897 278.13881347 84.04638828 276.45056575 85.4375 274.125 C85.84637451 273.476521 86.25524902 272.82804199 86.67651367 272.15991211 C88.1203873 269.84955589 89.52842501 267.51923204 90.9375 265.1875 C92.11036015 263.28365888 93.28355604 261.38002457 94.45703125 259.4765625 C102.60977394 246.14980055 110.28472262 232.59741346 117.56738281 218.77685547 C118.80592892 216.43615341 120.06696346 214.10944501 121.3359375 211.78515625 C121.99612061 210.54497736 122.65510183 209.30415739 123.3125 208.0625 C123.85648438 207.04929687 124.40046875 206.03609375 124.9609375 204.9921875 C126.72645891 199.92161001 125.08506155 196.30083557 122.92578125 191.6328125 C122.04491003 189.85385764 121.15219367 188.08073671 120.25 186.3125 C119.76305664 185.35069824 119.27611328 184.38889648 118.77441406 183.39794922 C109.11114123 164.57311532 98.06595287 146.3210389 86.4765625 128.62280273 C84.9375 126.1875 84.9375 126.1875 83.8828125 124.00415039 C82.74363859 121.85307997 81.90557177 120.63435746 79.9375 119.1875 C75.34122291 117.99834341 70.79293945 117.88081423 66.0625 117.75 C64.67170744 117.69045649 63.28099988 117.62889716 61.89038086 117.56542969 C57.5736553 117.38374885 53.25693963 117.27915425 48.9375 117.1875 C47.6263623 117.15575684 46.31522461 117.12401367 44.96435547 117.09130859 C37.28326672 116.93224145 29.62390705 116.97167266 21.94335938 117.13964844 C19.17819414 117.1879356 16.42297719 117.16826294 13.65820312 117.10253906 Z M111.9375 123.1875 C114.83839709 129.1955191 118.0813832 134.87450347 121.5625 140.5625 C127.27025333 149.97162344 132.66500147 159.52902925 137.9375 169.1875 C138.5975 169.1875 139.2575 169.1875 139.9375 169.1875 C141.33436599 165.38633133 142.72142556 161.58173223 144.10009766 157.77392578 C144.56887131 156.48327206 145.04015872 155.19352811 145.51416016 153.90478516 C148.27068528 146.40447261 150.72055362 139.10111527 151.9375 131.1875 C148.42910246 129.68333183 145.0718199 128.68595678 141.33203125 127.93359375 C139.73198242 127.61165039 139.73198242 127.61165039 138.09960938 127.28320312 C136.99423828 127.06599609 135.88886719 126.84878906 134.75 126.625 C133.66396484 126.40392578 132.57792969 126.18285156 131.45898438 125.95507812 C124.96484251 124.66405052 118.54039162 123.69327315 111.9375 123.1875 Z M-57.0234375 124.33203125 C-57.69162506 124.46187912 -58.35981262 124.59172699 -59.04824829 124.72550964 C-60.45939466 125.00152117 -61.86973726 125.28167009 -63.27929688 125.56567383 C-65.42140233 125.99676043 -67.56577612 126.41449622 -69.7109375 126.83007812 C-75.61824791 127.99292197 -81.37416104 129.17058656 -87.0625 131.1875 C-83.25869619 144.41024656 -78.97646414 157.33559378 -74.0625 170.1875 C-69.97684522 166.68418968 -68.03633658 162.60433521 -65.6875 157.875 C-59.77026537 146.26882265 -52.94262665 135.24133157 -46.0625 124.1875 C-49.93364773 122.77371578 -53.04730894 123.54977848 -57.0234375 124.33203125 Z M175.9375 137.1875 C175.59605957 138.21294922 175.25461914 139.23839844 174.90283203 140.29492188 C173.3005272 145.0962176 171.68243504 149.89212916 170.0625 154.6875 C169.77181641 155.55152435 169.48113281 156.41554871 169.18164062 157.30575562 C165.21069078 169.07684422 161.04679708 180.61403897 155.57080078 191.7890625 C153.59253378 196.09940661 152.43279983 198.99375669 153.90234375 203.625 C154.55254405 205.15809503 155.2328562 206.67865345 155.9375 208.1875 C156.65221161 209.94977271 157.3615535 211.7142297 158.06640625 213.48046875 C158.45715332 214.42672119 158.84790039 215.37297363 159.25048828 216.34790039 C165.5946576 231.71745009 170.84275807 247.3708655 175.9375 263.1875 C206.53730415 253.57899772 245.83069682 239.54121909 262.9375 210.1875 C265.62192991 204.39383141 266.07061609 198.8456819 264.16796875 192.703125 C255.84598969 174.23597711 236.18090645 163.09416664 218.9375 154.1875 C218.29151855 153.85153809 217.64553711 153.51557617 216.97998047 153.16943359 C197.13714716 142.30177166 197.13714716 142.30177166 175.9375 137.1875 Z M-188.5625 178.44140625 C-195.06199978 185.58070054 -199.55067658 192.66103058 -199.39453125 202.44140625 C-198.04362884 213.61416383 -188.69983708 222.31288911 -180.5 229.1875 C-159.46385461 245.2211474 -135.25662872 255.60099929 -110.0625 263.1875 C-109.72105957 262.1672876 -109.37961914 261.1470752 -109.02783203 260.09594727 C-107.71762545 256.18700343 -106.39579163 252.28204912 -105.07299805 248.37734985 C-104.18643083 245.74682767 -103.3126379 243.11228527 -102.43945312 240.47729492 C-99.86191119 232.78056467 -97.29215654 225.28070011 -93.5859375 218.046875 C-87.59576094 206.50473419 -87.59576094 206.50473419 -88.4765625 193.9296875 C-90.68178944 188.14178152 -93.48249395 182.67241892 -96.25341797 177.13964844 C-99.85512564 169.57671643 -102.18806706 161.45795884 -104.75 153.5 C-105.28238113 151.87166664 -105.81572389 150.24364732 -106.35009766 148.6159668 C-107.5978206 144.80973989 -108.8337693 140.99989831 -110.0625 137.1875 C-135.10646046 137.1875 -170.92964557 161.56774416 -188.5625 178.44140625 Z M137.9375 230.1875 C137.50219971 231.05193726 137.50219971 231.05193726 137.05810547 231.93383789 C129.3650956 247.13255217 120.98442361 261.75559889 111.9375 276.1875 C115.80864773 277.60128422 118.92230894 276.82522152 122.8984375 276.04296875 C123.90071884 275.84819695 123.90071884 275.84819695 124.92324829 275.64949036 C126.33439466 275.37347883 127.74473726 275.09332991 129.15429688 274.80932617 C131.29640233 274.37823957 133.44077612 273.96050378 135.5859375 273.54492188 C141.49324791 272.38207803 147.24916104 271.20441344 152.9375 269.1875 C151.29500728 264.11163821 149.64069624 259.03984269 147.9753418 253.97143555 C147.4105552 252.24691489 146.84900529 250.52133069 146.29077148 248.79467773 C145.48751095 246.31206717 144.67266357 243.8335222 143.85546875 241.35546875 C143.60846725 240.58349655 143.36146576 239.81152435 143.10697937 239.01615906 C141.87547173 235.31931092 140.82731216 232.79507718 137.9375 230.1875 Z M-74.0625 231.1875 C-75.45295293 235.04591113 -76.84036927 238.90539973 -78.22509766 242.76586914 C-78.69563778 244.07638306 -79.16697679 245.38661045 -79.63916016 246.6965332 C-80.32148755 248.58988353 -81.00061299 250.4843868 -81.6796875 252.37890625 C-82.29239502 254.08348999 -82.29239502 254.08348999 -82.91748047 255.82250977 C-85.32322469 262.85272251 -85.32322469 262.85272251 -86.0625 270.1875 C-81.01093882 271.21371727 -75.95728603 272.22862559 -70.90136719 273.2331543 C-69.18199618 273.57641235 -67.4632358 273.92274402 -65.74511719 274.2722168 C-63.27433188 274.77422896 -60.80155606 275.26511933 -58.328125 275.75390625 C-57.56131409 275.91218399 -56.79450317 276.07046173 -56.00445557 276.23353577 C-52.32937273 276.94882017 -49.64143664 277.2683651 -46.0625 276.1875 C-46.45928955 275.53491211 -46.8560791 274.88232422 -47.26489258 274.20996094 C-55.86524928 260.03941216 -64.21406028 245.79114564 -72.0625 231.1875 C-72.7225 231.1875 -73.3825 231.1875 -74.0625 231.1875 Z M-93.0625 293.1875 C-93.69538324 296.18601475 -94.31878116 299.18605542 -94.9375 302.1875 C-95.11152344 303.00734375 -95.28554687 303.8271875 -95.46484375 304.671875 C-98.24023162 318.2404379 -99.41668995 331.55993284 -99.37817383 345.37866211 C-99.37499699 347.75225158 -99.39865936 350.12460835 -99.42382812 352.49804688 C-99.49157994 368.80396647 -97.81762998 387.36067693 -85.85546875 399.62890625 C-79.97661103 404.73928583 -74.22192239 404.65999328 -66.67578125 404.46875 C-38.41211267 402.26876715 -10.96059196 380.9338062 8.9375 362.1875 C10.91340692 360.48813989 12.91797092 358.83501056 14.9375 357.1875 C14.3854043 353.33145661 12.74584483 351.73344528 9.9375 349.125 C5.70139873 345.02921123 1.98744677 340.71806607 -1.69140625 336.12109375 C-4.64472102 332.46715735 -7.67882159 328.87960302 -10.82666016 325.39135742 C-13.45620009 322.40396413 -15.41237068 319.64947299 -17.05859375 316.015625 C-19.82408895 310.46816955 -22.78023691 305.67236967 -28.92480469 303.54174805 C-38.64274464 300.93364108 -48.80837011 300.06995852 -58.78833008 299.02354431 C-66.08536157 298.24588514 -73.150782 296.93128315 -80.3125 295.3125 C-82.17160999 294.89724924 -84.03095703 294.48305719 -85.890625 294.0703125 C-86.6321582 293.89902832 -87.37369141 293.72774414 -88.13769531 293.55126953 C-90.22732336 293.09464848 -90.22732336 293.09464848 -93.0625 293.1875 Z M148.71875 294.578125 C147.22667873 294.8756631 145.73457106 295.17301873 144.24243164 295.47021484 C141.82609151 295.95506573 139.41049174 296.4430292 136.99606323 296.93731689 C128.68003657 298.6369925 120.47230998 300.26000815 112.00390625 300.9453125 C99.2792606 301.57489655 99.2792606 301.57489655 88.70703125 307.82421875 C85.7822211 311.35619351 83.41327044 315.1422101 81.15185547 319.12402344 C79.49137411 321.94557318 77.491218 324.383144 75.375 326.875 C74.67375 327.72191406 73.9725 328.56882812 73.25 329.44140625 C65.93343141 338.12983145 58.53404186 346.74193287 50.9375 355.1875 C54.97530243 360.21556552 59.27331281 364.42361278 64.3125 368.4375 C65.00730469 368.99469727 65.70210938 369.55189453 66.41796875 370.12597656 C86.36842073 385.93356441 113.2451827 405.61277565 139.9140625 404.47265625 C147.26334534 403.43694651 151.66891285 400.40858954 156.2109375 394.54296875 C171.75708869 372.16593295 167.11702205 336.40380915 162.9375 311.1875 C161.80092088 305.13923831 160.43884484 299.15477416 158.9375 293.1875 C155.40935114 293.1875 152.15718185 293.87492349 148.71875 294.578125 Z M5.9375 307.1875 C9.62578775 312.10521701 13.26859692 316.90400248 17.25 321.5625 C17.71639893 322.11123779 18.18279785 322.65997559 18.66333008 323.2253418 C22.99383783 328.29830632 27.43695334 333.26467982 31.9375 338.1875 C36.25622996 336.5640738 38.96967264 333.262811 42 329.9375 C42.56420654 329.32430908 43.12841309 328.71111816 43.7097168 328.0793457 C53.73038537 318.43932361 53.73038537 318.43932361 59.9375 307.1875 C42.1175 307.1875 24.2975 307.1875 5.9375 307.1875 Z " fill="#00D7FE" transform="translate(223.0625,55.8125)"/>
<path d="M0 0 C1.03125 0.7425 2.0625 1.485 3.125 2.25 C10.19032926 9.00814104 14.23480892 16.69349667 17 26 C17.19207031 26.61230469 17.38414062 27.22460938 17.58203125 27.85546875 C20.09468564 40.74749919 17.43400332 53.6021409 10.8125 64.8125 C3.3976743 75.62055102 -7.13394529 82.6405046 -19.91381836 85.62060547 C-34.24302577 88.22652569 -47.46187894 85.1204038 -59.46484375 76.96875 C-69.18474377 69.42047633 -75.20888501 58.93836 -78 47 C-79.64938755 31.58612436 -76.62331377 18.39192586 -67 6 C-49.58306223 -13.32610211 -20.41609761 -15.84222646 0 0 Z " fill="#00D7FE" transform="translate(286,218)"/>
</svg>
