<?xml version="1.0" encoding="UTF-8"?>
<svg version="1.1" xmlns="http://www.w3.org/2000/svg" width="308" height="350">
<path d="M0 0 C101.64 0 203.28 0 308 0 C308 13.50001442 308 13.50001442 307.59674168 18.02732372 C307.50679009 19.06630092 307.4168385 20.10527811 307.32416111 21.17573947 C307.17343731 22.82417148 307.17343731 22.82417148 307.01966858 24.50590515 C306.86146839 26.30648092 306.86146839 26.30648092 306.70007223 28.14343196 C306.40937354 31.43996861 306.11399572 34.73602239 305.81654131 38.03195202 C305.49569861 41.60011271 305.18101978 45.16881786 304.86555481 48.73745728 C304.24791206 55.71361785 303.62470155 62.68927017 302.99962933 69.66476854 C302.27123044 77.79607237 301.54868278 85.927893 300.82642763 94.05974445 C299.53734551 108.57153824 298.24340916 123.08289496 296.9465332 137.59399414 C295.68931523 151.66143758 294.4348738 165.72912453 293.18383789 179.79711914 C293.10674141 180.66406753 293.02964493 181.53101593 292.95021219 182.42423549 C292.64028316 185.90946342 292.33036277 189.39469212 292.02045644 192.87992207 C290.68233808 207.92775042 289.34200484 222.97538161 288.00131139 238.02298072 C287.78468985 240.45445383 287.56811533 242.88593113 287.35155034 245.31740928 C286.59313914 253.83183408 285.83403404 262.34619623 285.07308681 270.8603948 C284.75857702 274.37943955 284.44435092 277.89850891 284.13096619 281.41765404 C283.79083732 285.23688216 283.44915834 289.0559707 283.10731506 292.87504578 C283.00906325 293.98069262 282.91081143 295.08633946 282.80958229 296.22549075 C282.27689506 302.15987391 281.6814058 308.08079673 281 314 C275.93589582 316.28781711 270.91908587 318.01565878 265.5715332 319.50854492 C264.757173 319.73997192 263.94281281 319.97139893 263.10377502 320.20983887 C260.42067724 320.9711498 257.73575834 321.72581513 255.05078125 322.48046875 C253.154763 323.01710264 251.25886572 323.55416409 249.36308289 324.09162903 C244.3625384 325.50812473 239.3604396 326.91905149 234.35797119 328.32873535 C228.39023563 330.01152268 222.42432322 331.70075982 216.45823479 333.38937569 C211.63949081 334.7529816 206.82020144 336.11458399 201.99954224 337.47140503 C193.72245725 339.80263851 185.45097671 342.14661785 177.20458984 344.58447266 C175.89768294 344.9682742 174.59073376 345.35193181 173.28373718 345.73542786 C170.97030843 346.41705867 168.65932842 347.10709207 166.35163879 347.8079071 C154.75097204 351.21560478 146.89963766 349.4459884 135.4453125 346.1171875 C134.00011038 345.70563611 132.55463318 345.29504962 131.10890198 344.88536072 C127.24299972 343.78720866 123.38078318 342.67659203 119.51913071 341.56360245 C115.51987497 340.41333221 111.51731482 339.27469178 107.51489258 338.13549805 C102.67244271 336.75656111 97.83025172 335.37675449 92.98951721 333.99180603 C83.08647753 331.15890379 73.17598358 328.35539412 63.25390625 325.58984375 C61.48723602 325.09735138 61.48723602 325.09735138 59.68487549 324.59490967 C55.27984315 323.36786877 50.8744119 322.14227152 46.46856689 320.91815186 C43.52412258 320.09954221 40.58036125 319.27851853 37.63671875 318.45703125 C36.77873184 318.21943588 35.92074493 317.98184052 35.03675842 317.73704529 C29.227075 316.1135375 29.227075 316.1135375 27 315 C26.51634216 312.22529602 26.51634216 312.22529602 26.18139648 308.42700195 C26.11733406 307.73013004 26.05327163 307.03325812 25.98726791 306.31526887 C25.77283364 303.95699097 25.57205987 301.59774233 25.37109375 299.23828125 C25.22017041 297.54743109 25.06841394 295.85665512 24.91588688 294.16594887 C24.4997249 289.52608094 24.09538497 284.88524641 23.69293714 280.24417162 C23.26318404 275.3118623 22.82256666 270.38052344 22.38316345 265.44906616 C21.53629194 255.92551196 20.69926364 246.40111803 19.86565906 236.87639439 C18.90897871 225.94973757 17.94262455 215.02394367 16.97539079 204.09821677 C15.72417487 189.96345537 14.47496614 175.82851934 13.23207092 161.69302368 C13.13856139 160.62956124 13.04505186 159.5660988 12.94870871 158.47041023 C12.85579167 157.41366257 12.76287463 156.35691492 12.66714191 155.26814461 C10.80769438 134.12090346 8.93115231 112.9753082 7.02860641 91.83190155 C6.66002478 87.73519253 6.29244208 83.63839437 5.92520142 79.54156494 C5.80947596 78.25061039 5.6937505 76.95965584 5.5745182 75.62958145 C5.3495403 73.11929731 5.12459308 70.60901042 4.89967918 68.09872055 C4.36969843 62.18574016 3.83826121 56.27289867 3.3034668 50.36035156 C2.81490198 44.95669576 2.33134839 39.55261535 1.85180855 34.1481514 C1.681281 32.23615454 1.50895395 30.32431704 1.33454704 28.41267014 C1.10083948 25.84893007 0.87371931 23.28468573 0.64819336 20.72021484 C0.58135345 20.00478012 0.51451355 19.2893454 0.44564819 18.55223083 C-0.09160397 12.30491932 0 6.35123448 0 0 Z " fill="#E7A328" transform="translate(0,0)"/>
<path d="M0 0 C1.12735282 0.00092179 2.25470564 0.00184359 3.41622066 0.00279331 C4.7049609 0.00141865 5.99370113 0.00004398 7.3214941 -0.00137234 C8.76297688 0.00216728 10.20445942 0.0058021 11.64594173 0.00952244 C13.15345921 0.0098043 14.66097683 0.00964659 16.16849422 0.00907993 C20.2736879 0.00879192 24.37885262 0.01468922 28.48403955 0.02165389 C32.76952707 0.02788684 37.05501519 0.02849118 41.34050655 0.0296793 C49.46136099 0.03279279 57.58220203 0.04100641 65.70305055 0.05102879 C74.94594321 0.06218938 84.18883649 0.06770024 93.4317342 0.07272422 C112.45032856 0.08318901 131.46891044 0.1007888 150.48749447 0.12304783 C150.81279953 2.03641213 151.13631031 3.95008154 151.45906734 5.8638773 C151.63941556 6.92951877 151.81976377 7.99516024 152.00557709 9.09309387 C152.58497724 12.73595022 152.94657839 16.32423466 153.23358822 20.00195408 C153.28927975 20.68914524 153.34497128 21.3763364 153.40235043 22.08435154 C153.52008806 23.53818024 153.63580108 24.99217423 153.74954891 26.44632053 C154.77007611 39.47140019 155.97665365 52.45114103 157.57318783 65.42016697 C157.7531329 66.93018284 157.7531329 66.93018284 157.93671322 68.47070408 C158.04330257 69.32672215 158.14989193 70.18274021 158.25971127 71.06469822 C158.58305649 75.40611901 158.48749447 79.76960245 158.48749447 84.12304783 C145.61749447 84.12304783 132.74749447 84.12304783 119.48749447 84.12304783 C117.98515956 78.86487565 117.10690284 74.769988 116.63593197 69.43945408 C116.57217373 68.73908527 116.50841549 68.03871647 116.44272518 67.31712437 C116.24298393 65.10711048 116.05258284 62.8964107 115.86249447 60.68554783 C115.72769769 59.17572673 115.59228673 57.66596034 115.45624447 56.15625095 C115.12623081 52.47912156 114.80458117 48.80131714 114.48749447 45.12304783 C73.00156011 43.37759409 73.00156011 43.37759409 31.48749447 43.12304783 C31.4270747 43.75896351 31.36665493 44.39487919 31.30440426 45.05006504 C30.67364537 51.68534062 30.0405815 58.32039345 29.40619564 64.95532322 C29.16993029 67.42955097 28.93424718 69.90383439 28.69916439 72.37817478 C28.36061897 75.94041698 28.01996099 79.50245189 27.67890072 83.06445408 C27.5225893 84.71641537 27.5225893 84.71641537 27.36312008 86.40174961 C27.26309185 87.4423 27.16306362 88.48285038 27.06000423 89.55493259 C26.93009846 90.91727779 26.93009846 90.91727779 26.79756832 92.30714512 C26.4362639 95.58829281 25.95432358 98.85524403 25.48749447 102.12304783 C69.37749447 102.12304783 113.26749447 102.12304783 158.48749447 102.12304783 C158.48749447 113.35207277 158.48749447 113.35207277 157.93671322 118.14257908 C157.81683041 119.2279697 157.69694759 120.31336033 157.57343197 121.43164158 C157.44194759 122.58793064 157.31046322 123.7442197 157.17499447 124.93554783 C155.91684121 136.48659298 154.88999822 148.03934408 153.98749447 159.62304783 C152.99773642 172.28805784 151.86397983 184.92091793 150.48944759 197.5507822 C150.37278744 198.62650486 150.25612728 199.70222752 150.13593197 200.81054783 C150.0221722 201.84179783 149.90841244 202.87304783 149.79120541 203.93554783 C149.35992569 208.46190469 149.14517103 212.99870814 148.95087337 217.54101658 C148.79795834 218.39308689 148.6450433 219.2451572 148.48749447 220.12304783 C145.74956594 221.94833352 144.14756856 222.62009766 141.04999447 223.41992283 C140.16505306 223.65324314 139.28011166 223.88656345 138.36835384 224.12695408 C136.94232845 224.49627048 136.94232845 224.49627048 135.48749447 224.87304783 C128.25992946 226.78969799 121.09898033 228.81223397 113.98749447 231.12304783 C106.10064729 233.67942198 98.14953408 235.91404273 90.13397884 238.03125095 C85.96203017 239.14024997 81.89500393 240.31754935 77.83905697 241.79882908 C69.18365931 244.68554218 61.93331016 242.46837082 53.42499447 240.06054783 C52.28030697 239.74472752 51.13561947 239.4289072 49.95624447 239.10351658 C41.66847985 236.79576334 33.43728959 234.31867869 25.22309017 231.76294041 C16.42949995 229.04750913 7.55349456 226.66890685 -1.35039616 224.34375095 C-2.40162663 224.06724705 -3.45285709 223.79074314 -4.53594303 223.50586033 C-5.94239079 223.14065281 -5.94239079 223.14065281 -7.37725163 222.76806736 C-9.51250553 222.12304783 -9.51250553 222.12304783 -10.51250553 221.12304783 C-10.75370436 219.33240085 -10.93202118 217.5332406 -11.0850153 215.73291111 C-11.18504353 214.5814661 -11.28507175 213.4300211 -11.38813114 212.24368382 C-11.49233875 210.98957706 -11.59654636 209.73547031 -11.70391178 208.44336033 C-11.81347706 207.16451969 -11.92304234 205.88567905 -12.03592777 204.56808567 C-12.26808811 201.85632512 -12.49729472 199.14433716 -12.72417545 196.43212986 C-13.01499697 192.95587852 -13.3108144 189.48007707 -13.60856056 186.00441265 C-13.89206713 182.69254066 -14.1730444 179.38045727 -14.45391178 176.06836033 C-14.56014362 174.81830204 -14.66637547 173.56824375 -14.77582645 172.28030491 C-14.87270252 171.12255558 -14.96957859 169.96480625 -15.0693903 168.77197361 C-15.15519855 167.75128788 -15.24100681 166.73060215 -15.32941532 165.67898655 C-15.46181141 163.83073757 -15.51250553 161.97603272 -15.51250553 160.12304783 C-2.64250553 160.12304783 10.22749447 160.12304783 23.48749447 160.12304783 C25.80892304 182.17661926 25.80892304 182.17661926 25.48749447 191.12304783 C26.29573666 191.2442197 27.10397884 191.36539158 27.93671322 191.49023533 C29.53966244 191.74160252 29.53966244 191.74160252 31.17499447 191.99804783 C32.75860775 192.24168064 32.75860775 192.24168064 34.37421322 192.49023533 C37.29817723 193.08456678 39.74519356 193.97701163 42.48749447 195.12304783 C43.81281389 195.44920065 45.14696797 195.74146268 46.48749447 195.99804783 C50.4477998 196.81787731 54.20904897 197.98405186 58.04999447 199.24804783 C65.89460214 201.6806962 71.26748902 201.81245704 79.01093197 198.97851658 C82.75242996 197.68610639 86.58175665 196.81325309 90.42499447 195.87695408 C97.19843346 194.2095131 103.88160323 192.36673975 110.48749447 190.12304783 C111.63480818 177.33225349 112.68257327 164.56217328 113.14545345 151.72583103 C113.17711605 150.91331882 113.20877865 150.10080662 113.24140072 149.26367283 C113.27729305 148.20454685 113.27729305 148.20454685 113.31391048 147.12402439 C113.48749447 145.12304783 113.48749447 145.12304783 114.48749447 141.12304783 C71.58749447 141.12304783 28.68749447 141.12304783 -15.51250553 141.12304783 C-15.51250553 134.91059169 -15.48769901 129.82043806 -14.62969303 123.85278416 C-13.26098405 113.74966452 -12.46869647 103.60615892 -11.63750553 93.44726658 C-11.46614121 91.38569893 -11.2944217 89.32416078 -11.12236881 87.26265049 C-10.67323548 81.87316227 -10.22766364 76.48338667 -9.78325748 71.09350681 C-9.07305276 62.48203441 -8.35919417 53.87086933 -7.64183903 45.25998974 C-7.39520528 42.28998814 -7.15123647 39.31977664 -6.90752506 36.34953403 C-6.16206471 27.32788962 -5.37093406 18.31228399 -4.45781803 9.30590916 C-4.37804722 8.49290946 -4.29827641 7.67990976 -4.21608829 6.84227371 C-3.51871663 0.17232616 -3.51871663 0.17232616 0 0 Z " fill="#FEFEFD" transform="translate(82.51250553131104,52.876952171325684)"/>
<path d="M0 0 C40.92 0 81.84 0 124 0 C124.98606692 3.94426767 124.95966195 6.32532534 124.59790039 10.32202148 C124.4831839 11.62689514 124.36846741 12.9317688 124.25027466 14.27618408 C124.11615221 15.72449506 123.98194305 17.172798 123.84765625 18.62109375 C123.71071396 20.15259359 123.5744088 21.68415051 123.43869019 23.21575928 C123.14338922 26.53468362 122.84399493 29.85320435 122.54147339 33.17147827 C122.05476344 38.51190907 121.57732926 43.85314288 121.10180664 49.19458008 C120.93688191 51.04637213 120.77194958 52.8981635 120.60700989 54.74995422 C120.48267547 56.14608161 120.48267547 56.14608161 120.35582924 57.57041359 C120.09857095 60.45542355 119.84042859 63.34035326 119.58207703 66.2252655 C117.82060633 85.90995983 116.12820224 105.6004507 114.44241333 125.29174805 C113.60571313 135.06447723 112.76561496 144.8369147 111.92578125 154.609375 C111.84431036 155.5576416 111.76283947 156.5059082 111.67889977 157.48291016 C110.06728294 176.24020538 108.44525043 194.99658628 106.81489944 213.75226212 C106.62881351 215.89361666 106.44290465 218.0349865 106.25704956 220.17636108 C104.87293837 236.12083383 103.46494754 252.06273835 102 268 C97.20070059 270.16301504 92.4500109 271.84824892 87.35913086 273.20483398 C86.62957184 273.40367187 85.90001282 273.60250977 85.14834595 273.80737305 C82.75511431 274.45839709 80.36001415 275.10224291 77.96484375 275.74609375 C76.28190004 276.20257649 74.59908663 276.65953984 72.91639709 277.11695862 C68.49249664 278.31829691 64.06701087 279.51368504 59.64111328 280.7076416 C54.30349478 282.14856724 48.96757369 283.59576204 43.63160801 285.04279423 C39.47044112 286.17122506 35.30898465 287.298535 31.14646912 288.42198181 C29.61316401 288.83648338 28.07988396 289.2510776 26.54663086 289.66577148 C25.81687011 289.8627082 25.08710936 290.05964491 24.33523464 290.2625494 C20.85104306 291.20735446 17.37585577 292.17407385 13.91238403 293.19241333 C12.6632724 293.55954437 11.41416077 293.92667542 10.12719727 294.30493164 C9.03633316 294.63215714 7.94546906 294.95938263 6.82154846 295.29652405 C4 296 4 296 0 296 C-0.33 286.76 -0.66 277.52 -1 268 C3.29 267.01 7.58 266.02 12 265 C14.95938826 264.02403153 17.91877624 263.04733568 20.86328125 262.02734375 C24.23646871 260.92255134 27.6259527 260.01268264 31.0625 259.125 C36.81330886 257.62733259 42.46816595 255.94397784 48.125 254.125 C58.34748481 250.83791871 68.66097707 247.89635442 79 245 C79.11275269 243.63742065 79.11275269 243.63742065 79.2277832 242.24731445 C80.52135172 226.69222635 81.82816524 211.1449037 83.5 195.625 C84.87689259 182.82550047 85.93681278 170.00976353 86.91015625 157.17431641 C86.96803818 156.42713348 87.0259201 155.67995056 87.08555603 154.91012573 C87.24142424 152.89569189 87.39346198 150.88096265 87.54516602 148.86621094 C88.22773287 141.56351499 89.14302488 134.28428852 90 127 C46.11 127 2.22 127 -43 127 C-41.84526492 107.36950357 -41.84526492 107.36950357 -41.0625 99.1875 C-40.97750244 98.28169189 -40.89250488 97.37588379 -40.80493164 96.44262695 C-40.62832454 94.5709809 -40.45019428 92.69947793 -40.27050781 90.828125 C-39.99506599 87.94841556 -39.72783139 85.06801292 -39.4609375 82.1875 C-39.28694617 80.3541203 -39.11248559 78.52078507 -38.9375 76.6875 C-38.81870483 75.39718872 -38.81870483 75.39718872 -38.69750977 74.08081055 C-38.11465523 68.11465523 -38.11465523 68.11465523 -37 67 C-33.09397136 66.71998951 -29.16456265 66.81016419 -25.25 66.8125 C-23.3469812 66.81262085 -23.3469812 66.81262085 -21.40551758 66.81274414 C-7.15868416 66.86794364 7.07682712 67.41122722 21.3125 67.9375 C22.52280884 67.98097565 23.73311768 68.02445129 24.98010254 68.06924438 C28.44141459 68.19528352 31.90235679 68.32861582 35.36328125 68.46484375 C36.42237198 68.50344513 37.48146271 68.54204651 38.57264709 68.58181763 C39.53778732 68.62176849 40.50292755 68.66171936 41.49731445 68.70288086 C42.77056328 68.75284462 42.77056328 68.75284462 44.0695343 68.80381775 C46 69 46 69 47 70 C47.28900067 72.28987637 47.51655008 74.58755143 47.71875 76.88671875 C47.81295227 77.92866142 47.81295227 77.92866142 47.90905762 78.99165344 C48.11027701 81.22324715 48.30552068 83.45530959 48.5 85.6875 C48.69522692 87.90175888 48.89177806 90.1158799 49.09094238 92.32978821 C49.27252103 94.35200536 49.44984467 96.37460324 49.62695312 98.3972168 C49.95998064 101.61350412 50.46841869 104.81051215 51 108 C70.305 108.495 70.305 108.495 90 109 C89.01 101.08 89.01 101.08 88 93 C87.72598388 90.17291255 87.47122074 87.34372911 87.25390625 84.51171875 C87.13916527 83.06127245 87.0243345 81.61083326 86.90942383 80.16040039 C86.852836 79.42967316 86.79624817 78.69894592 86.73794556 77.94607544 C85.706588 64.66902871 84.48596506 51.43730557 82.91430664 38.21166992 C82.73436157 36.6857019 82.73436157 36.6857019 82.55078125 35.12890625 C82.44419189 34.25306885 82.33760254 33.37723145 82.2277832 32.47485352 C81.99931623 29.99257083 82 27.49277445 82 25 C54.94 25 27.88 25 0 25 C0 16.75 0 8.5 0 0 Z " fill="#F2BF27" transform="translate(151,28)"/>
<path d="M0 0 C31.02 0 62.04 0 94 0 C94 11.22902494 94 11.22902494 93.44921875 16.01953125 C93.32933594 17.10492188 93.20945313 18.1903125 93.0859375 19.30859375 C92.95445312 20.46488281 92.82296875 21.62117188 92.6875 22.8125 C91.42934674 34.36354515 90.40250375 45.91629625 89.5 57.5 C88.51024196 70.16501001 87.37648536 82.7978701 86.00195312 95.42773438 C85.88529297 96.50345703 85.76863281 97.57917969 85.6484375 98.6875 C85.53467773 99.71875 85.42091797 100.75 85.30371094 101.8125 C84.87243122 106.33885686 84.65767656 110.87566032 84.46337891 115.41796875 C84.31046387 116.27003906 84.15754883 117.12210937 84 118 C81.26207147 119.82528569 79.6600741 120.49704983 76.5625 121.296875 C75.23508789 121.64685547 75.23508789 121.64685547 73.88085938 122.00390625 C72.93017578 122.25011719 71.97949219 122.49632812 71 122.75 C63.772435 124.66665016 56.61148586 126.68918614 49.5 129 C41.61315282 131.55637415 33.66203961 133.79099491 25.64648438 135.90820312 C21.4745357 137.01720214 17.40750947 138.19450152 13.3515625 139.67578125 C4.69616484 142.56249435 -2.55418431 140.34532299 -11.0625 137.9375 C-12.2071875 137.62167969 -13.351875 137.30585938 -14.53125 136.98046875 C-22.81901462 134.67271551 -31.05020488 132.19563086 -39.2644043 129.63989258 C-48.05799452 126.9244613 -56.93399991 124.54585902 -65.83789062 122.22070312 C-67.41473633 121.80594727 -67.41473633 121.80594727 -69.0234375 121.3828125 C-70.42988525 121.01760498 -70.42988525 121.01760498 -71.86474609 120.64501953 C-74 120 -74 120 -75 119 C-75.24119883 117.20935302 -75.41951565 115.41019277 -75.57250977 113.60986328 C-75.67253799 112.45841827 -75.77256622 111.30697327 -75.87562561 110.12063599 C-75.97983322 108.86652924 -76.08404083 107.61242249 -76.19140625 106.3203125 C-76.30097153 105.04147186 -76.4105368 103.76263123 -76.52342224 102.44503784 C-76.75558258 99.73327729 -76.98478919 97.02128933 -77.21166992 94.30908203 C-77.50249144 90.83283069 -77.79830887 87.35702924 -78.09605503 83.88136482 C-78.3795616 80.56949283 -78.66053887 77.25740944 -78.94140625 73.9453125 C-79.10075401 72.07022507 -79.10075401 72.07022507 -79.26332092 70.15725708 C-79.36019699 68.99950775 -79.45707306 67.84175842 -79.55688477 66.64892578 C-79.64269302 65.62824005 -79.72850128 64.60755432 -79.81690979 63.55593872 C-79.94930588 61.70768974 -80 59.85298489 -80 58 C-67.13 58 -54.26 58 -41 58 C-38.67857143 80.05357143 -38.67857143 80.05357143 -39 89 C-37.78763672 89.18175781 -37.78763672 89.18175781 -36.55078125 89.3671875 C-35.48214844 89.53476563 -34.41351563 89.70234375 -33.3125 89.875 C-32.25675781 90.03742188 -31.20101562 90.19984375 -30.11328125 90.3671875 C-27.18931724 90.96151895 -24.74230091 91.8539638 -22 93 C-20.67468058 93.32615283 -19.34052649 93.61841485 -18 93.875 C-14.03969467 94.69482948 -10.2784455 95.86100403 -6.4375 97.125 C1.40710767 99.55764837 6.77999455 99.68940921 14.5234375 96.85546875 C18.26493549 95.56305856 22.09426218 94.69020526 25.9375 93.75390625 C32.71093899 92.08646527 39.39410876 90.24369192 46 88 C47.14731371 75.20920566 48.1950788 62.43912545 48.65795898 49.6027832 C48.68962158 48.790271 48.72128418 47.97775879 48.75390625 47.140625 C48.78979858 46.08149902 48.78979858 46.08149902 48.82641602 45.00097656 C49 43 49 43 50 39 C7.1 39 -35.8 39 -80 39 C-80 38.67 -80 38.34 -80 38 C-52.28 38 -24.56 38 4 38 C4 25.79 4 13.58 4 1 C2.68 0.67 1.36 0.34 0 0 Z " fill="#FBEFC8" transform="translate(147,155)"/>
<path d="M0 0 C50.49 0 100.98 0 153 0 C155.24677082 13.48062492 155.24677082 13.48062492 155.74609375 19.87890625 C155.80178528 20.56609741 155.85747681 21.25328857 155.91485596 21.96130371 C156.03259359 23.41513241 156.14830661 24.8691264 156.26205444 26.32327271 C157.28258164 39.34835236 158.48915918 52.32809321 160.08569336 65.29711914 C160.26563843 66.80713501 160.26563843 66.80713501 160.44921875 68.34765625 C160.55580811 69.20367432 160.66239746 70.05969238 160.7722168 70.94165039 C161.09556202 75.28307118 161 79.64655462 161 84 C148.13 84 135.26 84 122 84 C120.49766509 78.74182782 119.61940837 74.64694017 119.1484375 69.31640625 C119.03161621 68.03451416 118.91479492 66.75262207 118.79443359 65.43188477 C118.65602051 63.82498779 118.51760742 62.21809082 118.375 60.5625 C117.92125 55.426875 117.4675 50.29125 117 45 C91.26 44.01 91.26 44.01 65 43 C65 42.67 65 42.34 65 42 C66.98 42 68.96 42 71 42 C71 28.47 71 14.94 71 1 C47.57 1 24.14 1 0 1 C0 0.67 0 0.34 0 0 Z " fill="#FBEEC8" transform="translate(80,53)"/>
<path d="M0 0 C12.87 0 25.74 0 39 0 C41.32142857 22.05357143 41.32142857 22.05357143 41 31 C41.80824219 31.12117188 42.61648437 31.24234375 43.44921875 31.3671875 C44.51785156 31.53476563 45.58648437 31.70234375 46.6875 31.875 C47.74324219 32.03742188 48.79898438 32.19984375 49.88671875 32.3671875 C52.80980048 32.96133962 55.25952581 33.85165439 58 35 C59.2375 35.268125 60.475 35.53625 61.75 35.8125 C69.25842915 37.51083517 76.61470176 39.82785346 84 42 C84 55.53 84 69.06 84 83 C72.72588424 80.74517685 72.72588424 80.74517685 68.14453125 79.51953125 C67.12174072 79.24608887 66.0989502 78.97264648 65.04516602 78.69091797 C63.97838623 78.40104004 62.91160645 78.11116211 61.8125 77.8125 C60.11661743 77.35447998 60.11661743 77.35447998 58.38647461 76.88720703 C49.95289285 74.58665739 41.59024646 72.09281817 33.24291992 69.4987793 C26.10302341 67.29324838 18.91976916 65.32858394 11.67211914 63.50927734 C6.09741939 62.09741939 6.09741939 62.09741939 5 61 C4.75880117 59.20935302 4.58048435 57.41019277 4.42749023 55.60986328 C4.27744789 53.88269577 4.27744789 53.88269577 4.12437439 52.12063599 C3.96806297 50.23947586 3.96806297 50.23947586 3.80859375 48.3203125 C3.69902847 47.04147186 3.5894632 45.76263123 3.47657776 44.44503784 C3.24441742 41.73327729 3.01521081 39.02128933 2.78833008 36.30908203 C2.49750856 32.83283069 2.20169113 29.35702924 1.90394497 25.88136482 C1.6204384 22.56949283 1.33946113 19.25740944 1.05859375 15.9453125 C0.95236191 14.69525421 0.84613007 13.44519592 0.73667908 12.15725708 C0.63980301 10.99950775 0.54292694 9.84175842 0.44311523 8.64892578 C0.35730698 7.62824005 0.27149872 6.60755432 0.18309021 5.55593872 C0.05069412 3.70768974 0 1.85298489 0 0 Z " fill="#FEFEFC" transform="translate(67,213)"/>
<path d="M0 0 C15.18 0 30.36 0 46 0 C45.690625 6.6 45.38125 13.2 45.0625 20 C44.96718994 22.06765625 44.87187988 24.1353125 44.77368164 26.265625 C44.69441726 27.927095 44.61492377 29.58855408 44.53515625 31.25 C44.49708862 32.09433594 44.459021 32.93867188 44.4197998 33.80859375 C43.71358262 48.31239733 43.71358262 48.31239733 41.390625 50.55078125 C40.68421875 50.80214844 39.9778125 51.05351562 39.25 51.3125 C38.02023438 51.75722656 38.02023438 51.75722656 36.765625 52.2109375 C32.76703323 53.35177866 28.74342477 54.28025387 24.67578125 55.140625 C19.73345094 56.29611136 14.91067708 57.79613448 10.08789062 59.37475586 C5.22591088 60.88919057 1.09342359 61.21103771 -4 61 C-2.02 60.505 -2.02 60.505 0 60 C0 40.2 0 20.4 0 0 Z " fill="#F2BF27" transform="translate(151,194)"/>
<path d="M0 0 C1.31871094 -0.00128906 2.63742188 -0.00257812 3.99609375 -0.00390625 C4.68848145 -0.00181152 5.38086914 0.0002832 6.09423828 0.00244141 C8.18139095 0.00773753 10.26832328 0.00252487 12.35546875 -0.00390625 C13.69531297 -0.00324446 15.03515705 -0.00196122 16.375 0 C18.19572021 0.00169189 18.19572021 0.00169189 20.05322266 0.00341797 C23.5859375 0.1328125 23.5859375 0.1328125 30.5859375 1.1328125 C30.5859375 20.6028125 30.5859375 40.0728125 30.5859375 60.1328125 C16.3959375 60.1328125 2.2059375 60.1328125 -12.4140625 60.1328125 C-11.25932742 40.50231607 -11.25932742 40.50231607 -10.4765625 32.3203125 C-10.39156494 31.41450439 -10.30656738 30.50869629 -10.21899414 29.57543945 C-10.04238704 27.7037934 -9.86425678 25.83229043 -9.68457031 23.9609375 C-9.40912849 21.08122806 -9.14189389 18.20082542 -8.875 15.3203125 C-8.70100867 13.4869328 -8.52654809 11.65359757 -8.3515625 9.8203125 C-8.27236572 8.96010498 -8.19316895 8.09989746 -8.11157227 7.21362305 C-7.40852727 0.01718662 -7.1378105 0.00666996 0 0 Z " fill="#E7A42A" transform="translate(120.4140625,94.8671875)"/>
</svg>
